<svg width="351" height="451" viewBox="0 0 351 451" fill="none" xmlns="http://www.w3.org/2000/svg">
<path fill-rule="evenodd" clip-rule="evenodd" d="M145.229 4.98901C143.897 10.542 144.69 14.221 148.174 18.651L150.192 21.216L151.21 18.539C152.894 14.11 152.393 8.17701 149.978 3.94801C148.74 1.78101 147.435 0.00400833 147.078 8.33203e-06C146.72 -0.00499167 145.888 2.24101 145.229 4.98901ZM163.986 8.55801C159.339 11.931 158.839 12.879 157.868 20.164L157.379 23.835L160.872 21.775C165.339 19.139 166.997 16.549 168.142 10.424C168.648 7.71201 168.982 5.41301 168.883 5.31401C168.785 5.21501 166.581 6.67501 163.986 8.55801ZM131.824 23.544C136.319 29.029 137.963 29.992 142.834 29.992C144.925 29.992 147.486 30.759 148.649 31.735C150.561 33.337 150.552 33.277 148.545 30.985C147.344 29.614 145.892 27.255 145.32 25.742C143.823 21.793 138.687 19 132.911 18.996L128.094 18.992L131.824 23.544ZM167.444 31.495C163.003 33.01 160.248 35.97 159.278 40.27C158.49 43.765 158.529 43.828 160.917 42.92C166.033 40.975 167.417 39.716 169.319 35.28C170.397 32.766 171.154 30.634 171.003 30.542C170.852 30.45 169.25 30.879 167.444 31.495ZM152.243 33.301C152.234 34.342 151.768 34.826 151.145 34.441C150.55 34.073 150.835 35.266 151.779 37.091C153.004 39.46 153.709 44.291 154.239 53.951C154.84 64.915 155.514 69.015 157.779 75.492C163.447 91.704 161.44 101.522 149.532 115.837C146.031 120.047 141.459 126.031 139.374 129.135L135.582 134.777L134.3 127.145C133.594 122.948 131.715 116.234 130.123 112.227C128.531 108.219 127.164 103.039 127.086 100.716L126.944 96.492L126.336 100.459L125.728 104.427L121.252 97.459C118.791 93.627 115.32 88.917 113.54 86.992C111.76 85.067 109.578 82.592 108.691 81.492C106.112 78.291 108.295 82.141 111.243 85.992C112.717 87.917 114.734 90.755 115.727 92.298L117.531 95.103L113.629 92.881C110.32 90.995 110.031 90.949 111.728 92.575C112.828 93.629 115.414 95.617 117.475 96.992C121.746 99.842 127.019 109.019 129.827 118.492C132.537 127.633 132.174 140.567 128.94 150.065C125.601 159.871 122.664 171.653 121.308 180.684C120.086 188.821 119.998 220.402 121.172 229.492C121.598 232.792 121.785 235.679 121.589 235.907C121.392 236.136 118.187 233.436 114.466 229.907C110.746 226.379 103.967 220.603 99.401 217.072C82.8 204.232 70.847 187.659 69.487 175.598C69.202 173.065 68.576 170.992 68.098 170.992C67.619 170.992 67.228 169.894 67.228 168.551C67.228 167.208 66.778 165.832 66.228 165.492C64.895 164.668 64.871 164.515 67.706 175.108C69.069 180.202 69.959 184.594 69.683 184.87C69.408 185.146 67.055 183.348 64.455 180.875C57.23 174.003 55.117 172.945 60.801 179.046C66.958 185.655 72.795 192.885 77.091 199.222C78.854 201.824 82.819 206.677 85.902 210.006L91.507 216.06L87.117 215.276C76.978 213.465 60.274 215.822 57.227 219.493C56.449 220.43 57.666 220.254 61.176 218.92C69.346 215.815 70.347 216.445 65.086 221.381C59.62 226.51 58.79 228.597 59.734 234.841L60.437 239.492L63.924 235.492C67.077 231.875 67.369 231.038 66.968 226.753C66.452 221.249 67.744 218.849 72.222 216.995C80.069 213.744 96.066 219.83 106.82 230.155C115.15 238.155 119.507 244.814 122.813 254.601C125.049 261.221 125.471 264.183 125.434 272.992C125.382 285.244 123.927 291.306 116.393 310.662C108.523 330.877 106.129 339.977 105.52 351.992C104.848 365.222 106.787 376.092 111.816 387.299C118.079 401.257 120.175 408.061 120.202 414.53C120.254 426.535 113.623 433.489 97.728 438.098C87.564 441.045 77.1 444.679 72.095 446.999C67.225 449.256 68.037 449.187 82.228 446.14C87.453 445.019 96.672 443.15 102.715 441.988C108.758 440.826 115.69 438.996 118.12 437.922C120.549 436.847 122.698 436.129 122.895 436.325C123.608 437.038 115.082 445.919 111.646 448.042C109.708 449.24 108.303 450.4 108.523 450.621C109.508 451.605 122.368 446.682 128.549 442.954C138.241 437.109 139.991 437.028 151.397 441.901C160.446 445.768 176.946 450.608 177.883 449.671C178.118 449.435 176.399 448.477 174.062 447.542C168.949 445.497 157.228 437.928 157.228 436.673C157.228 436.181 158.016 436.098 158.978 436.489C164.145 438.59 174.875 441.151 184.193 442.507C189.987 443.351 200.422 445.155 207.382 446.516C214.341 447.878 220.641 448.963 221.382 448.927C223.346 448.832 203.349 442.405 191.916 439.456C171.032 434.07 161.46 429.419 153.792 420.931C148.093 414.623 133.532 391.919 129.046 382.344C123.601 370.725 121.906 362.024 122.551 348.992C123.697 325.793 133.468 303.383 151.728 282.07C158.604 274.045 166.054 269.637 175.791 267.832C183.758 266.356 190.061 267.368 194.124 270.778C197.008 273.198 197.381 274.112 197.569 279.221C197.766 284.532 198.089 285.246 202.005 289.008L206.228 293.066V286.952C206.228 281.611 205.879 280.49 203.468 278.079C201.951 276.561 200.263 275.131 199.718 274.902C199.174 274.673 197.603 273.185 196.228 271.595L193.728 268.704L197.228 269.344C208.32 271.371 225.228 283.543 225.228 289.502C225.228 293.734 227.72 298.367 231.58 301.312L235.228 304.094L235.224 299.793C235.22 295.193 232.185 288.992 229.938 288.992C229.212 288.992 226.406 286.685 223.704 283.864L218.79 278.737L222.259 279.359C224.969 279.845 224.634 279.574 220.728 278.121C214.517 275.81 203.194 269.046 205.228 268.861C206.053 268.786 204.703 268.398 202.228 267.998C199.753 267.599 194.803 266.478 191.228 265.508C186.483 264.22 182.636 263.887 176.978 264.274C172.716 264.565 169.258 264.508 169.295 264.147C169.426 262.858 183.676 251.468 192.74 245.408C208.491 234.877 224.084 230.191 239.708 231.293C255.428 232.403 266.959 236.655 270.449 242.63C272.049 245.371 272.129 246.333 271.082 250.248C269.959 254.447 270.06 255.029 272.684 259.508L275.485 264.286L276.856 261.024C278.858 256.264 278.542 252.522 275.869 249.319C273.723 246.749 270.228 240.749 270.228 239.638C270.228 238.965 281.189 244.964 285.228 247.848C287.153 249.222 290.003 251.729 291.562 253.419C293.121 255.109 294.107 255.93 293.753 255.242C292.993 253.765 294.827 253.533 295.728 254.992C296.068 255.542 297.064 255.992 297.942 255.992C298.82 255.992 296.881 254.274 293.633 252.175C290.385 250.075 284.972 246.328 281.603 243.848C278.235 241.368 274.072 238.756 272.353 238.044C270.634 237.332 269.229 236.466 269.229 236.121C269.23 235.775 277.346 235.522 287.266 235.559L305.301 235.626L308.169 238.766C311.258 242.148 314.37 243.34 318.753 242.82L321.519 242.492L318.472 239.242C316.065 236.674 314.618 235.989 311.577 235.978C309.46 235.971 306.654 235.677 305.342 235.326C303.294 234.778 303.862 234.337 309.342 232.22C312.854 230.862 318.203 229.462 321.228 229.108C326.36 228.507 326.51 228.416 323.478 227.753C321.69 227.362 320.228 226.654 320.228 226.18C320.228 225.706 322.478 223.008 325.228 220.185C329.269 216.037 330.228 214.39 330.228 211.604C330.228 205.316 329.386 204.742 325.932 208.676C323.351 211.616 322.837 212.996 322.992 216.567C323.14 219.976 322.609 221.575 320.489 224.094C316.032 229.391 304.766 233.409 291.949 234.272L286.171 234.661L288.949 231.757C290.478 230.16 293.206 228.151 295.013 227.292C298.947 225.423 300.05 223.573 300.892 217.429L301.528 212.785L298.626 214.286C294.016 216.67 291.848 219.759 291.267 224.768C290.816 228.656 290.17 229.795 287.33 231.706C282.698 234.822 277.731 234.663 259.651 230.82C247.567 228.251 242.425 227.648 232.622 227.65L220.517 227.654L226.926 221.658C230.451 218.36 236.425 211.552 240.201 206.528C244.219 201.182 248.521 196.611 250.573 195.505C253.983 193.669 254.229 193.667 259.429 195.435L264.779 197.253L270.253 194.462L275.728 191.67L271.728 189.857C266.212 187.357 261.958 187.513 258.555 190.34C257 191.631 254.454 192.999 252.897 193.379L250.066 194.071L252.897 190.352C257.251 184.633 270.124 174.004 276.008 171.271C278.913 169.921 283.413 168.424 286.008 167.944C290.2 167.168 290.004 167.131 284.26 167.606L277.792 168.141L284.593 162.566C288.333 159.5 291.919 156.985 292.561 156.977C293.446 156.965 293.445 156.781 292.556 156.216C290.785 155.089 304.276 140.992 307.126 140.992C310.704 140.992 313.075 139.212 315.294 134.862C316.435 132.627 317.183 130.614 316.957 130.388C316.732 130.163 315.132 130.261 313.402 130.607C309.873 131.313 305.241 135.42 305.203 137.878C305.175 139.668 297.336 148.434 296.506 147.603C296.218 147.315 297.387 144.957 299.105 142.364C302.18 137.722 302.695 134.882 301.343 130.035L300.658 127.579L298.429 130.71C296.726 133.101 296.141 135.476 295.955 140.756C295.729 147.137 295.391 148.094 291.584 153.137C288.019 157.858 273.929 169.66 264.849 175.53L261.97 177.391L263.519 174.397C264.37 172.75 265.787 168.625 266.666 165.23C267.546 161.834 268.524 158.254 268.84 157.274C269.23 156.065 268.749 156.295 267.343 157.992C266.204 159.367 265.262 161.713 265.25 163.204C265.2 169.326 261.046 177.357 254.238 184.492C250.565 188.342 244.161 195.767 240.008 200.992C235.854 206.217 229.817 213.044 226.592 216.163C220.995 221.575 206.806 231.992 205.03 231.992C204.566 231.992 205.106 230.192 206.228 227.992C207.35 225.792 208.692 223.992 209.209 223.992C209.727 223.992 211.068 223.007 212.189 221.803C213.818 220.054 214.223 218.297 214.203 213.053L214.178 206.492L210.203 210.703C206.496 214.63 206.228 215.312 206.228 220.803C206.228 228.922 203.052 233.147 192.138 239.545C177.567 248.087 160.854 261.389 143.978 277.874L136.228 285.445L136.215 274.469C136.202 263.42 135.385 258.38 129.659 233.992C126.19 219.217 125.949 206.897 128.978 199.212C131.938 191.702 137.791 184.469 144.592 179.917C149.49 176.639 151.291 175.992 155.521 175.992C160.032 175.992 160.936 176.375 163.792 179.492C166.579 182.535 167.608 182.992 171.669 182.992H176.341L174.535 179.903C172.071 175.691 170.694 175.133 162.877 175.178C159.161 175.2 155.929 175.027 155.697 174.794C155.464 174.561 160.208 171.127 166.239 167.164C174.152 161.964 178.441 159.788 181.641 159.349C185.843 158.773 186.278 158.953 189.902 162.764C193.072 166.098 194.542 166.87 198.478 167.267C201.091 167.531 203.228 167.568 203.228 167.349C203.228 167.131 202.123 165.201 200.772 163.061C197.992 158.658 196.269 158.108 185.978 158.34C182.266 158.424 179.228 158.185 179.228 157.809C179.228 156.871 187.054 150.617 190.728 148.618L193.728 146.986L190.728 147.623C189.078 147.974 186.864 148.988 185.808 149.876C184.006 151.394 183.935 151.37 184.644 149.492C185.059 148.392 185.661 145.917 185.982 143.992C186.304 142.067 187.389 139.142 188.394 137.492C190.77 133.59 190.702 130.965 188.067 124.838L185.905 119.814L184.067 124.653C181.883 130.406 181.794 133.61 183.728 136.992C188.282 144.958 181.675 156.131 167.382 164.634L163.036 167.22L164.252 164.856C165.091 163.225 164.405 163.629 162.037 166.161C160.04 168.298 155 171.544 149.976 173.931C140.612 178.38 131.838 185.588 128.704 191.406C127.642 193.378 126.468 194.992 126.095 194.992C125.308 194.992 125.866 185.905 127.348 174.587C130.526 150.315 142.375 126.918 160.981 108.177C175.147 93.907 184.548 88.483 197.728 86.973L204.728 86.172L197.509 86.332C192.065 86.453 190.59 86.212 191.509 85.352C192.837 84.11 205.463 75.474 206.864 74.849C207.339 74.638 209.303 72.705 211.228 70.555L214.728 66.646L209.473 70.98C204.066 75.439 202.189 75.801 204.228 71.992C204.867 70.798 205.189 69.62 204.944 69.374C204.698 69.129 203.957 70.233 203.296 71.829C201.442 76.304 196.776 80.161 183.814 87.936C177.262 91.867 169.657 96.869 166.914 99.053C164.171 101.237 161.765 102.862 161.567 102.664C161.369 102.466 161.818 100.546 162.565 98.398C164.634 92.449 165.502 88.177 164.274 89.992C163.468 91.183 163.255 90.928 163.243 88.757C163.235 87.253 161.646 81.294 159.713 75.515C156.124 64.788 154.873 54.267 156.56 48.992C157.071 47.394 157.026 46.971 156.437 47.819C155.416 49.289 154.27 44.204 154.224 37.992C154.209 36.067 153.761 33.817 153.228 32.992C152.406 31.72 152.256 31.767 152.243 33.301ZM229.228 46.521C221.719 51.58 220.264 53.149 219.228 57.299C218.653 59.605 217.732 62.29 217.182 63.265C216.341 64.756 216.464 64.9 217.955 64.172C218.93 63.697 221.849 62.283 224.441 61.03C229.275 58.695 229.731 57.969 233.102 47.242C234.297 43.44 233.908 43.368 229.228 46.521ZM206.929 51.868C204.242 55.929 203.523 60.761 204.864 65.763C205.359 67.611 205.742 67.811 206.916 66.836C210.653 63.735 212.424 54.889 210.359 49.639C209.731 48.045 209.253 48.356 206.929 51.868ZM85.74 53.753C86.135 54.709 86.786 56.853 87.187 58.516C88.669 64.667 91.868 68.286 98.447 71.253L102.166 72.93L101.604 69.711C99.966 60.32 97.94 57.627 89.875 54.122C85.509 52.225 85.094 52.188 85.74 53.753ZM111.386 64.858C109.723 70.41 109.956 74.034 112.217 77.742C113.307 79.529 114.419 80.992 114.688 80.992C115.704 80.992 118.228 74.987 118.228 72.568C118.228 69.96 114.323 60.992 113.187 60.992C112.834 60.992 112.023 62.732 111.386 64.858ZM169.1 70.663C164.878 75.208 163.998 77.684 164.725 82.967L165.385 87.768L168.792 84.361C172.851 80.303 173.785 77.234 172.605 71.84L171.728 67.834L169.1 70.663ZM220.728 69.614C219.078 70.499 216.603 71.582 215.228 72.021L212.728 72.82L215.228 72.938C216.603 73.003 218.602 73.716 219.669 74.524C222.293 76.508 227.089 76.372 231.583 74.186L235.296 72.38L230.902 70.186C225.664 67.57 224.644 67.513 220.728 69.614ZM129.599 78.166C125.219 82.97 124.226 87.226 126.247 92.541L127.265 95.22L130.247 91.469C133.264 87.672 133.911 83.628 132.374 78.166L131.72 75.84L129.599 78.166ZM84.978 83.295C82.916 83.872 81.24 84.603 81.255 84.918C81.313 86.119 90.329 89.99 92.967 89.947C94.485 89.922 97.034 89.344 98.629 88.663L101.531 87.425L98.303 84.708C94.827 81.784 91.598 81.441 84.978 83.295ZM207.578 86.168L205.429 87.208L207.578 89.695C211.237 93.929 214.749 95.196 220.749 94.446L226.127 93.774L223.927 90.786C220.028 85.487 213.054 83.518 207.578 86.168ZM95.619 95.222C91.961 98.434 91.954 98.456 94.334 99.122C98.753 100.36 100.805 100.007 104.997 97.289L109.166 94.585L106.082 93.289C101.457 91.344 99.657 91.676 95.619 95.222ZM269.923 124.748C266.097 130.946 265.632 134.143 267.749 139.687L269.528 144.345L271.844 141.652C275.474 137.432 276.42 132.406 274.765 126.131C273.989 123.191 273.213 120.654 273.041 120.494C272.869 120.334 271.466 122.248 269.923 124.748ZM206.299 124.049C200.984 126.039 197.551 129.756 196.665 134.478C196.306 136.39 194.206 140.101 191.999 142.724L187.985 147.492L192.356 142.996C195.012 140.265 198.494 137.909 201.228 136.996C205.184 135.674 206.073 134.803 208.578 129.793C210.146 126.658 211.271 123.71 211.078 123.241C210.886 122.773 208.735 123.136 206.299 124.049ZM64.934 133.52C61.688 140.137 61.542 143.727 64.299 149.13L66.369 153.189L68.746 149.967C72.196 145.291 72.652 141.774 70.656 135.217C69.698 132.068 68.627 129.157 68.277 128.748C67.926 128.338 66.422 130.486 64.934 133.52ZM22.317 140.547C23.243 147.377 24.842 149.915 30.713 153.877C34.244 156.26 35.048 156.525 34.255 155.042C33.69 153.987 33.228 151.722 33.228 150.008C33.228 145.669 31.121 142.043 26.39 138.242C24.165 136.455 22.169 134.992 21.954 134.992C21.739 134.992 21.902 137.492 22.317 140.547ZM165.342 141.467C162.762 147.299 162.763 147.274 165.192 154.03C166.272 157.034 167.172 158.535 167.192 157.364C167.212 156.194 167.891 154.687 168.702 154.014C171.323 151.839 171.648 146.373 169.458 141.314L167.456 136.689L165.342 141.467ZM254.853 144.242C255.734 150.012 256.591 151.419 260.702 153.844L264.228 155.925L264.193 152.208C264.148 147.585 262.454 144.439 258.661 141.938C254.52 139.209 254.122 139.45 254.853 144.242ZM201.823 143.492C199.797 144.867 197.147 146.038 195.934 146.094C194.376 146.167 194.682 146.423 196.972 146.967C198.756 147.39 200.781 148.189 201.472 148.742C204.507 151.171 207.287 151.078 213.381 148.343L219.564 145.568L214.646 143.293C208.366 140.388 206.351 140.419 201.823 143.492ZM279.228 142.573C275.168 144.315 272.282 147.612 272.25 150.542C272.238 151.67 271.666 153.244 270.978 154.042C269.929 155.259 269.961 155.291 271.178 154.242C271.976 153.555 273.579 152.992 274.741 152.992C277.381 152.992 281.608 148.535 283.04 144.242C284.265 140.57 284.081 140.489 279.228 142.573ZM51.692 151.538C52.445 154.039 53.66 156.809 54.394 157.693C55.51 159.039 61.141 161.992 62.591 161.992C63.082 161.992 61.811 156.346 60.726 153.715C60.081 152.152 52.57 146.992 50.938 146.992C50.6 146.992 50.939 149.038 51.692 151.538ZM77.009 153.044C72.679 155.331 71.217 157.649 70.727 163.008L70.372 166.881L74.55 164.554C77.913 162.682 79.054 161.278 80.398 157.36C82.952 149.914 82.947 149.908 77.009 153.044ZM301.911 153.599C298.65 155.367 299.362 156.976 304.313 159.027C306.75 160.037 308.141 160.023 311.53 158.958C317.708 157.015 317.728 156.971 313.563 154.412C309.121 151.681 305.868 151.454 301.911 153.599ZM295.041 155.675C295.762 155.964 296.625 155.928 296.957 155.596C297.289 155.264 296.699 155.028 295.645 155.071C294.48 155.119 294.243 155.356 295.041 155.675ZM5.364 160.864L0 163.641L6.24 165.916C13.23 168.465 16.693 168.221 21.431 164.847L24.466 162.686L20.597 160.344C15.597 157.317 11.975 157.441 5.364 160.864ZM38.728 161.911L42.728 166.133L39.728 165.581C36.768 165.037 36.771 165.045 39.978 166.156C41.766 166.775 43.234 167.779 43.241 168.387C43.249 168.995 45.611 170.237 48.491 171.148L53.728 172.803L50.943 170.648C49.411 169.462 45.136 166.061 41.443 163.091C35.075 157.969 34.935 157.908 38.728 161.911ZM31.041 163.675C31.762 163.964 32.625 163.928 32.957 163.596C33.289 163.264 32.699 163.028 31.645 163.071C30.48 163.119 30.243 163.356 31.041 163.675ZM293.37 166.37L291.013 167.678L293.755 169.835C296.532 172.019 300.622 172.428 306.645 171.124L309.562 170.492L305.591 167.742C301.295 164.766 297.11 164.297 293.37 166.37ZM30.614 169.898C27.801 170.241 24.73 171.16 23.791 171.94C22.341 173.143 18.228 180.073 18.228 181.313C18.228 181.794 25.823 180.089 28.937 178.909C30.152 178.449 32.056 176.289 33.168 174.109C34.28 171.929 35.986 169.939 36.959 169.685C39.389 169.052 36.847 169.137 30.614 169.898ZM47.851 207.998C50.496 211.995 55.688 214.52 58.803 213.325C60.866 212.533 60.577 211.394 57.478 208.106C55.454 205.958 53.473 205.035 49.976 204.609L45.225 204.03L47.851 207.998ZM344.116 207.615C338.911 209.212 336.96 210.996 334.823 216.112L333.341 219.658L337.78 218.984C342.869 218.212 345.642 216.056 348.334 210.782C351.149 205.268 351.328 205.403 344.116 207.615ZM35.242 219.213C30.982 222.346 30.929 222.452 33.295 223.113C38.739 224.634 43.013 224.044 46.243 221.326L49.411 218.66L47.069 217.362C43.276 215.257 39.903 215.785 35.242 219.213ZM47.728 225.196C43.02 226.837 39.311 230.974 37.708 236.372C36.898 239.1 36.37 241.468 36.536 241.633C36.702 241.799 38.724 241.001 41.031 239.86C46.296 237.255 50.228 232.661 50.228 229.115C50.228 227.617 50.768 225.852 51.428 225.192C52.85 223.77 51.816 223.771 47.728 225.196ZM332.87 228.863C331.214 229.514 331.409 229.944 334.654 232.793C337.855 235.604 338.991 235.989 344.013 235.967L349.728 235.942L345.517 231.967C341.239 227.929 337.549 227.023 332.87 228.863ZM307.728 255.17C304.737 256.841 304.722 256.893 306.801 258.537C310.675 261.6 313.378 262.138 318.412 260.848C321.061 260.169 323.225 259.361 323.22 259.053C323.216 258.744 321.439 257.48 319.272 256.242C314.991 253.797 310.871 253.415 307.728 255.17ZM300.228 259.492C301.52 260.867 302.802 261.992 303.077 261.992C303.352 261.992 302.52 260.867 301.228 259.492C299.936 258.117 298.654 256.992 298.379 256.992C298.104 256.992 298.936 258.117 300.228 259.492ZM217.625 260.704C216.469 260.918 214.062 262.599 212.277 264.441L209.032 267.79L212.38 268.531C218.201 269.819 221.06 269.221 225.275 265.834C229.211 262.671 229.281 262.517 227.05 261.929C222.247 260.663 219.665 260.327 217.625 260.704ZM295.382 263.553C293.935 266.73 293.877 273.657 295.29 274.53C295.874 274.891 296.826 276.38 297.406 277.839L298.46 280.492L299.768 276.992C301.76 271.66 301.488 267.733 298.882 264.201L296.536 261.021L295.382 263.553ZM304.228 262.359C304.228 262.753 305.128 264.042 306.228 265.222C307.328 266.403 308.228 268.388 308.228 269.634C308.228 273.74 310.497 276.986 315.537 280.087L320.508 283.146L319.84 278.964C318.823 272.604 316.534 269.015 312.412 267.317C310.386 266.483 307.716 264.865 306.478 263.722C305.24 262.579 304.228 261.966 304.228 262.359ZM234.228 278.492C232.853 279.278 230.828 279.982 229.728 280.056L227.728 280.191L229.728 280.842C230.828 281.199 233.024 282.369 234.608 283.442C238.001 285.74 242.378 285.875 247.216 283.83L250.704 282.355L246.128 279.674C241.023 276.682 237.932 276.375 234.228 278.492Z" fill="black"/>
</svg>
