<svg width="340" height="453" viewBox="0 0 340 453" fill="none" xmlns="http://www.w3.org/2000/svg">
<path fill-rule="evenodd" clip-rule="evenodd" d="M117.821 0.282404C117.514 0.805712 116.955 3.77446 116.579 6.87929C115.798 13.3371 117.238 17.8457 121.27 21.5619L123.783 23.8793L124.951 19.0114C126.26 13.5522 125.486 10.3713 121.601 5.24032C120.349 3.58735 119.113 1.58117 118.853 0.782699C118.593 -0.0157713 118.128 -0.240904 117.821 0.282404ZM137.807 9.56487C133.424 12.7247 131.016 17.1754 131.016 22.1133V25.6814L134.553 23.5931C136.499 22.4445 138.69 20.3212 139.424 18.8744C140.622 16.509 142.594 6.62614 141.829 6.81325C141.657 6.85528 139.847 8.093 137.807 9.56487ZM103.363 24.4156L100.215 24.8589L105.155 29.4816C109.832 33.8582 110.381 34.0973 115.463 33.9632C121.673 33.8001 124.833 35.7113 128.079 41.5977L130.099 45.2599L129.479 41.2575C129.138 39.0562 128.378 36.8049 127.79 36.2546C127.058 35.5692 126.944 35.6482 127.427 36.5047C127.815 37.1931 127.747 37.7555 127.276 37.7555C126.373 37.7555 122.056 33.494 117.331 27.9377C114.38 24.4686 110.3 23.439 103.363 24.4156ZM125.101 29.2505C125.205 31.1456 126.871 34.3375 126.929 32.7525C126.96 31.927 126.548 30.5762 126.015 29.7508C125.482 28.9253 125.07 28.7001 125.101 29.2505ZM140.909 33.3549C136.963 34.9948 135.182 37.5664 134.65 42.3932L134.305 45.5301L138.381 43.3938C141.597 41.7078 142.828 40.2559 144.22 36.5047C146.162 31.2687 146.092 31.2006 140.909 33.3549ZM206.529 41.3056C201.102 44.5084 198.245 48.0395 197.456 52.5182C196.784 56.3374 190.797 63.5657 184.592 68.0513C182.158 69.8103 181.774 69.8824 182.342 68.4726C184.24 63.7498 183.953 63.7238 181.191 68.3685C178.843 72.3178 175.384 75.5137 165.84 82.5549C159.063 87.5538 151.494 93.6874 149.019 96.1849C146.543 98.6833 144.258 100.742 143.941 100.76C143.623 100.778 144.044 98.006 144.875 94.5999C146.012 89.9432 146.093 88.3102 145.202 88.0131C144.551 87.7959 144.018 86.8304 144.018 85.8678C144.018 84.9042 142.191 80.6477 139.958 76.4072C135.001 66.9947 133.041 60.787 133.027 54.4563C133.02 51.2704 132.651 49.8696 131.937 50.3119C131.249 50.7371 131.093 52.8424 131.506 56.1243C132.394 63.1674 133.565 66.8206 138.245 77.1407C142.01 85.4426 142.237 86.4622 141.8 93.1501C141.29 100.957 139.277 105.813 133.042 114.278C131.007 117.042 127.242 122.897 124.678 127.287C122.112 131.679 120.006 134.831 119.997 134.291C119.925 130.239 116.586 119.026 113.607 112.828C111.629 108.716 110.005 104.439 109.997 103.322C109.985 101.816 109.762 101.64 109.129 102.639C108.498 103.635 107.051 102.469 103.547 98.136C100.946 94.9191 95.5945 88.9106 91.6548 84.7832C83.9045 76.6654 84.3416 77.4839 93.3881 88.0351C96.5737 91.7503 98.8941 94.7891 98.545 94.7891C98.196 94.7891 96.5407 94.0806 94.8664 93.2141C90.2746 90.8387 90.4746 92.0685 95.1334 94.8511C102.332 99.1516 105.671 102.618 109.287 109.538C114.384 119.296 116.013 125.774 116.013 136.288C116.013 142.966 115.361 147.669 113.577 153.867C106.556 178.248 105.672 198.606 110.449 225.866C111.172 229.994 111.585 233.568 111.367 233.809C111.149 234.049 109.067 232.446 106.74 230.246C104.414 228.045 99.2072 223.599 95.1705 220.366C79.5147 207.828 68.0608 191.748 66.4865 180.098C65.5803 173.399 64.1671 169.212 62.2888 167.662C60.8415 166.467 60.8005 166.565 61.8957 168.621C62.5658 169.879 63.766 174.314 64.5612 178.475C65.3573 182.636 66.2595 186.446 66.5655 186.942C67.8427 189.01 65.7914 187.563 61.4186 183.31C58.8542 180.817 55.8447 178.289 54.7315 177.693C53.6183 177.097 54.3794 178.281 56.4228 180.325C60.3034 184.208 68.8759 195.464 73.2237 202.386C74.6179 204.606 78.0245 208.903 80.794 211.934L85.8288 217.446L73.1667 217.04C66.2014 216.816 60.8485 216.992 61.2706 217.431C62.1457 218.341 56.8458 220.805 53.6373 220.979C51.923 221.072 51.85 221.186 53.2682 221.556C54.8625 221.972 54.8135 222.213 52.7681 224.028C50.6908 225.872 50.7678 225.864 53.6863 223.931C56.4027 222.132 64.1861 218.862 65.7524 218.862C66.0254 218.862 65.6613 219.572 64.9412 220.438C64.1041 221.449 65.0062 221.205 67.4547 219.76C70.9843 217.676 71.6994 217.594 76.8723 218.679C86.1499 220.626 92.8771 224.537 100.711 232.541C116.211 248.374 121.189 268.421 115.411 291.744C114.503 295.409 111.115 305.058 107.884 313.184C99.3632 334.611 97.9099 340.36 97.3228 354.942C96.7077 370.221 98.165 378.069 104.053 391.202C110.316 405.168 112.012 410.703 112.012 417.175C112.012 429.826 105.407 435.759 84.9127 441.516C75.178 444.252 60.2044 449.728 58.5701 451.152C58.058 451.599 59.1832 451.517 61.0706 450.97C62.9589 450.424 72.8306 448.383 83.0073 446.437C101.529 442.895 110.418 440.595 112.762 438.737C114.841 437.09 114.171 439.096 111.449 442.665C110.039 444.515 106.557 447.597 103.711 449.514C100.865 451.431 99.1071 453 99.8053 453C102.873 453 113.972 448.498 121.229 444.31C130.508 438.956 131.579 438.964 144.112 444.476C151.111 447.555 166.129 451.991 169.522 451.983C170.072 451.981 166.922 450.192 162.521 448.006C154.987 444.265 144.97 436.937 149.519 438.494C155.457 440.529 170.825 444.004 178.144 444.967C182.754 445.575 192.22 447.181 199.181 448.535C206.142 449.89 212.218 450.965 212.684 450.924C214.552 450.758 195.632 444.688 181.524 440.929C154.818 433.813 147.966 429.12 134.674 408.845C124.755 393.713 120.664 386.032 117.542 376.68C108.511 349.615 118.049 316.207 144.403 282.606C149.669 275.891 151.554 274.292 157.966 271.099C164.366 267.912 166.56 267.342 173.574 267.044C181.541 266.705 181.82 266.772 185.38 269.899C188.62 272.745 189.026 273.634 189.026 277.886C189.026 282.197 189.445 283.078 193.276 286.806L197.527 290.944L197.824 286.61C198.209 280.992 196.794 277.424 193.321 275.258C191.784 274.301 189.255 272.187 187.701 270.561L184.877 267.605L188.561 268.203C195.435 269.319 207.769 275.911 212.549 281.023C216.185 284.912 217.031 286.513 217.031 289.515C217.031 292.572 217.754 293.881 221.197 297.062C223.49 299.178 225.712 300.91 226.136 300.91C227.084 300.91 226.246 294.412 224.806 290.601C224.201 289.001 222.195 287.001 220.138 285.945C218.154 284.925 215.12 282.489 213.396 280.529L210.262 276.966L214.896 277.407L219.531 277.847L215.03 276.895C211.054 276.056 196.348 269.415 195.027 267.863C194.752 267.54 190.853 266.449 186.362 265.439C180.253 264.064 175.86 263.735 168.912 264.131L159.626 264.66L165.575 259.262C181.621 244.697 196.928 235.382 210.742 231.774C220.551 229.211 235.58 229.065 246.064 231.429C255.116 233.471 258.187 234.954 260.903 238.596C262.042 240.125 262.989 240.839 263.006 240.184C263.024 239.528 262.588 238.714 262.038 238.374C261.488 238.033 261.038 237.295 261.038 236.732C261.038 236.169 264.977 237.772 269.79 240.296C279.986 245.64 277.013 242.559 266.294 236.674C262.303 234.482 259.038 232.56 259.038 232.402C259.038 232.245 261.037 232.341 263.482 232.616C269.902 233.341 295.14 231.835 294.481 230.767C294.176 230.273 294.55 229.869 295.313 229.869C296.075 229.869 299.469 228.743 302.853 227.367C306.238 225.991 310.929 224.799 313.277 224.716C316.292 224.61 316.734 224.442 314.78 224.147C313.258 223.917 312.269 223.315 312.582 222.807C312.902 222.29 312.365 222.188 311.356 222.575C310.167 223.033 310.74 221.827 313.055 219.004C320.672 209.713 320.353 210.376 319.606 205.394L318.91 200.749L315.943 204.487C313.611 207.42 313.019 209.096 313.182 212.292C313.435 217.227 312.055 220.012 307.783 223.191C302.24 227.314 289.053 230.886 279.541 230.839L276.541 230.825L279.041 228.789C281.532 226.762 281.525 226.762 277.331 228.811C271.879 231.476 268.251 231.407 250.347 228.295C238.604 226.253 233.018 225.787 223.396 226.043L211.258 226.367L217.609 219.633C221.101 215.928 226.497 209.275 229.599 204.847C236.761 194.621 240.815 191.372 245.279 192.279C253.749 194.001 254.488 193.933 259.438 190.973L264.339 188.041L258.938 186.354C253.126 184.539 250.986 184.936 246.036 188.753C244.66 189.813 242.44 191 241.101 191.389C238.712 192.084 238.724 192.025 241.765 188.185C243.468 186.033 248.453 180.841 252.842 176.646C259.164 170.604 262.141 168.536 267.18 166.693C270.679 165.415 272.776 164.219 271.842 164.036C270.909 163.853 269.221 164.198 268.091 164.802C266.963 165.407 266.039 165.686 266.039 165.423C266.039 164.419 277.37 154.242 280.383 152.539C282.976 151.073 283.095 150.875 281.05 151.432C279.022 151.985 278.754 151.851 279.613 150.716C286.088 142.17 287.165 140.567 285.418 142.069C284.297 143.033 283.12 143.562 282.802 143.245C282.485 142.926 281.929 143.598 281.568 144.735C280.264 148.844 273.063 156.647 262.72 165.157C256.919 169.93 251.87 173.836 251.497 173.836C251.126 173.836 251.147 173.048 251.545 172.085C252.72 169.243 256.005 156.454 255.98 154.824C255.934 151.821 253.3 158.437 252.696 163.073C251.863 169.461 247.785 177.274 242.116 183.341C239.545 186.093 233.565 193.544 228.829 199.9C219.556 212.34 210.578 221.379 201.095 227.822C197.817 230.049 194.936 231.87 194.69 231.87C193.599 231.87 197.904 225.07 200.817 222.191C203.731 219.309 204.028 218.454 204.028 212.936C204.028 209.592 203.802 206.855 203.526 206.855C203.25 206.855 201.444 208.531 199.512 210.579C196.197 214.095 196.016 214.644 196.263 220.414C196.492 225.766 196.182 226.976 193.761 230.15C192.241 232.143 185.941 237.118 179.76 241.205C166.79 249.781 155.004 259.838 140.023 275.113C134.204 281.047 129.234 285.9 128.979 285.898C128.724 285.897 128.48 279.705 128.438 272.14C128.365 259.176 128.142 257.666 124.551 245.878C116.415 219.169 115.875 216.773 116.331 209.357C116.936 199.522 120.241 191.544 126.414 185.014C135.492 175.411 144.143 173.066 149.206 178.839C151.487 181.439 152.522 181.84 156.953 181.84H162.067L160.396 179.288C157.777 175.29 154.317 174.054 147.268 174.596C143.035 174.921 141.017 174.715 141.017 173.956C141.017 173.339 141.501 172.835 142.094 172.835C142.686 172.835 145.863 170.697 149.155 168.082C160.33 159.209 162.316 157.826 163.92 157.811C165.321 157.797 165.334 157.671 164.021 156.801C162.776 155.975 163.2 155.171 166.522 152.062C168.722 150.003 171.648 147.539 173.023 146.589C174.398 145.638 174.736 145.124 173.773 145.447C171.966 146.052 171.456 144.94 172.773 143.264C173.185 142.739 172.038 143.887 170.223 145.815C167.146 149.084 166.964 149.152 167.517 146.82C167.844 145.444 167.008 146.501 165.661 149.168C162.801 154.826 159.17 158.883 153.34 162.929C148.103 166.563 147.592 166.557 149.493 162.879C150.332 161.255 151.015 159.341 151.009 158.627C151.004 157.911 149.943 159.577 148.651 162.329C145.849 168.295 144.635 169.406 135.516 174.351C127.702 178.588 119.31 186.646 116.234 192.866C114.979 195.402 113.931 196.525 113.487 195.807C112.181 193.694 114.099 172.529 116.636 161.043C121.009 141.242 127.73 126.699 140.177 110.102C151.593 94.8791 164.348 84.555 175.304 81.6683C178.113 80.9289 177.95 80.8739 174.03 81.2381L169.537 81.6563L172.03 79.6942C180.946 72.679 186.344 68.7737 187.124 68.7737C187.62 68.7737 188.026 68.3405 188.026 67.8112C188.026 65.84 196.711 57.9994 201.042 56.0623C203.509 54.9586 206.271 53.2026 207.178 52.159C208.819 50.2708 212.261 38.671 211.125 38.8501C210.797 38.9021 208.729 40.0068 206.529 41.3056ZM184.575 48.2507C181.948 53.4437 181.85 54.0731 183.023 58.2616L184.274 62.7322L187.254 58.999C189.961 55.609 190.185 54.7695 189.688 49.8706C189.387 46.9029 188.744 44.0772 188.259 43.5919C187.749 43.0826 186.192 45.0528 184.575 48.2507ZM130.174 47.7614C130.174 49.1372 130.401 49.7005 130.678 49.0121C130.956 48.3247 130.956 47.199 130.678 46.5106C130.401 45.8232 130.174 46.3856 130.174 47.7614ZM67.2296 60.5189C69.509 67.3649 72.3695 70.5438 78.2645 72.7831L82.6263 74.4391L81.3351 69.4571C79.4757 62.2889 77.5374 59.8935 71.3933 57.1749C68.3978 55.8501 65.8054 54.7655 65.6313 54.7655C65.4573 54.7655 66.1764 57.355 67.2296 60.5189ZM91.0407 67.6211C89.9806 72.619 90.0246 73.9068 91.3388 76.4493C92.1849 78.0862 93.5822 80.0104 94.4433 80.7258C95.7946 81.8474 96.2256 81.5092 97.5829 78.2593C99.3392 74.0549 98.8781 70.8029 95.9436 66.6795C94.8794 65.1846 94.0093 63.4686 94.0093 62.8663C94.0093 62.2629 93.6202 61.7696 93.1461 61.7696C92.671 61.7696 91.7239 64.4032 91.0407 67.6211ZM199.277 63.4186C195.379 65.3407 195.263 66.0411 198.492 68.1584C201.614 70.2046 205.441 70.1075 210.529 67.8542L214.53 66.0822L210.319 63.9259C205.321 61.3664 203.598 61.2873 199.277 63.4186ZM147.81 68.9028C144.247 73.7186 143.97 75.0464 145.255 81.176C146.212 85.7407 146.577 86.3491 147.46 84.8472C148.043 83.8566 149.416 81.7734 150.512 80.2175C152.62 77.2247 153.004 70.3577 151.24 67.2038C150.43 65.754 149.971 65.9811 147.81 68.9028ZM191.839 66.4554C192.56 66.7445 193.423 66.7085 193.756 66.3763C194.088 66.0441 193.497 65.808 192.443 65.851C191.278 65.899 191.041 66.1362 191.839 66.4554ZM109.327 79.0368C106.124 83.7926 105.641 86.9645 107.458 91.313L109.05 95.1253L111.531 91.7613C112.897 89.9112 114.013 87.6469 114.013 86.7293C114.013 83.2933 112.717 75.7779 112.126 75.7849C111.788 75.7889 110.529 77.2517 109.327 79.0368ZM187.373 79.9994L184.221 81.0139L187.465 83.8636C192.103 87.938 195.145 88.8256 201.642 88.0021L207.3 87.2846L202.686 83.0321C197.734 78.4674 194.264 77.78 187.373 79.9994ZM66.8326 86.0789L62.1587 88.2852L67.0406 90.5366C72.8936 93.2351 73.3497 93.2572 78.5886 91.0899L82.6923 89.3919L79.9488 87.0825C76.0341 83.7866 72.2935 83.5004 66.8326 86.0789ZM77.4564 97.1414C75.5591 98.9855 74.0058 100.729 74.0058 101.014C74.0058 101.3 76.2842 101.424 79.0697 101.29C83.0794 101.097 84.7526 100.452 87.1091 98.1941C89.7695 95.6446 89.8955 95.2673 88.2963 94.636C84.2196 93.025 80.905 93.7915 77.4564 97.1414ZM166.245 121.216C163.999 126.146 163.805 130.368 165.64 134.4C166.619 136.554 167.727 139.44 168.103 140.816C168.708 143.032 168.799 143.074 168.904 141.188C168.969 140.018 169.741 137.337 170.621 135.233C172.468 130.81 172.031 126.515 169.274 121.979L167.343 118.802L166.245 121.216ZM187.525 120.742C182.188 123.141 180.158 125.613 178.566 131.653C177.35 136.264 177.377 136.625 178.88 135.839C179.784 135.366 181.983 134.438 183.766 133.778C187.322 132.459 190.276 128.358 191.848 122.555C193 118.304 192.975 118.293 187.525 120.742ZM255.072 123.732C252.269 129.719 252.117 134.133 254.551 138.843L256.272 142.172L258.65 138.243C261.497 133.537 261.708 127.916 259.243 122.426L257.5 118.546L255.072 123.732ZM297.459 125.733C294.198 127.194 293.024 128.499 291.354 132.518L289.287 137.495L292.623 136.348C294.458 135.716 296.861 134.383 297.965 133.385C299.857 131.671 302.679 125.107 301.87 124.298C301.665 124.093 299.68 124.739 297.459 125.733ZM283.619 128.288C282.397 130.865 282.142 133.088 282.64 136.84L283.312 141.91L285.646 138.111C288.01 134.264 288.508 131.147 287.413 127.058C286.57 123.91 285.536 124.245 283.619 128.288ZM64.9292 137.932C61.1026 143.899 60.5485 149.165 63.2129 154.253L64.7412 157.172L67.8737 152.846C71.3283 148.073 71.6634 145.151 69.636 137.454L68.3548 132.591L64.9292 137.932ZM148.627 140.213C146.566 145.145 146.648 148.468 148.936 152.765L150.769 156.209L152.394 153.065C154.507 148.979 154.395 144.179 152.085 139.84L150.234 136.363L148.627 140.213ZM241.649 142.91C243.234 149.022 244.196 150.334 248.094 151.693C250.986 152.702 251.036 152.66 251.036 149.203C251.036 143.69 248.327 140.303 242.426 138.436C240.355 137.781 240.341 137.862 241.649 142.91ZM266.539 138.982C262.707 141.102 260.137 144.09 259.474 147.196C259.107 148.915 258.304 150.997 257.69 151.823C256.981 152.773 257.328 152.681 258.634 151.572C259.768 150.609 261.369 149.821 262.192 149.821C264.145 149.821 267.623 146.066 268.973 142.502C270.814 137.641 270.302 136.901 266.539 138.982ZM21.1217 144.047C22.0698 150.049 24.1332 153.243 29.088 156.38L32.5776 158.59L31.9975 153.455C31.6785 150.631 30.9854 147.565 30.4573 146.642C29.6251 145.185 21.6467 138.815 20.6546 138.815C20.4565 138.815 20.6676 141.169 21.1217 144.047ZM183.278 141.066C181.507 142.305 180.051 143.572 180.041 143.883C180.016 144.709 186.826 147.82 188.663 147.82C190.311 147.82 200.025 142.683 200.027 141.81C200.029 140.976 192.27 138.815 189.278 138.815C187.748 138.815 185.048 139.828 183.278 141.066ZM290.293 148.469C286.457 150.361 286.281 151.176 289.266 153.266C292.199 155.322 295.91 155.235 300.918 152.991L305.01 151.159L300.668 148.989C295.516 146.415 294.554 146.367 290.293 148.469ZM49.3995 151.417C49.7306 152.281 50.0016 154.041 50.0016 155.33C50.0016 158.359 54.2304 163.364 57.859 164.63L60.6965 165.62L59.9754 161.973C58.8162 156.112 58.064 155.03 53.3062 152.369C49.9236 150.478 48.9485 150.241 49.3995 151.417ZM74.0058 157.079C69.8411 159.415 68.6899 161.107 67.9507 165.982C67.4087 169.554 67.4527 169.613 69.9491 168.664C73.8938 167.164 75.9191 164.868 77.0693 160.595C78.5006 155.275 78.0805 154.792 74.0058 157.079ZM172.773 156.514C170.488 157.112 170.566 157.744 173.356 161.231C175.324 163.692 176.575 164.211 181.518 164.621L187.357 165.105L185.136 161.985C181.234 156.502 178.109 155.12 172.773 156.514ZM34.968 162.658C36.2223 164.49 37.8675 166.227 38.6237 166.517C40.9151 167.397 40.1639 169.009 37.7495 168.394C35.7642 167.889 35.7942 167.967 37.9996 169.059C39.3748 169.739 40.9501 170.809 41.5002 171.437C42.6054 172.699 49.0945 175.076 49.7216 174.45C49.9386 174.232 48.6284 173.035 46.8091 171.79C44.9888 170.546 41.0671 167.232 38.0936 164.427C33.6518 160.238 33.0937 159.921 34.968 162.658ZM282.542 161.695L278.541 163.512L282.042 165.668C286.075 168.153 288.099 168.305 293.249 166.51L296.954 165.22L292.799 162.523C287.911 159.353 287.735 159.339 282.542 161.695ZM5.24391 163.598C2.35541 165.053 -0.00399561 166.489 5.08028e-06 166.788C0.0100068 167.524 10.2138 170.834 12.4722 170.834C14.5225 170.834 22.997 166.811 22.997 165.838C22.997 164.626 15.2176 160.828 12.8592 160.889C11.559 160.922 8.13241 162.141 5.24391 163.598ZM29.3841 172.741C23.4491 173.465 21.5857 174.762 18.8943 180.039L16.9389 183.875L21.2177 183.239C26.6106 182.44 29.5421 180.622 31.4774 176.877C32.3146 175.259 33.7858 173.476 34.749 172.915C35.7112 172.354 36.0492 171.944 35.4991 172.006C34.949 172.067 32.1976 172.397 29.3841 172.741ZM335.051 203.218C328.986 205.219 327.078 206.807 324.628 211.886C322.516 216.268 322.454 216.715 324.082 215.842C325.092 215.302 327.012 214.86 328.349 214.86C331.627 214.86 335.682 211.501 338.079 206.8C340.934 201.202 340.983 201.26 335.051 203.218ZM45.2418 211.31C48.3464 216.054 52.7051 217.97 55.8557 215.972C56.9638 215.27 56.9799 214.684 55.9427 212.736C54.0043 209.095 51.898 207.923 47.2422 207.888L42.9824 207.856L45.2418 211.31ZM286.811 212.42C283.167 214.808 282.531 216.083 281.788 222.485L281.426 225.608L284.484 224.327C286.166 223.623 288.287 221.993 289.195 220.704C290.949 218.219 292.593 209.816 291.305 209.916C290.886 209.948 288.864 211.076 286.811 212.42ZM36.4163 221.148C33.2277 223.009 28.643 226.848 29.095 227.28C29.5481 227.712 36.6043 228.222 39.1728 228.008C40.0939 227.93 42.2723 226.667 44.0156 225.2L47.1842 222.532L44.8418 221.234C41.9133 219.608 39.1068 219.58 36.4163 221.148ZM60.3144 225.361C57.0179 227.67 55.6586 232.878 57.0249 237.955L58.1601 242.171L61.0776 237.771C63.923 233.48 64.6372 229.324 63.1679 225.608C62.5368 224.013 62.2708 223.99 60.3144 225.361ZM323.241 224.726C322.266 225.345 322.855 226.367 325.552 228.737C328.756 231.551 329.799 231.896 334.612 231.739C337.604 231.641 340.029 231.292 340 230.965C339.972 230.637 338.122 228.905 335.891 227.117C331.798 223.837 326.284 222.794 323.241 224.726ZM44.5477 229.262C39.8559 231.764 37.4645 235.62 36.5383 242.185L35.8592 246.997L39.6289 244.609C44.8128 241.327 47.1682 237.848 48.0423 232.182C48.4514 229.533 48.7214 227.319 48.6434 227.261C48.5654 227.203 46.7221 228.104 44.5477 229.262ZM300.045 235.372C303.271 238.068 305.139 238.874 308.164 238.874H312.093L310.428 236.331C308.146 232.848 305.973 231.87 300.516 231.87H295.855L300.045 235.372ZM262.682 244.075C261.345 249.068 262.088 253.375 264.936 257.138L267.778 260.893L269.036 256.399C270.479 251.241 269.464 247.565 265.589 243.924L263.299 241.772L262.682 244.075ZM281.445 247.774C283.042 249.444 284.677 250.606 285.08 250.358C285.482 250.109 288.227 251.749 291.178 254.005C295.637 257.412 295.952 257.542 293.044 254.777C291.118 252.947 289.595 251.209 289.658 250.916C289.722 250.622 287.247 249.111 284.157 247.56L278.541 244.739L281.445 247.774ZM298.694 250.506C295.909 252.015 295.889 252.085 297.843 253.454C302.217 256.519 304.821 256.882 310.123 255.17L315.235 253.519L310.89 251.244C305.788 248.574 302.613 248.382 298.694 250.506ZM287.111 256.444C287.253 257.512 287.022 260.064 286.599 262.118C285.94 265.303 286.255 266.496 288.755 270.271L291.682 274.693L292.851 270.323C294.198 265.284 293.39 262.276 289.42 257.556C287.394 255.146 286.907 254.912 287.111 256.444ZM299.195 262.063C300.28 264.443 301.719 267.516 302.393 268.892C303.508 271.17 311.771 276.505 312.717 275.559C313.557 274.718 311.147 266.658 309.515 264.855C308.574 263.815 306.171 262.439 304.175 261.798C302.178 261.158 299.797 259.981 298.883 259.185C297.483 257.963 297.532 258.417 299.195 262.063ZM203.861 262.066L200.892 265.246L203.21 266.533C206.911 268.587 210.431 268.107 214.78 264.955C220.364 260.909 220.548 260.234 216.26 259.525C209.013 258.326 206.961 258.747 203.861 262.066ZM197.84 266.573C198.561 266.862 199.424 266.826 199.757 266.494C200.089 266.162 199.498 265.926 198.444 265.969C197.279 266.017 197.042 266.254 197.84 266.573ZM225.262 275.612C221.292 277.635 221.51 278.671 226.445 281.233C230.116 283.139 230.409 283.147 235.743 281.465L241.249 279.728L237.664 277.292C232.934 274.076 229.253 273.577 225.262 275.612Z" fill="black"/>
</svg>
