<svg width="407" height="451" viewBox="0 0 407 451" fill="none" xmlns="http://www.w3.org/2000/svg">
<path fill-rule="evenodd" clip-rule="evenodd" d="M191.653 0.0813274C191.294 0.440327 191 3.40233 191 6.66333C191 12.8643 192.723 17.1233 196.082 19.2203C197.722 20.2443 198.05 19.9293 198.994 16.4243C199.821 13.3523 199.741 11.7443 198.635 9.18833C196.751 4.83733 192.475 -0.740673 191.653 0.0813274ZM211.86 5.68933C207.014 9.96633 205.985 12.2613 206.079 18.5853C206.122 21.5093 206.388 23.3293 206.669 22.6303C206.951 21.9313 208.482 20.6863 210.073 19.8633C211.664 19.0403 213.59 17.1373 214.353 15.6343C215.787 12.8093 217.171 2.37233 216.103 2.43933C215.771 2.45933 213.862 3.92233 211.86 5.68933ZM176.029 21.0353C176.072 22.2993 181.415 27.9723 184.414 29.9373C186.348 31.2043 188.1 31.4633 191.388 30.9703C195.578 30.3423 195.925 30.4873 198.915 34.1063C202.761 38.7633 203.817 42.5013 204.999 55.6523C205.697 63.4193 206.922 68.7763 210.06 77.7753C213.633 88.0253 214.111 90.3583 213.552 94.8323C212.711 101.559 209.398 108.551 203.805 115.401C198.266 122.185 190 134.198 190 135.464C190 135.979 189.612 136.401 189.139 136.401C188.665 136.401 188.04 133.78 187.75 130.577C187.459 127.374 185.997 121.861 184.501 118.327C183.005 114.793 181.27 110.438 180.646 108.651C180.021 106.864 179.058 105.382 178.505 105.358C176.872 105.289 169.92 95.6693 167.836 90.5933C166.776 88.0133 166.112 86.9143 166.361 88.1513C166.609 89.3893 166.59 90.4013 166.319 90.4013C166.047 90.4013 163.779 88.2633 161.278 85.6513C156.148 80.2923 157.294 82.1443 164.371 90.6513C167.002 93.8133 168.906 96.4013 168.601 96.4013C168.297 96.4013 166.575 95.5033 164.774 94.4053C162.973 93.3073 161.05 92.4203 160.5 92.4353C159.95 92.4503 160.395 92.9803 161.488 93.6143C162.581 94.2483 163.931 95.1293 164.488 95.5713C165.045 96.0143 167.525 97.8563 170 99.6643C173.435 102.174 175.497 104.934 178.709 111.321C181.024 115.924 183.442 122.212 184.083 125.295C185.752 133.326 184.647 145.451 181.475 153.901C175.841 168.912 174.568 176.529 174.623 194.901C174.663 208.219 175.138 214.161 176.818 222.336C177.998 228.076 178.737 232.998 178.46 233.274C178.184 233.55 176.055 231.959 173.729 229.738C171.403 227.516 166.342 223.221 162.482 220.192C151.375 211.478 141.487 200.246 137.246 191.525C134.07 184.996 133.535 182.906 133.519 176.972C133.508 173.161 133.353 170.804 133.174 171.734C132.701 174.192 131 172.712 131 169.842C131 168.499 130.502 167.401 129.893 167.401C129.249 167.401 129.067 168.133 129.458 169.151C130.268 171.258 133.02 186.714 132.652 187.083C132.509 187.225 130.193 185.075 127.505 182.305C124.817 179.534 121.692 176.782 120.559 176.19C119.427 175.598 121.005 177.766 124.067 181.007C127.13 184.249 132.485 191.176 135.968 196.401C139.451 201.626 144.751 208.718 147.745 212.162C152.619 217.768 152.891 218.308 150.344 217.321C148.78 216.715 142.388 216.124 136.14 216.008C129.892 215.892 125.584 216.08 126.567 216.424C128.263 217.019 128.264 217.086 126.595 217.726C125.628 218.097 123.748 218.401 122.418 218.401C121.027 218.401 120 218.988 120 219.783C120 220.952 120.58 220.958 123.75 219.827C125.813 219.091 128.599 218.469 129.941 218.445C132.313 218.402 132.327 218.445 130.441 219.946C129.335 220.826 130.377 220.577 132.864 219.368C138.534 216.609 144.339 217.338 154.156 222.043C159.424 224.568 163.313 227.467 168.49 232.728C181.047 245.49 185.348 255.85 185.376 273.401C185.395 285.073 184.11 291.06 178.455 305.642C167.683 333.422 165.6 341.741 165.619 356.901C165.636 370.017 167.162 376.359 174.046 391.901C179.667 404.592 181.483 411.858 180.617 418.182C179.205 428.477 173.87 432.589 153.135 439.361C137.261 444.546 129.692 447.426 130.312 448.046C130.529 448.263 133.606 447.768 137.151 446.946C140.696 446.124 149.742 444.316 157.254 442.929C164.765 441.541 173.437 439.461 176.525 438.306C179.612 437.151 182.402 436.469 182.724 436.791C183.364 437.432 175.007 445.93 171 448.713L168.5 450.449L172 449.834C176.448 449.052 185.106 445.18 191.332 441.186C197.834 437.016 202.468 437.146 212.74 441.784C219.969 445.047 226.752 447.136 236 448.944C238.614 449.455 237.475 448.577 231.5 445.476C223.904 441.534 214.108 434.351 218.5 435.945C223.525 437.768 239.695 441.349 249.601 442.832C255.595 443.73 265.675 445.53 272 446.832C278.325 448.135 283.607 449.101 283.737 448.98C284.232 448.521 264.902 442.372 250.82 438.51C231.582 433.234 224.436 429.912 216.933 422.756C205.222 411.586 187.82 382.375 184.55 368.401C178.174 341.147 190.704 304.319 214.757 279.617C222.277 271.894 228.945 268.629 239.151 267.671C246.973 266.937 251.208 267.942 254.601 271.336C257.034 273.77 257.502 275.053 257.512 279.316C257.523 283.949 257.896 284.768 261.762 288.634L266 292.872V286.591C266 281.256 265.63 279.941 263.545 277.856C262.195 276.506 260.674 275.401 260.164 275.401C259.654 275.401 258.065 273.864 256.632 271.985L254.027 268.57L257.763 269.579C264.848 271.493 273.911 276.467 279.319 281.41C284.291 285.954 284.784 286.799 285.242 291.57C285.62 295.502 286.324 297.225 288.121 298.62C289.43 299.635 291.512 301.399 292.75 302.539L295 304.611V300.456C295 295.082 292.902 291.13 288.744 288.678C286.914 287.598 283.967 284.884 282.195 282.648C279.17 278.828 279.112 278.609 281.238 279.037C282.482 279.287 281.475 278.657 279 277.637C274.369 275.728 264.888 270.494 264 269.357C263.725 269.005 259.46 267.695 254.523 266.445C247.523 264.675 243.682 264.272 237.089 264.618L228.633 265.062L234.067 260.053C248.636 246.622 267.447 235.62 280.5 232.896C297.351 229.38 319.483 232.853 327.314 240.242C329.536 242.339 329.973 242.494 329.391 240.977C328.775 239.371 329.625 239.609 334.577 242.426C342.554 246.964 347.681 250.726 350.128 253.837C351.246 255.257 352.615 256.139 353.17 255.796C353.726 255.452 355.94 256.889 358.09 258.989C360.241 261.089 362 262.443 362 261.998C362 261.553 360.851 260.285 359.447 259.181C358.043 258.077 357.141 256.927 357.441 256.627C357.742 256.326 355.628 254.652 352.744 252.907C349.86 251.161 344.575 247.512 341 244.798C337.425 242.084 332.776 239.046 330.669 238.047C328.562 237.048 326.987 236.094 327.169 235.927C327.351 235.761 331.325 235.968 336 236.387C340.675 236.807 347.593 236.762 351.373 236.287C359.937 235.213 362.523 235.826 367.253 240.049C370.409 242.868 371.76 243.397 375.753 243.374L380.5 243.347L376.765 239.874C373.815 237.132 372.202 236.401 369.096 236.401C361.843 236.401 361.439 235.331 367.692 232.68C370.886 231.326 375.75 229.769 378.5 229.221C383.675 228.19 386.621 226.743 381.75 227.626C380.238 227.9 379 227.917 379 227.665C379 226.431 389.717 217.776 392.328 216.901C396.197 215.605 398.781 211.963 399.6 206.65L400.256 202.399L395.602 205C390.833 207.665 388 211.587 388 215.523C388 218.207 379.422 226.777 377.481 226.032C376.747 225.75 375.581 226.201 374.89 227.034C371.772 230.79 361.842 233.932 350.713 234.682L344.927 235.072L348.16 231.736C349.938 229.902 351.939 228.401 352.607 228.401C353.275 228.401 354.987 227.016 356.411 225.324C358.353 223.016 359 221.128 359 217.768V213.288L355.882 215.094C351.701 217.516 349.986 220.327 349.174 226.088C348.58 230.304 348.062 231.118 344.998 232.649C340.109 235.093 336.145 234.865 319.262 231.17C307.015 228.489 302.37 227.939 292 227.937L279.5 227.935L286.551 220.918C290.429 217.059 296.238 210.132 299.459 205.525C304.071 198.929 306.233 196.743 309.636 195.238C313.691 193.444 314.15 193.427 317.116 194.961C320.914 196.925 324.704 196.354 329.499 193.095L332.952 190.749L329.442 189.075C327.512 188.154 324.8 187.401 323.416 187.401C320.587 187.401 315.359 189.825 314.84 191.378C314.407 192.676 308 194.56 308 193.39C308 192.911 312.613 187.855 318.25 182.155C328.605 171.686 333.264 168.582 342.813 165.792C347.427 164.444 347.438 164.431 343.5 164.98C341.3 165.287 338.452 165.789 337.172 166.097C335.404 166.522 336.273 165.242 340.779 160.779C344.044 157.546 347.567 154.322 348.608 153.614C349.648 152.906 349.938 152.595 349.25 152.923C347.357 153.826 347.742 152.246 350.357 148.383C352.014 145.936 352.481 144.307 351.928 142.901C351.166 140.967 351.138 140.972 351.07 143.05C350.957 146.507 344.026 155.876 336.961 162.121C324.045 173.539 319.57 176.988 320.382 174.901C321.514 171.99 324.967 158.151 324.985 156.451C325.024 152.778 322.858 157.592 321.959 163.178C320.531 172.041 317.763 177.699 311.167 185.238C307.96 188.903 301.914 196.401 297.731 201.901C293.548 207.401 287.734 214.223 284.813 217.061C279.195 222.517 264.023 233.757 263.279 233.013C262.55 232.285 266.141 227.067 269.219 224.384C272.463 221.555 273.808 216.82 273.025 210.992L272.5 207.084L268.635 211.372C264.983 215.425 264.798 215.942 265.271 220.781C266.079 229.044 262.763 233.229 248.5 241.953C237.535 248.66 218.577 264.087 206.237 276.344L195.973 286.538L196.595 279.72C197.393 270.966 195.326 259.034 189.957 241.401C182.46 216.782 181.993 208.649 187.397 196.844C192.057 186.666 203.791 177.547 212.566 177.283C216.27 177.171 216.325 177.127 213.5 176.521L210.5 175.878L214.5 173.437C216.7 172.094 221.65 168.682 225.5 165.854C229.35 163.026 234.075 160.2 236 159.575C238.955 158.616 239.033 158.525 236.5 158.99L233.5 159.542L237.5 155.388C239.7 153.104 243.075 150.358 245 149.286C247.015 148.164 247.545 147.592 246.25 147.937C244.031 148.527 243.095 147.078 244.953 145.93C245.478 145.606 246.856 143.892 248.016 142.121C249.717 139.523 249.484 139.658 246.812 142.817C244.99 144.971 242.479 147.896 241.232 149.317L238.964 151.901L239.513 148.901C239.927 146.64 239.595 147.001 238.164 150.37C236.231 154.918 231.026 160.203 223.08 165.683C219.463 168.177 218.792 168.383 219.388 166.816C219.856 165.588 218.75 166.21 216.309 168.549C214.214 170.556 209.575 173.643 206 175.409C196.549 180.079 189.556 185.816 185.003 192.634L181 198.629V188.125C181 163.88 188.863 141.363 204.651 120.401C222.666 96.4813 236.922 85.7543 252.188 84.6323C258.645 84.1583 258.972 84.2473 261.688 87.2073C265.49 91.3533 268.489 92.3003 275.406 91.5423L281.254 90.9013L276.17 86.1513C270.921 81.2473 268.789 80.6083 263.399 82.3233C261.805 82.8313 256.561 83.4563 251.747 83.7133L242.994 84.1803L249.454 79.2903C253.007 76.6003 257.571 73.2753 259.596 71.9003C261.622 70.5263 262.74 69.4013 262.081 69.4013C261.408 69.4013 261.195 68.8533 261.596 68.1513C261.988 67.4643 260.82 68.2513 259 69.9013C256.839 71.8613 255.918 72.2943 256.346 71.1513C258.102 66.4523 258.046 66.1653 256.001 69.4013C252.351 75.1793 250.018 77.2603 238 85.4563C231.675 89.7703 223.804 95.5383 220.508 98.2753C217.213 101.012 214.42 103.155 214.303 103.037C214.185 102.919 214.693 101.04 215.431 98.8623C217.303 93.3373 218.362 87.5523 217.191 89.2503C216.513 90.2323 216.071 89.5953 215.567 86.9053C215.185 84.8733 213.351 79.7463 211.489 75.5123C207.85 67.2363 205.524 55.8433 206.535 51.2423C206.902 49.5713 206.739 48.4013 206.14 48.4013C205.58 48.4013 204.81 45.2413 204.429 41.3793C204.049 37.5173 203.346 34.1153 202.869 33.8203C202.391 33.5253 202 33.8513 202 34.5453C202 35.2393 200.2 34.0493 198 31.9013C195.8 29.7533 194 27.4903 194 26.8723C194 26.2553 192.86 24.6793 191.468 23.3713C189.479 21.5023 187.547 20.9033 182.468 20.5803C178.91 20.3533 176.013 20.5583 176.029 21.0353ZM216.316 30.3443C212.023 32.2943 209 36.4563 209 40.4193C209 42.1403 209.421 42.4143 211.25 41.8863C215.433 40.6783 218.196 37.9213 220.005 33.1513C220.996 30.5393 221.513 28.4113 221.153 28.4233C220.794 28.4353 218.617 29.3003 216.316 30.3443ZM281.138 41.6723C275.37 44.9513 272.387 48.8353 271.361 54.4013C271.006 56.3263 268.937 60.1513 266.764 62.9013L262.813 67.9013L267.156 63.2793C269.545 60.7373 273.113 58.1393 275.085 57.5063C280.465 55.7793 283.909 51.5683 285.484 44.7933C286.235 41.5613 286.771 38.8523 286.675 38.7713C286.579 38.6903 284.087 39.9963 281.138 41.6723ZM259.735 46.5903C257.002 51.2533 256.424 55.2703 257.622 61.2603L258.244 64.3693L261.122 60.7483C264.144 56.9453 264.578 53.8103 263.177 45.9123L262.47 41.9243L259.735 46.5903ZM135.524 57.2173C135.902 58.1433 136.871 60.7853 137.678 63.0873C139.566 68.4783 142.969 71.8253 148.368 73.6023L152.683 75.0233L151.87 72.4623C151.423 71.0533 150.817 68.6903 150.524 67.2103C149.787 63.4853 145.407 59.5073 139.668 57.3493C135.225 55.6783 134.892 55.6683 135.524 57.2173ZM161.522 67.6773C160.069 72.6773 160.058 73.6043 161.416 76.8553C162.247 78.8443 163.546 81.0903 164.302 81.8453C165.467 83.0113 165.928 82.7933 167.338 80.4063C169.427 76.8703 169.465 72.5103 167.433 69.6093C166.572 68.3793 165.253 66.1893 164.503 64.7443L163.139 62.1153L161.522 67.6773ZM272.552 65.7493L268.605 68.1903L272.052 70.2923C276.38 72.9303 278.545 72.9323 284.481 70.3063L289.217 68.2113L285.935 66.2153C280.785 63.0833 277.073 62.9543 272.552 65.7493ZM220.75 70.2513C216.878 74.5423 216.241 77.3573 217.603 84.1653L218.206 87.1793L221.454 83.5403C225.261 79.2763 226.044 76.5163 225.152 70.4993L224.5 66.0963L220.75 70.2513ZM180.134 79.6123C177.187 83.2063 176.087 87.9103 177.203 92.1513C178.238 96.0903 179.213 96.2173 181.927 92.7663C184.026 90.0983 184.606 83.4863 183.15 78.8143C182.526 76.8093 182.406 76.8413 180.134 79.6123ZM136.755 86.2513C134.145 87.1593 132.017 88.1263 132.025 88.4013C132.052 89.2573 141.821 93.4033 143.709 93.3593C144.694 93.3363 146.984 92.5263 148.799 91.5583C151.924 89.8923 152.003 89.7173 150.299 88.2293C147.856 86.0953 144.412 84.3803 142.816 84.5013C142.092 84.5563 139.365 85.3443 136.755 86.2513ZM148.482 96.1733C147.372 97.1243 145.703 98.8163 144.772 99.9353C143.112 101.932 143.173 101.974 148.007 102.184C152.219 102.367 153.429 101.963 156.349 99.4003C158.227 97.7503 160.38 96.3493 161.132 96.2863C162.875 96.1393 155.169 94.5283 152.5 94.4813C151.4 94.4613 149.592 95.2233 148.482 96.1733ZM178.195 101.901C178.215 103.551 178.439 104.105 178.693 103.132C178.947 102.159 178.93 100.809 178.656 100.132C178.382 99.4553 178.175 100.251 178.195 101.901ZM322.25 125.338C319.42 132.621 319.434 134.949 322.333 139.738L324.656 143.575L326.471 140.804C329.376 136.371 329.503 130.665 326.83 124.724L324.5 119.546L322.25 125.338ZM237.578 126.792C235.989 131.844 235.988 132.426 237.56 136.042C238.483 138.165 239.589 141.251 240.017 142.901C240.743 145.701 240.804 145.734 240.933 143.401C241.009 142.026 241.714 139.776 242.5 138.401C243.286 137.026 243.945 134.229 243.965 132.185C243.999 128.583 241.326 121.401 239.952 121.401C239.579 121.401 238.511 123.827 237.578 126.792ZM259.287 123.859C253.809 126.397 252.061 128.667 250.954 134.677C250.205 138.747 249.825 138.582 255.956 136.848C258.858 136.026 262.798 130.863 264.039 126.255C264.64 124.024 264.97 122.038 264.774 121.841C264.577 121.644 262.108 122.553 259.287 123.859ZM365.616 123.803C361.881 125.814 360.552 127.838 358.289 134.963L357.316 138.024L360.777 136.26C366.087 133.552 367.694 131.675 368.942 126.718C369.573 124.21 369.957 122.057 369.795 121.935C369.633 121.812 367.752 122.653 365.616 123.803ZM351.543 127.319C349.406 131.45 349.794 139.401 352.133 139.401C354.029 139.401 356.275 132.682 355.593 129.047C354.696 124.262 353.407 123.712 351.543 127.319ZM132.693 136.685C130.147 140.382 129 143.143 129 145.575C129 149.728 130.801 155.401 132.12 155.401C133.704 155.401 139.002 146.142 138.956 143.455C138.932 142.05 138.343 138.746 137.649 136.112L136.386 131.323L132.693 136.685ZM88.536 141.011C88.929 144.25 89.634 147.64 90.103 148.543C91.137 150.536 96.793 155.401 98.077 155.401C99.29 155.401 99.27 146.775 98.052 144.498C97.531 143.524 95.016 141.016 92.463 138.924L87.821 135.12L88.536 141.011ZM219.479 143.831C217.688 149.102 217.687 149.381 219.469 153.331C220.478 155.57 221.634 157.401 222.038 157.401C223.075 157.401 226.004 150.969 225.978 148.75C225.956 146.91 222.448 138.401 221.711 138.401C221.499 138.401 220.494 140.845 219.479 143.831ZM333.872 140.407C330.133 142.382 329.326 143.583 327.99 149.151C327.092 152.895 326.999 152.846 331.452 150.986C335.124 149.451 336.233 147.911 337.811 142.151C338.984 137.869 338.815 137.794 333.872 140.407ZM309.302 140.745C309.625 141.587 310.387 144.125 310.995 146.384C311.775 149.278 313.048 151.069 315.301 152.443C317.06 153.516 318.837 154.395 319.25 154.397C320.627 154.404 320.021 147.876 318.434 145.61C316.42 142.734 308.432 138.479 309.302 140.745ZM256.25 143.516C254.463 144.661 253 145.906 253 146.284C253 147.495 258.73 150.4 261.154 150.418C263.506 150.435 272.888 146.397 272.961 145.336C273.041 144.169 265.807 141.402 262.716 141.418C260.947 141.427 258.038 142.371 256.25 143.516ZM358.12 149.469L354.739 151.53L357.113 153.193C360.35 155.46 365.794 155.22 369.957 152.626L373.413 150.472L369.739 148.936C364.826 146.884 362.16 147.006 358.12 149.469ZM117.131 153.075C117.612 155.645 118.79 158.616 119.75 159.677C121.276 161.363 126.142 164.401 127.316 164.401C128.03 164.401 126.408 157.008 125.201 154.765C124.286 153.065 117.962 148.401 116.572 148.401C116.399 148.401 116.651 150.504 117.131 153.075ZM141.402 156.306C137.106 158.257 136.214 159.552 135.025 165.561C134.306 169.199 134.317 169.214 136.901 168.12C141.189 166.304 143.742 163.466 145.274 158.81C146.073 156.385 146.45 154.411 146.113 154.423C145.776 154.435 143.656 155.282 141.402 156.306ZM100 157.998C100 158.572 101.559 160.863 103.465 163.089C105.371 165.316 106.646 167.422 106.298 167.769C105.951 168.117 106.218 168.401 106.892 168.401C107.566 168.401 107.889 168.771 107.609 169.224C107.33 169.676 109.426 171.029 112.267 172.229L117.433 174.412L110.217 167.825C106.247 164.203 102.325 160.275 101.5 159.097C100.675 157.92 100 157.425 100 157.998ZM71.105 161.116L65.71 163.665L71.105 165.993C77.85 168.903 80.364 168.905 85.913 166.002L90.326 163.694L86.431 161.048C81.626 157.783 78.129 157.798 71.105 161.116ZM245.25 159.107C242.292 159.676 242.407 160.415 246.026 164.116C248.453 166.599 250.037 167.28 254.027 167.556C256.763 167.746 259.001 167.814 259.001 167.708C259 167.602 258.049 165.903 256.886 163.932C253.83 158.752 251.692 157.866 245.25 159.107ZM221.079 160.984C221.127 162.149 221.364 162.386 221.683 161.589C221.972 160.867 221.936 160.004 221.604 159.672C221.272 159.34 221.036 159.93 221.079 160.984ZM351.235 163.056L347.97 164.665L351.179 167.033C352.944 168.335 355.208 169.401 356.21 169.401C358.58 169.401 366 167.082 366 166.342C366 165.333 358.295 161.4 356.364 161.424C355.339 161.436 353.031 162.171 351.235 163.056ZM89.756 171.957C87.574 173.151 83 179.77 83 181.732C83 182.232 90.815 180.808 93.252 179.864C94.215 179.491 96.262 177.321 97.8 175.042L100.597 170.898L96.548 170.677C94.322 170.555 91.265 171.131 89.756 171.957ZM220.5 176.126C216.866 176.979 216.857 178.068 220.458 181.23C223.437 183.846 224.754 184.325 228.51 184.161C230.979 184.054 233 183.702 233 183.38C233 182.196 226.439 176.607 224.5 176.139C223.4 175.873 221.6 175.867 220.5 176.126ZM0.015 202.651C0.028 204.47 0.216 204.614 1 203.401C2.253 201.462 2.253 200.401 1 200.401C0.45 200.401 0.007 201.413 0.015 202.651ZM109 205.802C109 206.431 110.383 208.623 112.073 210.673C114.656 213.807 115.763 214.401 119.021 214.401C122.875 214.401 122.89 214.385 121.87 211.459C120.502 207.533 119.145 206.555 113.643 205.527C110.321 204.906 109 204.984 109 205.802ZM378.685 208.935C376.736 213.022 376.563 215.717 378.07 218.531C378.96 220.195 379.397 220.316 380.674 219.257C383.341 217.043 384.114 213.513 382.853 209.306C382.21 207.158 381.388 205.401 381.027 205.401C380.666 205.401 379.612 206.991 378.685 208.935ZM98.257 219.167C95.924 220.671 94.011 222.182 94.007 222.526C93.998 223.291 99.28 224.401 102.931 224.401C104.405 224.401 107.091 223.309 108.899 221.975L112.188 219.549L109.143 217.975C104.952 215.808 103.167 216.003 98.257 219.167ZM116.507 222.39C116.157 222.956 116.558 223.124 117.448 222.783C119.18 222.118 119.497 221.401 118.059 221.401C117.541 221.401 116.843 221.846 116.507 222.39ZM123.528 225.782C121.575 227.735 121.016 229.286 121.07 232.606C121.197 240.337 122.099 241.017 125.816 236.18C128.457 232.743 129.034 231.158 128.796 227.987C128.432 223.146 126.833 222.477 123.528 225.782ZM109.544 225.99C103.972 228.031 101.194 231.007 99.482 236.774C98.667 239.518 98 241.869 98 241.996C98 243.038 108.579 237.437 109.628 235.841C110.706 234.2 114.247 224.196 113.652 224.471C113.568 224.51 111.72 225.194 109.544 225.99ZM391.828 226.462C386.962 227.781 386.713 228.476 390.188 231.041C394.627 234.319 396.694 234.693 401.903 233.163L406.306 231.869L402.403 229.304C397.606 226.151 395.281 225.526 391.828 226.462ZM0 229.401C0 229.951 0.45 230.401 1 230.401C1.55 230.401 2 229.951 2 229.401C2 228.851 1.55 228.401 1 228.401C0.45 228.401 0 228.851 0 229.401ZM330.103 249.452C328.769 253.903 329.196 256.199 332.314 261.343L334.4 264.784L335.655 261.843C337.966 256.426 336.71 249.895 332.722 246.585C331.568 245.627 331.093 246.147 330.103 249.452ZM366.222 255.634C363.236 257.073 363.798 258.498 368.216 260.691C371.441 262.292 372.375 262.341 377.04 261.159L382.258 259.837L378.15 257.119C373.842 254.268 370.039 253.795 366.222 255.634ZM353.475 265.788C352.86 271.536 353.049 272.673 355.23 276.331L357.675 280.43L358.837 276.55C360.581 270.729 360.252 268.326 357.064 263.623L354.165 259.346L353.475 265.788ZM274.775 261.96C270.759 264.14 269.464 267.044 271.922 268.359C275.793 270.431 280.598 269.579 284.789 266.077L288.767 262.754L284.369 261.577C278.872 260.107 278.135 260.136 274.775 261.96ZM366.028 266.454C366.563 267.452 367.016 269.312 367.035 270.585C367.095 274.461 369.385 277.379 374.794 280.468L379.953 283.414L379.366 280.158C378.206 273.719 375.576 270.022 370.198 267.27C365.864 265.051 365.209 264.923 366.028 266.454ZM265.75 268.063C266.438 268.341 267.563 268.341 268.25 268.063C268.938 267.786 268.375 267.559 267 267.559C265.625 267.559 265.063 267.786 265.75 268.063ZM292.662 279.019L289.823 280.557L293.106 282.979C296.764 285.678 301.375 286.016 306.97 283.996L310.44 282.743L305.882 280.072C300.756 277.068 296.838 276.756 292.662 279.019ZM284.75 280.063C285.438 280.341 286.563 280.341 287.25 280.063C287.938 279.786 287.375 279.559 286 279.559C284.625 279.559 284.063 279.786 284.75 280.063Z" fill="black"/>
</svg>
