<svg width="340" height="450" viewBox="0 0 340 450" fill="none" xmlns="http://www.w3.org/2000/svg">
<path fill-rule="evenodd" clip-rule="evenodd" d="M125.723 0.0812463C125.364 0.439888 125.071 3.39894 125.071 6.65669C125.071 12.8515 126.791 17.1062 130.144 19.2011C131.781 20.2241 132.108 19.9094 133.051 16.4079C133.876 13.339 133.796 11.7326 132.692 9.17917C130.812 4.83251 126.543 -0.739935 125.723 0.0812463ZM145.894 5.68366C141.057 9.9564 140.03 12.2491 140.123 18.5668C140.166 21.4879 140.432 23.306 140.712 22.6077C140.994 21.9094 142.522 20.6657 144.11 19.8435C145.699 19.0213 147.621 17.1202 148.383 15.6187C149.814 12.7965 151.196 2.36997 150.13 2.4369C149.798 2.45688 147.893 3.91842 145.894 5.68366ZM110.126 21.0143C110.169 22.2771 115.503 27.9444 118.496 29.9075C120.427 31.1732 122.176 31.4319 125.458 30.9394C129.641 30.3121 129.987 30.4569 132.972 34.0723C136.811 38.7247 137.865 42.4589 139.045 55.5968C139.742 63.3561 140.965 68.7077 144.097 77.6978C147.664 87.9376 148.141 90.2682 147.583 94.7378C146.744 101.458 143.437 108.443 137.853 115.286C132.324 122.063 124.073 134.064 124.073 135.329C124.073 135.843 123.685 136.265 123.213 136.265C122.74 136.265 122.116 133.647 121.826 130.447C121.536 127.247 120.077 121.74 118.583 118.209C117.09 114.679 115.358 110.328 114.735 108.543C114.111 106.757 113.15 105.277 112.598 105.253C110.967 105.184 104.028 95.5739 101.947 90.503C100.889 87.9256 100.226 86.8277 100.475 88.0634C100.722 89.3002 100.703 90.3112 100.433 90.3112C100.161 90.3112 97.8974 88.1753 95.4008 85.5659C90.2797 80.2123 91.4237 82.0624 98.4884 90.5609C101.115 93.7198 103.015 96.3052 102.711 96.3052C102.407 96.3052 100.689 95.4081 98.8907 94.3112C97.0928 93.2143 95.1732 92.3282 94.6241 92.3432C94.0751 92.3582 94.5193 92.8876 95.6104 93.521C96.7015 94.1544 98.0491 95.0345 98.6052 95.476C99.1612 95.9186 101.637 97.7588 104.108 99.565C107.536 102.072 109.595 104.829 112.801 111.21C115.112 115.808 117.526 122.09 118.166 125.17C119.832 133.193 118.729 145.306 115.562 153.748C109.938 168.744 108.668 176.353 108.722 194.707C108.762 208.011 109.237 213.948 110.914 222.114C112.092 227.849 112.829 232.766 112.553 233.041C112.277 233.317 110.152 231.728 107.83 229.509C105.508 227.289 100.456 222.999 96.6027 219.973C85.5151 211.267 75.6444 200.046 71.4108 191.334C68.2404 184.812 67.7063 182.724 67.6903 176.796C67.6794 172.988 67.5246 170.634 67.3459 171.563C66.8738 174.018 65.1758 172.54 65.1758 169.673C65.1758 168.331 64.6786 167.234 64.0707 167.234C63.4278 167.234 63.2461 167.965 63.6364 168.982C64.445 171.087 67.1922 186.528 66.8249 186.897C66.6821 187.038 64.3702 184.891 61.6869 182.123C59.0036 179.355 55.884 176.606 54.753 176.014C53.623 175.423 55.1982 177.589 58.2549 180.827C61.3125 184.065 66.6582 190.985 70.1351 196.205C73.612 201.425 78.9027 208.51 81.8914 211.951C86.7569 217.551 87.0284 218.09 84.4859 217.104C82.9246 216.499 76.5438 215.909 70.3068 215.793C64.0697 215.677 59.7692 215.865 60.7505 216.208C62.4435 216.803 62.4445 216.87 60.7785 217.509C59.8132 217.88 57.9364 218.183 56.6088 218.183C55.2202 218.183 54.195 218.77 54.195 219.564C54.195 220.732 54.774 220.738 57.9384 219.608C59.9978 218.873 62.7789 218.251 64.1186 218.227C66.4864 218.184 66.5004 218.227 64.6177 219.727C63.5137 220.606 64.5538 220.357 67.0365 219.149C72.6966 216.393 78.4914 217.121 88.2912 221.822C93.55 224.344 97.4322 227.24 102.6 232.496C115.135 245.245 119.429 255.595 119.457 273.128C119.476 284.789 118.193 290.77 112.548 305.337C101.795 333.09 99.7152 341.4 99.7342 356.545C99.7511 369.648 101.274 375.984 108.146 391.51C113.758 404.189 115.57 411.447 114.706 417.765C113.296 428.05 107.971 432.158 87.272 438.923C71.4258 444.103 63.87 446.98 64.489 447.599C64.7056 447.816 67.7772 447.322 71.316 446.501C74.8548 445.679 83.885 443.873 91.3838 442.487C98.8817 441.101 107.538 439.023 110.621 437.869C113.703 436.715 116.488 436.034 116.809 436.356C117.448 436.996 109.106 445.486 105.106 448.266L102.61 450L106.104 449.386C110.544 448.604 119.187 444.736 125.402 440.746C131.893 436.58 136.519 436.71 146.773 441.344C153.989 444.603 160.76 446.69 169.992 448.497C172.601 449.007 171.464 448.13 165.5 445.032C157.917 441.094 148.138 433.918 152.523 435.51C157.539 437.332 173.681 440.909 183.569 442.391C189.553 443.288 199.615 445.086 205.929 446.387C212.243 447.688 217.516 448.653 217.645 448.532C218.14 448.074 198.843 441.931 184.786 438.073C165.582 432.802 158.448 429.483 150.958 422.335C139.268 411.176 121.896 381.994 118.632 368.034C112.267 340.807 124.775 304.016 148.786 279.338C156.293 271.623 162.949 268.361 173.138 267.404C180.946 266.671 185.173 267.675 188.56 271.066C190.989 273.497 191.456 274.779 191.466 279.038C191.477 283.666 191.85 284.484 195.709 288.346L199.94 292.58V286.305C199.94 280.976 199.57 279.662 197.489 277.579C196.141 276.23 194.623 275.126 194.114 275.126C193.605 275.126 192.018 273.591 190.588 271.714L187.987 268.302L191.717 269.31C198.79 271.222 207.837 276.191 213.235 281.13C218.199 285.669 218.691 286.513 219.148 291.279C219.525 295.207 220.228 296.929 222.022 298.322C223.329 299.336 225.407 301.099 226.643 302.237L228.889 304.307V300.157C228.889 294.788 226.794 290.84 222.644 288.39C220.817 287.311 217.875 284.6 216.106 282.366C213.086 278.55 213.029 278.331 215.151 278.759C216.393 279.009 215.387 278.379 212.917 277.36C208.294 275.453 198.829 270.224 197.943 269.089C197.669 268.737 193.411 267.428 188.483 266.179C181.495 264.411 177.661 264.009 171.079 264.354L162.638 264.798L168.062 259.794C182.606 246.376 201.384 235.385 214.414 232.664C231.236 229.151 253.329 232.621 261.146 240.003C263.364 242.097 263.801 242.252 263.22 240.737C262.605 239.132 263.453 239.37 268.397 242.184C276.36 246.718 281.478 250.476 283.92 253.584C285.036 255.003 286.403 255.884 286.957 255.541C287.512 255.197 289.722 256.633 291.868 258.731C294.016 260.829 295.772 262.181 295.772 261.737C295.772 261.292 294.625 260.026 293.223 258.923C291.821 257.82 290.921 256.671 291.221 256.371C291.521 256.071 289.411 254.398 286.532 252.655C283.653 250.911 278.377 247.265 274.808 244.554C271.24 241.843 266.599 238.808 264.495 237.81C262.392 236.812 260.82 235.859 261.001 235.692C261.183 235.526 265.15 235.733 269.817 236.151C274.484 236.571 281.39 236.526 285.163 236.051C293.712 234.979 296.294 235.591 301.015 239.81C304.166 242.626 305.514 243.154 309.5 243.131L314.239 243.104L310.511 239.635C307.566 236.896 305.956 236.165 302.855 236.165C295.615 236.165 295.212 235.096 301.454 232.448C304.642 231.095 309.497 229.54 312.243 228.993C317.409 227.963 320.349 226.517 315.487 227.399C313.978 227.673 312.742 227.69 312.742 227.438C312.742 226.205 323.44 217.559 326.046 216.685C329.909 215.39 332.488 211.752 333.306 206.444L333.961 202.197L329.315 204.796C324.554 207.458 321.726 211.376 321.726 215.308C321.726 217.989 313.163 226.551 311.225 225.807C310.493 225.525 309.329 225.976 308.639 226.808C305.526 230.56 295.614 233.699 284.504 234.448L278.728 234.838L281.956 231.505C283.731 229.673 285.728 228.173 286.395 228.173C287.062 228.173 288.771 226.79 290.192 225.099C292.131 222.794 292.777 220.908 292.777 217.551V213.075L289.664 214.88C285.491 217.299 283.779 220.107 282.968 225.863C282.375 230.074 281.858 230.888 278.799 232.417C273.919 234.859 269.962 234.631 253.108 230.94C240.883 228.261 236.246 227.712 225.894 227.71L213.416 227.708L220.455 220.698C224.326 216.843 230.125 209.923 233.34 205.32C237.944 198.731 240.102 196.547 243.499 195.043C247.547 193.251 248.005 193.234 250.966 194.767C254.757 196.729 258.541 196.158 263.327 192.903L266.774 190.559L263.27 188.887C261.344 187.966 258.637 187.214 257.255 187.214C254.431 187.214 249.212 189.636 248.694 191.187C248.262 192.484 241.866 194.366 241.866 193.197C241.866 192.719 246.471 187.668 252.098 181.973C262.435 171.515 267.086 168.414 276.618 165.627C281.224 164.28 281.235 164.267 277.304 164.816C275.108 165.122 272.265 165.624 270.987 165.931C269.222 166.356 270.09 165.077 274.588 160.619C277.847 157.389 281.364 154.168 282.403 153.461C283.441 152.754 283.731 152.443 283.044 152.771C281.154 153.673 281.538 152.094 284.149 148.235C285.803 145.791 286.269 144.163 285.717 142.759C284.957 140.826 284.929 140.831 284.861 142.907C284.748 146.361 277.829 155.721 270.776 161.959C257.883 173.366 253.416 176.812 254.226 174.727C255.356 171.819 258.803 157.993 258.821 156.295C258.86 152.626 256.698 157.435 255.801 163.015C254.375 171.87 251.612 177.522 245.027 185.053C241.826 188.715 235.791 196.205 231.615 201.7C227.439 207.194 221.635 214.009 218.72 216.845C213.111 222.295 197.966 233.524 197.223 232.781C196.496 232.053 200.08 226.841 203.153 224.16C206.391 221.334 207.734 216.604 206.952 210.782L206.428 206.878L202.57 211.161C198.924 215.21 198.74 215.727 199.212 220.561C200.018 228.816 196.708 232.997 182.47 241.712C171.524 248.412 152.6 263.824 140.281 276.069L130.035 286.252L130.656 279.441C131.453 270.696 129.389 258.776 124.03 241.16C116.546 216.566 116.08 208.441 121.474 196.648C126.126 186.48 137.839 177.37 146.599 177.106C150.297 176.994 150.351 176.95 147.531 176.345L144.537 175.703L148.53 173.264C150.726 171.922 155.667 168.514 159.51 165.689C163.354 162.864 168.07 160.04 169.992 159.416C172.942 158.458 173.02 158.367 170.491 158.832L167.496 159.383L171.489 155.233C173.686 152.951 177.055 150.208 178.976 149.137C180.988 148.016 181.517 147.445 180.224 147.79C178.009 148.379 177.075 146.931 178.929 145.785C179.453 145.461 180.829 143.749 181.987 141.979C183.685 139.384 183.452 139.519 180.785 142.675C178.966 144.826 176.46 147.749 175.215 149.168L172.951 151.75L173.499 148.753C173.912 146.494 173.581 146.854 172.152 150.22C170.223 154.764 165.027 160.043 157.095 165.518C153.484 168.009 152.814 168.215 153.409 166.65C153.876 165.423 152.772 166.044 150.335 168.381C148.244 170.386 143.613 173.47 140.045 175.234C130.61 179.899 123.629 185.631 119.084 192.442L115.088 198.431V187.937C115.088 163.717 122.938 141.222 138.698 120.281C156.681 96.3851 170.912 85.6688 186.152 84.5479C192.597 84.0744 192.924 84.1633 195.635 87.1204C199.43 91.2622 202.424 92.2083 209.329 91.4511L215.167 90.8107L210.092 86.0654C204.852 81.1663 202.724 80.528 197.343 82.2412C195.752 82.7487 190.517 83.3731 185.711 83.6299L176.974 84.0964L183.422 79.2113C186.969 76.5239 191.525 73.2023 193.547 71.8286C195.569 70.456 196.685 69.3321 196.027 69.3321C195.356 69.3321 195.143 68.7847 195.543 68.0834C195.935 67.3971 194.769 68.1833 192.952 69.8316C190.795 71.7897 189.875 72.2222 190.302 71.0804C192.055 66.3861 191.999 66.0993 189.958 69.3321C186.314 75.1044 183.985 77.1833 171.989 85.3711C165.675 89.6808 157.817 95.4431 154.527 98.1773C151.238 100.911 148.45 103.052 148.333 102.934C148.215 102.816 148.722 100.939 149.459 98.7638C151.328 93.2443 152.385 87.465 151.216 89.1613C150.539 90.1424 150.098 89.506 149.595 86.8187C149.213 84.7887 147.383 79.6668 145.524 75.437C141.891 67.1693 139.569 55.7876 140.579 51.1912C140.945 49.5219 140.782 48.3531 140.184 48.3531C139.625 48.3531 138.857 45.1962 138.476 41.3381C138.097 37.4799 137.395 34.0813 136.919 33.7866C136.442 33.4919 136.052 33.8176 136.052 34.5109C136.052 35.2042 134.255 34.0154 132.059 31.8695C129.862 29.7236 128.066 27.4629 128.066 26.8455C128.066 26.2291 126.928 24.6547 125.538 23.348C123.552 21.4809 121.624 20.8825 116.554 20.5598C113.002 20.333 110.11 20.5378 110.126 21.0143ZM150.342 30.3141C146.057 32.2621 143.039 36.42 143.039 40.379C143.039 42.0983 143.46 42.372 145.285 41.8445C149.461 40.6378 152.219 37.8835 154.025 33.1183C155.014 30.5089 155.53 28.383 155.171 28.395C154.813 28.407 152.639 29.2711 150.342 30.3141ZM215.051 41.6308C209.293 44.9065 206.315 48.7866 205.291 54.3471C204.937 56.2702 202.871 60.0913 200.702 62.8386L196.758 67.8336L201.094 63.2162C203.478 60.6768 207.04 58.0814 209.009 57.449C214.379 55.7237 217.817 51.5169 219.389 44.7487C220.139 41.5199 220.674 38.8136 220.578 38.7327C220.483 38.6517 217.995 39.9564 215.051 41.6308ZM193.685 46.5439C190.957 51.2022 190.38 55.2152 191.576 61.1992L192.197 64.3051L195.07 60.6877C198.087 56.8885 198.52 53.7567 197.121 45.8665L196.416 41.8825L193.685 46.5439ZM69.6918 57.1603C70.0692 58.0853 71.0365 60.7247 71.8421 63.0244C73.7268 68.41 77.1238 71.7537 82.5134 73.5289L86.8208 74.9485L86.0092 72.3901C85.563 70.9825 84.9581 68.6218 84.6656 67.1433C83.9299 63.422 79.5575 59.448 73.8286 57.2921C69.3934 55.6228 69.0609 55.6128 69.6918 57.1603ZM95.6443 67.6098C94.1939 72.6049 94.1829 73.5309 95.5385 76.7787C96.3681 78.7657 97.6648 81.0095 98.4195 81.7637C99.5824 82.9286 100.043 82.7108 101.45 80.3262C103.536 76.7937 103.573 72.438 101.545 69.5399C100.686 68.3111 99.3688 66.1233 98.6201 64.6798L97.2585 62.0534L95.6443 67.6098ZM206.48 65.6838L202.54 68.1223L205.981 70.2222C210.301 72.8576 212.463 72.8596 218.388 70.2362L223.116 68.1433L219.84 66.1493C214.699 63.0204 210.993 62.8915 206.48 65.6838ZM154.769 70.1813C150.903 74.468 150.268 77.2802 151.627 84.0814L152.229 87.0924L155.471 83.457C159.272 79.1973 160.053 76.44 159.163 70.429L158.512 66.0304L154.769 70.1813ZM114.224 79.5329C111.282 83.1234 110.184 87.8227 111.298 92.0594C112.331 95.9945 113.304 96.1214 116.014 92.6738C118.109 90.0085 118.688 83.4031 117.234 78.7357C116.612 76.7327 116.492 76.7647 114.224 79.5329ZM70.9207 86.1653C68.3153 87.0724 66.191 88.0385 66.199 88.3132C66.2259 89.1683 75.9778 93.3102 77.8625 93.2662C78.8458 93.2433 81.1318 92.4341 82.9436 91.467C86.0631 89.8027 86.142 89.6279 84.441 88.1414C82.0023 86.0095 78.5643 84.2962 76.9711 84.4171C76.2483 84.472 73.5261 85.2592 70.9207 86.1653ZM82.6272 96.0774C81.5191 97.0275 79.853 98.7178 78.9237 99.8357C77.2666 101.83 77.3275 101.872 82.153 102.082C86.3576 102.265 87.5655 101.861 90.4804 99.3012C92.3551 97.6529 94.5043 96.2533 95.255 96.1903C96.995 96.0435 89.3025 94.4341 86.6381 94.3871C85.5401 94.3671 83.7352 95.1284 82.6272 96.0774ZM112.288 101.799C112.308 103.448 112.532 104.001 112.785 103.029C113.039 102.057 113.022 100.709 112.748 100.032C112.475 99.3562 112.268 100.151 112.288 101.799ZM256.091 125.213C253.266 132.489 253.28 134.814 256.174 139.599L258.493 143.432L260.305 140.664C263.205 136.235 263.331 130.535 260.663 124.6L258.337 119.427L256.091 125.213ZM171.567 126.666C169.981 131.713 169.98 132.294 171.549 135.906C172.471 138.027 173.575 141.11 174.002 142.759C174.727 145.556 174.788 145.589 174.916 143.258C174.992 141.884 175.696 139.637 176.481 138.263C177.265 136.889 177.923 134.095 177.943 132.053C177.977 128.455 175.309 121.28 173.937 121.28C173.565 121.28 172.499 123.704 171.567 126.666ZM193.238 123.736C187.77 126.271 186.025 128.539 184.92 134.543C184.172 138.609 183.793 138.444 189.913 136.712C192.81 135.89 196.743 130.733 197.982 126.129C198.582 123.9 198.911 121.916 198.716 121.72C198.519 121.523 196.054 122.431 193.238 123.736ZM299.381 123.68C295.653 125.689 294.326 127.711 292.067 134.828L291.096 137.886L294.551 136.124C299.851 133.419 301.456 131.544 302.701 126.592C303.331 124.086 303.715 121.935 303.553 121.813C303.391 121.691 301.513 122.531 299.381 123.68ZM285.333 127.192C283.2 131.319 283.587 139.262 285.922 139.262C287.814 139.262 290.057 132.55 289.376 128.918C288.48 124.138 287.194 123.589 285.333 127.192ZM66.8658 136.549C64.3242 140.242 63.1793 143 63.1793 145.43C63.1793 149.579 64.9771 155.246 66.2938 155.246C67.875 155.246 73.1637 145.996 73.1178 143.312C73.0939 141.908 72.5059 138.608 71.8131 135.976L70.5523 131.192L66.8658 136.549ZM22.7861 140.87C23.1784 144.106 23.8821 147.493 24.3503 148.395C25.3825 150.386 31.0286 155.246 32.3104 155.246C33.5212 155.246 33.5013 146.629 32.2854 144.354C31.7653 143.381 29.2547 140.875 26.7062 138.786L22.0723 134.985L22.7861 140.87ZM153.5 143.688C151.712 148.953 151.711 149.232 153.49 153.178C154.497 155.415 155.651 157.244 156.054 157.244C157.09 157.244 160.014 150.819 159.988 148.602C159.966 146.764 156.464 138.263 155.728 138.263C155.516 138.263 154.513 140.705 153.5 143.688ZM267.693 140.267C263.96 142.24 263.155 143.44 261.821 149.002C260.925 152.743 260.832 152.694 265.277 150.835C268.943 149.302 270.05 147.764 271.625 142.009C272.796 137.732 272.627 137.657 267.693 140.267ZM243.166 140.605C243.488 141.446 244.249 143.981 244.856 146.238C245.634 149.129 246.905 150.918 249.154 152.291C250.91 153.363 252.684 154.241 253.096 154.243C254.471 154.25 253.866 147.729 252.282 145.465C250.271 142.592 242.297 138.341 243.166 140.605ZM190.207 143.373C188.423 144.517 186.962 145.761 186.962 146.138C186.962 147.348 192.682 150.25 195.102 150.268C197.45 150.285 206.815 146.251 206.888 145.191C206.968 144.025 199.747 141.261 196.661 141.277C194.895 141.286 191.991 142.229 190.207 143.373ZM291.898 149.32L288.523 151.379L290.893 153.04C294.124 155.305 299.559 155.065 303.715 152.474L307.165 150.322L303.497 148.788C298.593 146.738 295.931 146.859 291.898 149.32ZM51.331 152.922C51.8112 155.49 52.9871 158.458 53.9454 159.518C55.4688 161.202 60.3263 164.237 61.4982 164.237C62.211 164.237 60.5918 156.851 59.3869 154.611C58.4735 152.912 52.1606 148.253 50.773 148.253C50.6003 148.253 50.8519 150.354 51.331 152.922ZM75.5595 156.15C71.2711 158.099 70.3806 159.393 69.1937 165.396C68.476 169.03 68.4869 169.045 71.0664 167.952C75.3469 166.138 77.8955 163.303 79.4248 158.652C80.2224 156.229 80.5987 154.257 80.2623 154.269C79.9259 154.281 77.8096 155.127 75.5595 156.15ZM34.23 157.841C34.23 158.414 35.7863 160.703 37.6889 162.926C39.5916 165.151 40.8644 167.255 40.517 167.602C40.1706 167.949 40.4371 168.233 41.1099 168.233C41.7828 168.233 42.1052 168.603 41.8257 169.055C41.5472 169.507 43.6395 170.859 46.4755 172.057L51.6325 174.238L44.4291 167.658C40.4661 164.039 36.5509 160.115 35.7274 158.938C34.9038 157.763 34.23 157.268 34.23 157.841ZM5.38556 160.955L0 163.502L5.38556 165.828C12.1188 168.735 14.6284 168.737 20.1677 165.837L24.5729 163.531L20.6847 160.887C15.8881 157.626 12.3973 157.641 5.38556 160.955ZM179.226 158.948C176.273 159.517 176.388 160.255 180 163.952C182.423 166.433 184.004 167.113 187.987 167.389C190.719 167.579 192.953 167.647 192.953 167.541C192.952 167.435 192.002 165.738 190.841 163.769C187.791 158.594 185.657 157.709 179.226 158.948ZM155.097 160.824C155.145 161.987 155.382 162.224 155.7 161.428C155.989 160.707 155.953 159.845 155.621 159.513C155.29 159.181 155.054 159.771 155.097 160.824ZM285.025 162.893L281.766 164.501L284.969 166.867C286.731 168.167 288.991 169.232 289.992 169.232C292.358 169.232 299.765 166.915 299.765 166.176C299.765 165.168 292.073 161.239 290.145 161.263C289.122 161.275 286.818 162.009 285.025 162.893ZM24.0039 171.786C21.8257 172.978 17.2597 179.591 17.2597 181.551C17.2597 182.05 25.0611 180.628 27.4938 179.685C28.4551 179.312 30.4985 177.144 32.0339 174.868L34.826 170.728L30.784 170.507C28.5619 170.385 25.5103 170.96 24.0039 171.786ZM154.519 175.95C150.892 176.803 150.882 177.891 154.477 181.049C157.451 183.663 158.766 184.141 162.515 183.977C164.98 183.871 166.997 183.519 166.997 183.197C166.997 182.014 160.448 176.431 158.512 175.963C157.414 175.698 155.617 175.692 154.519 175.95ZM43.2142 205.597C43.2142 206.225 44.5948 208.415 46.2819 210.463C48.8603 213.594 49.9654 214.187 53.2177 214.187C57.065 214.187 57.0799 214.171 56.0617 211.248C54.6961 207.326 53.3415 206.349 47.8491 205.322C44.5329 204.702 43.2142 204.78 43.2142 205.597ZM312.427 208.727C310.482 212.81 310.309 215.502 311.813 218.313C312.702 219.976 313.138 220.096 314.413 219.038C317.075 216.827 317.847 213.3 316.588 209.097C315.946 206.952 315.126 205.196 314.765 205.196C314.405 205.196 313.353 206.785 312.427 208.727ZM32.4901 218.949C30.1611 220.451 28.2515 221.961 28.2475 222.304C28.2385 223.068 33.5113 224.177 37.1559 224.177C38.6273 224.177 41.3086 223.086 43.1134 221.754L46.3967 219.33L43.357 217.758C39.1733 215.593 37.3915 215.788 32.4901 218.949ZM50.7081 222.168C50.3587 222.734 50.759 222.902 51.6475 222.561C53.3764 221.897 53.6929 221.18 52.2574 221.18C51.7403 221.18 51.0435 221.625 50.7081 222.168ZM57.7168 225.557C55.7672 227.508 55.2092 229.057 55.2631 232.374C55.3899 240.097 56.2903 240.777 60.0008 235.945C62.6372 232.511 63.2132 230.928 62.9756 227.76C62.6123 222.924 61.016 222.255 57.7168 225.557ZM43.7573 225.765C38.195 227.804 35.4219 230.777 33.7129 236.538C32.8993 239.279 32.2335 241.628 32.2335 241.755C32.2335 242.796 42.794 237.2 43.8411 235.606C44.9173 233.967 48.4521 223.973 47.8581 224.247C47.7743 224.286 45.9295 224.97 43.7573 225.765ZM325.547 226.236C320.69 227.554 320.441 228.248 323.91 230.811C328.341 234.085 330.405 234.459 335.605 232.931L340 231.638L336.104 229.075C331.315 225.926 328.994 225.301 325.547 226.236ZM263.93 249.203C262.599 253.65 263.025 255.944 266.137 261.082L268.22 264.52L269.473 261.582C271.78 256.17 270.526 249.646 266.545 246.339C265.393 245.382 264.919 245.902 263.93 249.203ZM299.986 255.379C297.005 256.817 297.566 258.24 301.977 260.431C305.196 262.031 306.128 262.08 310.785 260.899L315.994 259.578L311.893 256.863C307.593 254.015 303.796 253.542 299.986 255.379ZM287.261 265.523C286.648 271.265 286.836 272.401 289.013 276.056L291.454 280.15L292.614 276.274C294.355 270.459 294.027 268.059 290.844 263.36L287.95 259.088L287.261 265.523ZM208.699 261.699C204.69 263.877 203.397 266.778 205.851 268.092C209.715 270.161 214.512 269.31 218.696 265.812L222.667 262.492L218.276 261.316C212.789 259.848 212.053 259.877 208.699 261.699ZM299.793 266.188C300.327 267.185 300.779 269.044 300.798 270.315C300.858 274.187 303.144 277.103 308.543 280.188L313.693 283.132L313.107 279.879C311.949 273.446 309.324 269.753 303.955 267.004C299.629 264.787 298.975 264.659 299.793 266.188ZM199.69 267.796C200.377 268.074 201.5 268.074 202.186 267.796C202.872 267.519 202.31 267.292 200.938 267.292C199.565 267.292 199.004 267.519 199.69 267.796ZM226.555 278.741L223.721 280.277L226.998 282.697C230.65 285.393 235.253 285.731 240.838 283.713L244.302 282.461L239.752 279.793C234.635 276.792 230.724 276.48 226.555 278.741ZM218.657 279.784C219.344 280.062 220.467 280.062 221.152 279.784C221.839 279.507 221.277 279.28 219.905 279.28C218.532 279.28 217.971 279.507 218.657 279.784Z" fill="black"/>
</svg>
