<svg width="340" height="452" viewBox="0 0 340 452" fill="none" xmlns="http://www.w3.org/2000/svg">
<path fill-rule="evenodd" clip-rule="evenodd" d="M124.675 5.59903C123.763 12.8876 124.637 16.5148 128.101 19.8318L130.923 22.5332L132.085 17.9231C133.097 13.9035 132.995 12.7755 131.287 9.10618C130.209 6.7921 128.438 3.79741 127.352 2.4492L125.375 0L124.675 5.59903ZM143.996 8.4556C139.154 12.6033 138.864 13.311 137.853 23.416C137.509 26.8601 137.633 27.4296 138.38 25.8382C138.917 24.6932 140.676 22.9776 142.289 22.0258C145.972 19.8508 147.758 16.3587 148.614 9.65367C148.984 6.76308 149.158 4.40196 149.001 4.40496C148.845 4.40896 146.592 6.2316 143.996 8.4556ZM111.215 26.1545C116.025 31.3652 116.956 31.8576 123.076 32.4241C127.807 32.8625 128.849 33.378 131.414 36.5548C134.453 40.3182 134.393 40.046 137.152 62.5142C137.73 67.2284 139.555 74.7852 141.207 79.3082C146.602 94.0825 144.815 102.684 133.138 118.143C129.203 123.353 124.865 129.613 123.499 132.057C120.183 137.986 119.527 138.187 119.337 133.337C119.124 127.898 117.608 122.423 114.074 114.33C110.188 105.429 110.036 97.6067 113.664 93.2968C116.225 90.2541 116.686 86.4927 115.293 79.9909L114.655 77.0112L111.405 81.9136C108.027 87.0112 107.419 90.2331 109.207 93.5711C109.785 94.65 110.123 98.0381 109.958 101.101L109.659 106.669L104.666 99.8237C101.921 96.0593 97.2331 90.5013 94.2487 87.4736C88.8287 81.9756 89.6038 83.1907 98.2386 93.7292C101.799 98.0741 101.618 98.2392 96.446 95.3597L92.6333 93.2378L95.137 95.3687C96.5141 96.5417 99.4684 98.7867 101.702 100.359C104.45 102.294 106.951 105.476 109.435 110.201C117.358 125.271 118.315 138.761 112.653 155.566C110.719 161.304 108.392 169.838 107.479 174.529C105.109 186.731 105.357 207.804 108.05 222.944C109.21 229.468 110.159 234.99 110.159 235.217C110.159 235.96 93.9222 222.256 86.3109 215.088C73.6842 203.201 65.0925 188.512 65.0925 178.817C65.0925 175.249 62.9583 168.546 61.8226 168.546C61.2999 168.546 61.1807 169.334 61.5583 170.298C62.4195 172.496 65.1666 187.824 64.77 188.219C64.6088 188.38 61.8126 185.821 58.5568 182.533C55.301 179.244 52.1723 176.569 51.6035 176.587C51.0357 176.606 51.4913 177.393 52.616 178.338C56.0361 181.213 63.5132 190.835 70.4004 201.228C73.9937 206.65 78.5364 212.661 80.4953 214.588C82.4542 216.514 84.0716 218.381 84.0887 218.736C84.1067 219.091 82.4312 218.99 80.3651 218.51C75.4088 217.359 58.8092 217.337 59.5162 218.481C59.8197 218.972 58.4166 219.682 56.3986 220.061C54.3806 220.439 51.4603 221.952 49.909 223.424C48.3577 224.894 44.509 227.449 41.3563 229.101C34.8777 232.495 32.5993 235.725 31.5758 242.964L30.8888 247.819L35.5477 244.616C40.8435 240.974 44.0523 236.365 44.0573 232.393C44.0593 230.9 44.9817 228.822 46.1073 227.774C49.1519 224.939 57.0986 220.897 61.0866 220.156L64.5917 219.503L58.697 224.884C53.4072 229.712 52.8013 230.671 52.8013 234.219C52.8013 236.394 53.1187 239.172 53.5053 240.391C54.2084 242.603 54.2154 242.602 56.4977 239.858C60.3364 235.245 61.3379 232.573 60.706 228.628C59.6264 221.879 66.4805 217.973 75.6912 220.086C86.6194 222.593 97.3543 229.906 105.038 240.077C113.734 251.586 117.805 265.135 116.778 279.146C116.005 289.709 114.333 295.791 107.134 314.23C99.0318 334.985 96.8155 344.393 96.7775 358.217C96.7414 371.089 97.9852 376.952 103.357 389.245C109.963 404.359 111.341 408.882 111.437 415.768C111.617 428.655 105.259 434.576 85.0431 440.348C75.1945 443.159 57.7146 449.765 58.3765 450.427C58.5868 450.637 60.071 450.367 61.6754 449.825C63.2798 449.284 73.6502 447.043 84.7206 444.845C95.792 442.648 106.947 439.951 109.507 438.854C112.069 437.756 114.165 437.116 114.165 437.43C114.165 439.026 107.541 446.02 103.379 448.817L98.6422 452L102.147 451.372C104.075 451.027 111.133 447.99 117.83 444.623C131.74 437.631 131.67 437.635 144.152 443.267C151.013 446.363 157.195 448.272 166.743 450.241C168.702 450.645 167.193 449.454 162.409 446.818C155.13 442.809 147.872 437.797 148.474 437.197C148.646 437.025 152.891 437.951 157.905 439.258C162.921 440.564 172.819 442.595 179.903 443.771C186.986 444.948 196.974 446.815 202.098 447.92C207.222 449.026 211.897 449.77 212.487 449.574C213.613 449.198 189.426 441.438 175.862 437.821C155.676 432.439 146.177 425.142 132.508 404.517C117.3 381.567 113.525 370.368 114.453 350.953C115.11 337.178 117.364 328.437 123.781 314.778C131.95 297.391 146.804 277.935 155.165 273.672C160.613 270.894 166.851 269.49 173.922 269.449C179.264 269.418 181.025 269.87 184.551 272.177C188.193 274.562 188.503 274.636 186.8 272.715L184.824 270.488L187.801 271.143C194.112 272.531 205.739 279.029 210.968 284.09C215.349 288.332 216.325 289.891 216.362 292.715C216.424 297.479 218.172 300.833 222.576 304.636L226.331 307.879L226.327 303.522C226.323 298.243 223.562 293.349 219.365 291.18C217.689 290.313 216.315 289.278 216.312 288.878C216.31 288.48 214.873 286.624 213.12 284.755L209.932 281.355L213.875 281.978L217.819 282.601L213.813 281.156C208.316 279.172 195.305 272.31 195.293 271.389C195.289 270.975 196.525 270.567 198.04 270.481C199.554 270.394 197.864 270.005 194.284 269.616C190.704 269.227 184.169 268.106 179.762 267.124C173.445 265.717 170.533 265.541 165.992 266.289C162.825 266.812 160.234 266.935 160.234 266.564C160.234 266.193 164.177 262.604 168.997 258.589C190.281 240.858 206.96 233.59 226.291 233.62C245.864 233.65 262.601 240.716 262.609 248.954C262.611 250.146 262.276 252.815 261.865 254.886C261.268 257.89 261.6 259.559 263.503 263.143C264.814 265.614 266.155 267.635 266.481 267.635C267.254 267.635 269.395 260.482 269.395 257.901C269.395 256.803 268.274 254.252 266.903 252.234C263.842 247.727 261.153 242.613 261.843 242.613C262.769 242.613 272.821 248.922 276.784 251.988C278.92 253.642 281.963 256.781 283.544 258.964C285.127 261.146 286.421 262.504 286.421 261.98C286.421 261.458 285.88 260.489 285.219 259.828C284.558 259.168 284.458 258.627 284.997 258.627C285.536 258.627 288.73 261.443 292.095 264.883C296.765 269.658 298.378 272.081 298.915 275.124C299.902 280.721 300.859 282.151 305.965 285.662L310.456 288.75V284.847C310.456 279.924 307.088 274.713 302.429 272.426C300.507 271.482 296.683 268.412 293.93 265.603C289.054 260.628 289.002 260.513 291.929 261.176C293.84 261.609 292.746 260.734 288.924 258.772C285.619 257.076 280.211 253.502 276.906 250.829C273.602 248.157 268.419 244.268 265.389 242.188L259.881 238.405L264.388 239.097C266.867 239.476 275.157 240.105 282.811 240.493L296.727 241.198L299.534 244.559C301.717 247.172 303.41 248.084 307.15 248.661C309.794 249.069 312.132 249.242 312.342 249.044C312.553 248.847 311.134 247.094 309.187 245.148C306.41 242.373 304.82 241.597 301.793 241.542C297.12 241.457 293.135 240.08 295.434 239.345C303.244 236.852 308.839 235.585 312.547 235.471C314.978 235.395 315.952 235.139 314.713 234.9C312.664 234.506 311.427 232.611 313.21 232.599C313.624 232.596 315.313 231.438 316.966 230.026C319.279 228.048 318.861 228.186 315.143 230.628C312.488 232.372 310.159 233.641 309.967 233.45C309.776 233.259 310.927 231.302 312.524 229.1C317.261 222.573 317.771 221.108 317.03 216.167C316.651 213.647 316.002 211.585 315.587 211.585C315.171 211.585 313.823 213.378 312.591 215.569C310.69 218.949 310.504 220.106 311.362 223.21C312.556 227.536 310.907 231.607 306.892 234.236C303.073 236.737 293.845 238.576 285.031 238.593L277.132 238.609L280.912 235.607C282.991 233.955 285.257 232.604 285.947 232.604C288.882 232.604 291.503 228.996 292.309 223.846C292.762 220.956 293.043 218.591 292.934 218.591C292.826 218.591 291.389 219.264 289.74 220.086C285.385 222.257 283.716 224.528 282.742 229.601C282.021 233.361 281.302 234.395 278.391 235.855C273.444 238.337 270.108 238.084 253.001 233.924C239.606 230.667 236.312 230.232 224.605 230.171L211.36 230.102L218.728 222.595C222.78 218.466 228.669 211.566 231.814 207.261C238.45 198.174 242.45 195.206 246.862 196.095C255.849 197.906 258.206 197.789 262.338 195.326L266.428 192.889L262.438 191.091C257.615 188.917 251.188 189.48 248.016 192.355C246.83 193.429 244.554 194.617 242.958 194.995C240.156 195.66 240.236 195.477 245.27 189.669C253.673 179.976 261.395 173.476 268.895 169.79C274.472 167.047 275.189 166.465 272.4 166.941L268.895 167.54L274.926 161.787C278.241 158.623 281.847 155.456 282.937 154.747C284.027 154.038 284.356 153.727 283.666 154.055C281.876 154.909 282.112 153.758 284.532 149.845C287.837 144.501 286.053 144.865 282.592 150.242C279.255 155.428 273.612 161.104 263.386 169.56C252.08 178.912 252.925 178.339 253.782 176.053C254.932 172.987 258.346 159.225 258.364 157.587C258.403 153.91 256.234 158.729 255.334 164.32C253.897 173.23 251.032 179.072 244.796 185.803C241.761 189.08 235.958 196.108 231.9 201.422C222.845 213.281 212.067 223.866 202.851 229.954C199.025 232.48 195.739 234.392 195.55 234.202C194.91 233.563 199.37 226.783 200.788 226.239C203.603 225.159 205.499 219.668 204.803 214.61L204.146 209.835L201.343 212.462C197.215 216.33 196.043 219.191 196.785 223.58C197.977 230.633 194.282 235 179.402 244.127C166.987 251.742 152.214 263.581 138.702 276.745L127.685 287.477L127.555 276.806C127.416 265.34 125.598 256.111 120.229 239.61C113.271 218.222 112.944 209.031 118.724 197.235C122.704 189.112 134.665 178.555 139.889 178.555C140.558 178.555 141.466 177.988 141.906 177.294C142.347 176.601 144.736 174.729 147.214 173.135C149.693 171.54 154.2 168.346 157.229 166.037C160.259 163.728 164.315 161.367 166.242 160.79C169.152 159.921 169.331 159.725 167.298 159.64C164.87 159.539 164.879 159.505 168.299 155.947C170.197 153.971 173.779 151.244 176.257 149.886C180.333 147.652 180.083 147.392 175.592 149.199C173.734 149.947 173.956 149.428 178.034 143.524L180.452 140.021L177.604 143.49C176.037 145.398 173.537 148.325 172.049 149.996C169.389 152.981 169.352 152.99 169.87 150.53C170.201 148.952 169.675 149.505 168.442 152.032C166.444 156.123 162.834 159.862 155.727 165.201C149.293 170.034 148.846 170.166 150.636 166.705C151.509 165.02 152.212 163.055 152.2 162.341C152.188 161.625 151.35 162.841 150.338 165.043C147.987 170.159 146.454 171.453 136.699 176.559C126.159 182.075 120.738 186.624 116.03 193.904L112.162 199.885V189.127C112.162 158.24 126.017 127.488 151.252 102.361C162.329 91.333 170.522 86.6208 180.141 85.749C185.509 85.2626 186.025 85.4237 190.137 88.8568C194.65 92.6242 195.914 92.9025 203.709 91.8345L208.406 91.1909L205.601 88.2423C200.656 83.0426 194.753 81.1299 190.462 83.3369C189.535 83.8143 185.002 84.4509 180.39 84.7521L172.004 85.2996L175.799 82.1328C177.886 80.3912 181.817 77.2774 184.536 75.2126C187.254 73.1477 189.118 71.4592 188.68 71.4592C188.241 71.4592 189.432 69.7707 191.327 67.7058C193.557 65.2746 192.997 65.627 189.736 68.7067C184.137 73.9935 182.83 74.541 183.763 71.209C184.111 69.9709 183.352 70.7315 182.079 72.9015C179.679 76.9872 175.343 80.7465 161.23 90.9707C156.676 94.2707 151.032 98.6576 148.688 100.719L144.426 104.469L146.321 98.3844C148.472 91.4762 148.638 90.0969 147.214 90.9767C146.645 91.328 146.213 90.4793 146.213 89.012C146.213 87.5917 144.577 82.2729 142.579 77.1923C138.91 67.864 137.879 61.5313 136.52 39.9309C136.059 32.5903 135.918 32.1629 134.833 34.8003L133.649 37.6758L130.167 33.4941C120.906 22.3731 120.967 22.4151 114.069 22.4151H107.764L111.215 26.1545ZM149.308 31.9667C144.737 33.5221 141.601 36.704 140.827 40.5724C140.476 42.322 140.393 43.9565 140.64 44.2037C140.888 44.4519 142.807 43.8164 144.904 42.7934C147.684 41.4362 149.344 39.6166 151.036 36.0764C152.312 33.407 153.213 31.128 153.039 31.0139C152.865 30.8988 151.186 31.3281 149.308 31.9667ZM133.352 33.425C133.352 34.8013 133.579 35.3648 133.856 34.6761C134.135 33.9885 134.135 32.8625 133.856 32.1739C133.579 31.4863 133.352 32.0488 133.352 33.425ZM205.3 43.8043C200.348 47.3655 197.292 52.349 197.29 56.8671C197.289 58.4755 196.5 60.7045 195.536 61.8215C193.962 63.6462 194.077 63.6292 196.673 61.6504C198.262 60.4393 200.116 59.4484 200.794 59.4484C202.709 59.4484 207.199 55.5539 208.684 52.6043C210.231 49.5355 211.63 40.3983 210.539 40.4974C210.136 40.5344 207.779 42.0227 205.3 43.8043ZM184.295 51.6034C182.247 56.3606 182.178 57.1744 183.368 62.5322C184.564 67.922 184.741 68.1712 185.937 66.1374C189.984 59.2492 190.446 57.3155 189.245 52.308C188.601 49.6256 187.721 47.2134 187.291 46.9472C186.86 46.6819 185.512 48.7768 184.295 51.6034ZM67.4179 57.843C67.7124 58.6117 68.5015 61.0659 69.1705 63.2979C70.6527 68.2403 74.1159 71.6944 80.1899 74.2867L84.7717 76.2425L83.4627 71.201C81.5859 63.9685 79.6571 61.5803 73.4929 58.8559C67.1435 56.0493 66.7009 55.9763 67.4179 57.843ZM94.0855 66.0033C91.6669 72.1908 91.8311 75.721 94.7444 80.149L97.4985 84.3337L98.9286 81.6503C101.222 77.3435 100.869 72.4411 97.9101 67.5046L95.2402 63.0496L94.0855 66.0033ZM199.018 67.4556C197.618 68.5566 195.873 69.4574 195.142 69.4574C194.411 69.4574 195.495 70.3582 197.55 71.4592C202.347 74.0285 206.223 73.9915 211.339 71.3261L215.437 69.1912L211.261 67.3225C205.883 64.9163 202.198 64.9564 199.018 67.4556ZM150.919 71.7094C147.476 76.3636 147.033 78.1802 147.825 84.4238C148.212 87.4776 148.758 89.3042 149.037 88.4845C149.316 87.6637 150.766 85.771 152.26 84.2797C153.752 82.7874 155.205 80.3582 155.487 78.8809C156.136 75.4898 155.229 68.4565 154.143 68.4565C153.694 68.4565 152.242 69.9208 150.919 71.7094ZM68.7669 87.4135L63.9288 89.1821L67.6663 91.3861C73.0633 94.5679 76.0417 94.8742 80.8078 92.7343L85.007 90.8486L80.8579 88.1602C76.0838 85.0664 75.3196 85.0194 68.7669 87.4135ZM81.4507 96.7449C80.258 97.4255 78.3652 99.1511 77.2455 100.578L75.2095 103.174L80.1118 103.348C84.2719 103.495 85.5368 103.064 88.4551 100.501C90.3479 98.8408 92.7004 97.4826 93.6839 97.4826C97.116 97.4826 94.5922 96.7279 89.1281 96.1193C85.5288 95.719 82.8678 95.9362 81.4507 96.7449ZM167.824 127.514C166.155 133.455 166.165 133.724 168.18 137.884C169.318 140.232 170.3 143.476 170.364 145.091C170.469 147.774 170.541 147.707 171.199 144.327C171.595 142.292 172.503 139.924 173.215 139.065C175.417 136.415 174.919 130.394 172.113 125.713L169.536 121.414L167.824 127.514ZM189.605 124.445C184.666 126.686 182.286 129.941 181.544 135.472L181.002 139.507L184.388 138.374C189.22 136.757 191.951 133.932 193.732 128.706C196.166 121.568 196.098 121.498 189.605 124.445ZM255.507 126.944C252.673 133.346 252.756 138.297 255.764 142.373L258.158 145.615L260.271 141.251C262.958 135.705 262.884 132.139 259.968 126.567L257.641 122.121L255.507 126.944ZM301.317 126.061C296.737 128.395 296.049 129.269 294.364 134.884C293.522 137.691 293.573 137.741 296.656 137.124C300.957 136.264 303.045 134.136 304.886 128.74C305.743 126.225 306.333 124.062 306.197 123.933C306.061 123.805 303.864 124.762 301.317 126.061ZM287.193 127.737C284.63 131.645 284.146 134.873 285.601 138.361L286.921 141.526L289.336 137.974C291.648 134.572 291.689 134.227 290.313 129.796L288.875 125.169L287.193 127.737ZM64.8371 139.245C60.6669 145.48 60.3445 147.635 62.6979 153.513L64.3093 157.538L67.2266 153.868C70.812 149.36 71.533 146.689 70.7359 140.879C69.6913 133.26 68.9732 133.061 64.8371 139.245ZM21.5399 143.692C22.5124 150.864 24.256 153.937 28.4942 155.947C30.4461 156.873 32.0435 157.996 32.0435 158.443C32.0435 158.891 33.9563 161.428 36.2938 164.082C39.8411 168.11 40.1715 168.811 38.2948 168.32C37.0579 167.996 36.2988 168.14 36.6083 168.639C36.9167 169.139 37.8181 169.547 38.6122 169.547C39.4064 169.547 40.0554 169.977 40.0554 170.501C40.0554 171.51 49.0958 175.86 49.7768 175.178C49.9961 174.959 48.6872 173.855 46.8685 172.725C43.3102 170.514 36.3759 163.588 33.6939 159.565C32.7866 158.205 32.0275 155.277 32.0084 153.059C31.9624 147.825 30.5092 145.368 25.1783 141.51L20.8169 138.354L21.5399 143.692ZM150.176 143.654C148.512 148.691 148.629 150.903 150.816 155.748L152.502 159.486L154.365 156.012C155.389 154.102 156.228 151.529 156.228 150.294C156.228 147.825 153.073 139.53 152.132 139.524C151.807 139.522 150.927 141.381 150.176 143.654ZM266.38 142.773C263.966 144.415 262.586 146.514 261.289 150.512C260.312 153.53 259.707 156.194 259.946 156.435C260.186 156.674 260.382 156.349 260.382 155.715C260.382 155.08 261.846 153.941 263.637 153.184C267.723 151.456 269.74 149.057 271.125 144.275C272.436 139.749 271.338 139.401 266.38 142.773ZM289.703 141.772C288.202 143.712 287.258 145.526 287.749 145.526C287.993 145.526 288.931 144.4 289.834 143.023C291.522 140.448 291.428 139.544 289.703 141.772ZM187.458 144.259L183.236 146.994L185.505 148.725C189.63 151.869 192.832 151.911 198.786 148.898C201.818 147.363 204.296 145.865 204.292 145.567C204.284 144.993 194.288 141.522 192.646 141.522C192.115 141.522 189.78 142.753 187.458 144.259ZM243.558 144.775C245.454 150.765 246.861 152.919 250.127 154.826L253.372 156.72V153.672C253.372 148.943 251.322 145.543 247.205 143.444C242.336 140.961 242.35 140.956 243.558 144.775ZM295.434 149.257C294.608 149.571 292.953 150.586 291.758 151.512L289.584 153.196L292.413 154.865C296.065 157.021 300.063 156.924 304.447 154.571L307.952 152.689L303.446 150.631C298.718 148.471 297.881 148.327 295.434 149.257ZM50.2054 155.225C51.0407 159.693 54.2775 164.543 56.4256 164.543C56.9745 164.543 58.3134 165.331 59.4011 166.294C61.3159 167.991 61.3419 167.977 60.2313 165.86C59.5994 164.657 59.0836 162.488 59.0836 161.04C59.0836 157.258 57.6304 155.055 53.5444 152.646C51.5704 151.482 49.8138 150.53 49.6416 150.53C49.4683 150.53 49.7227 152.643 50.2054 155.225ZM73.8815 157.748C69.5361 159.824 67.5481 162.61 66.797 167.68L66.2572 171.317L70.6187 168.881C73.9436 167.023 75.3777 165.405 76.6536 162.065C77.574 159.654 78.1669 157.297 77.9696 156.825C77.7723 156.352 75.9326 156.769 73.8815 157.748ZM174.992 160.231C173.357 160.657 173.382 160.889 175.327 163.368C178.275 167.125 181.089 168.47 186.09 168.511L190.414 168.546L188.13 165.293C186.873 163.505 185.152 161.492 184.306 160.821C182.784 159.615 178.414 159.339 174.992 160.231ZM5.25579 163.301L0 166.076L4.88925 167.812C11.3098 170.091 15.7664 169.999 19.8624 167.503L23.2034 165.468L20.5785 163.404C16.3993 160.119 11.3478 160.085 5.25579 163.301ZM287.923 163.29C286.821 163.561 285.104 164.354 284.105 165.051C282.409 166.237 282.484 166.458 285.261 168.434C288.537 170.765 292.243 171.011 297.161 169.221L300.391 168.046L297.161 165.896C293.36 163.366 290.682 162.61 287.923 163.29ZM23.8974 173.111C21.62 174.305 16.4043 181.321 17.2305 182.077C17.3908 182.223 19.7483 181.999 22.4693 181.58C26.1958 181.006 27.9815 180.106 29.703 177.935C30.9609 176.349 32.5693 174.373 33.2773 173.542C34.391 172.236 34.0234 172.012 30.5503 171.878C28.342 171.794 25.3486 172.349 23.8974 173.111ZM148.716 177.536C146.513 177.941 145.387 178.331 146.213 178.404C147.039 178.477 148.9 179.978 150.347 181.738C152.649 184.537 153.624 184.953 158.108 185.055C160.93 185.119 163.238 184.904 163.238 184.578C163.238 184.252 161.998 182.552 160.484 180.801C157.399 177.237 154.594 176.459 148.716 177.536ZM41.0569 208.117C41.0569 209.096 44.511 214.068 46.0503 215.306C46.8845 215.977 49.268 216.541 51.3481 216.558L55.1287 216.59L53.6065 213.648C51.5684 209.707 48.3206 207.581 44.3387 207.581C42.5341 207.581 41.0569 207.823 41.0569 208.117ZM330.303 212.168C324.956 214.893 322.474 217.888 322.474 221.617C322.474 223.035 321.911 224.828 321.222 225.6C320.187 226.76 320.23 226.815 321.473 225.915C322.299 225.317 324.393 224.525 326.125 224.155C327.859 223.785 329.997 222.687 330.877 221.715C332.254 220.194 335.813 210.545 335.206 209.977C335.089 209.867 332.882 210.852 330.303 212.168ZM32.5442 221.08C29.5288 222.494 25.0331 225.987 25.0331 226.915C25.0331 227.188 27.2794 227.721 30.0245 228.098C34.1376 228.663 35.6168 228.412 38.438 226.67C43.2 223.729 43.6096 221.981 39.8451 220.67C36.0735 219.356 36.2397 219.346 32.5442 221.08ZM320.972 234.606C318.769 235 317.802 235.386 318.825 235.465C319.846 235.543 322.021 236.733 323.659 238.109C327.496 241.337 330.248 241.977 335.634 240.897L340 240.023L335.593 236.814C331.038 233.496 328.942 233.179 320.972 234.606ZM297.529 260.719L295.116 261.683L298.531 264.201C303.075 267.554 305.118 267.935 310.351 266.398L314.753 265.106L310.798 262.367C306.66 259.501 302.019 258.925 297.529 260.719ZM206.803 264.052C205.15 264.791 203.226 266.357 202.527 267.533C201.388 269.451 201.524 269.773 203.844 270.655C208.375 272.377 211.795 271.756 216.134 268.422L220.322 265.206L216.065 263.934C210.855 262.376 210.544 262.38 206.803 264.052ZM285.658 269.233C284.557 274.482 284.644 275.277 286.82 279.822L289.174 284.736L290.875 280.486C292.778 275.732 292.313 270.617 289.788 268.521C288.914 267.798 287.896 266.384 287.524 265.381C287.053 264.109 286.49 265.274 285.658 269.233ZM188.557 279.582C188.238 284.748 189.949 288.757 193.857 292.005L197.288 294.857V289.188C197.288 282.415 196.396 280.497 192.057 277.945L188.776 276.015L188.557 279.582ZM223.828 281.655C221.625 282.723 220.541 283.609 221.419 283.624C222.298 283.638 223.796 284.511 224.748 285.562C225.7 286.613 227.637 287.764 229.054 288.119C231.565 288.749 241.366 286.83 241.342 285.713C241.314 284.466 233.921 280.461 230.979 280.1C229.173 279.877 226.129 280.54 223.828 281.655Z" fill="black"/>
</svg>
