<svg width="340" height="445" viewBox="0 0 340 445" fill="none" xmlns="http://www.w3.org/2000/svg">
<path fill-rule="evenodd" clip-rule="evenodd" d="M127.226 4.91139C126.162 11.2855 126.558 14.0759 129.015 17.5185C131.686 21.2604 132.589 21.0673 133.974 16.455C135.344 11.8928 134.196 7.49965 130.434 2.91042L128.047 0L127.226 4.91139ZM147.343 8.14897C141.94 12.0639 141.25 13.1394 140.672 18.538L140.167 23.2503L142.8 21.8917C146.953 19.7496 149.12 16.7602 150.576 11.1604C151.318 8.30404 151.776 5.81883 151.595 5.63774C151.413 5.45566 149.5 6.58621 147.343 8.14897ZM112.458 20.579C114.862 24.604 117.677 27.6995 120.053 28.9301C123.012 30.4638 129.882 30.848 129.882 29.4814C129.882 27.6955 125.201 21.8046 122.831 20.608C119.458 18.9062 111.445 18.8832 112.458 20.579ZM148.179 31.3102C143.879 33.2572 141.503 36.8329 142.123 40.4227C142.395 41.9984 142.722 42.0165 146.134 40.6498C148.835 39.5673 150.407 38.0075 151.901 34.932C155.035 28.4719 154.848 28.2908 148.179 31.3102ZM132.66 33.4043C133.308 34.2677 134.51 36.5188 135.331 38.4067L136.824 41.8394L136.864 37.4802C136.894 34.1776 136.568 33.2492 135.521 33.6504C134.76 33.9415 133.541 33.6514 132.811 33.0071C131.731 32.0536 131.703 32.1276 132.66 33.4043ZM206.209 40.2976C200.249 44.4336 198.435 47.1369 197.201 53.7262L196.379 58.1193L199.844 56.6746C205.343 54.3835 206.828 53.1929 208.92 49.4C210.555 46.4366 212.958 36.1036 211.934 36.4387C211.763 36.4958 209.186 38.2316 206.209 40.2976ZM184.241 47.8693C183.028 50.3595 182.035 53.1419 182.035 54.0513C182.035 56.4855 184.314 62.3494 185.261 62.3494C186.627 62.3494 190.051 56.0013 190.055 53.461C190.06 50.4986 187.964 43.3401 187.091 43.3401C186.737 43.3401 185.454 45.3781 184.241 47.8693ZM137.139 56.0963C137.538 62.8676 138.421 66.7775 141.04 73.3547C147.137 88.6722 145.283 98.3279 133.453 112.874C130.319 116.726 126.317 122.229 124.556 125.102C122.797 127.975 121.081 130.338 120.745 130.354C120.408 130.369 119.887 127.998 119.585 125.084C118.965 119.094 112.407 101.27 110.413 100.157C109.694 99.7556 107.349 96.8251 105.201 93.6446C103.055 90.464 99.0884 85.6107 96.3875 82.8593C90.8281 77.1976 91.1862 78.5212 97.1327 85.6157C100.907 90.1199 101.643 93.1393 98.2891 90.363C97.4346 89.6556 96.4788 89.3345 96.1638 89.6476C95.8499 89.9618 97.3814 91.3455 99.5678 92.7221C105.194 96.2649 109.325 101.66 113.067 110.355C116.098 117.399 116.303 118.607 116.277 129.382C116.253 139.198 115.913 141.623 113.959 145.89C106.26 162.713 103.803 187.77 107.683 209.921C108.839 216.524 110.087 222.996 110.455 224.302C110.974 226.144 109.019 224.909 101.739 218.8C75.0367 196.387 67.8957 186.137 65.0212 166.101C64.5629 162.91 63.7375 160.434 63.1858 160.598C62.6342 160.762 62.3614 161.348 62.5791 161.898C62.7967 162.448 63.3172 165.225 63.7355 168.07C64.1527 170.914 64.8086 174.741 65.1917 176.574L65.8888 179.907L60.189 174.154C57.0548 170.99 54.0409 168.401 53.4923 168.401C52.9437 168.401 54.8263 170.99 57.6756 174.154C60.525 177.317 65.7404 184.249 69.2667 189.556C72.7921 194.863 77.8861 201.616 80.586 204.564L85.4955 209.921H75.3436C67.8987 209.921 63.6542 210.443 59.4248 211.879C56.2535 212.956 53.6578 214.194 53.6578 214.63C53.6578 215.832 55.8723 215.52 58.6726 213.923C60.0516 213.137 62.0254 212.477 63.0575 212.457C64.6963 212.427 64.7625 212.646 63.577 214.173C62.3032 215.814 62.3424 215.822 64.2058 214.303C72.427 207.606 87.5014 212.004 100.36 224.851C112.573 237.054 117.863 249.794 117.83 266.929C117.805 278.966 116.013 286.753 109.478 303.205C99.7674 327.65 97.0504 339.971 98.0855 354.866C98.8206 365.459 100.803 372.55 106.809 386.075C112.525 398.947 114.266 407.412 112.698 414.704C110.748 423.779 103.503 428.662 83.289 434.524C73.5654 437.344 56.2454 444.448 62.6844 442.976C64.0634 442.661 73.9585 440.607 84.673 438.414C95.3886 436.22 106.64 433.554 109.677 432.49C112.713 431.425 115.384 430.74 115.612 430.967C116.116 431.47 106.163 441.359 102.747 443.75C100.411 445.385 100.556 445.393 105.811 443.91C111.321 442.356 119.244 438.709 125.87 434.675C130.811 431.666 135.593 431.997 144.661 435.975C153.056 439.657 167.335 443.921 169.197 443.302C169.816 443.096 167.836 441.713 164.796 440.229C158.53 437.172 150.506 431.633 151.256 430.884C151.531 430.611 154.844 431.29 158.621 432.394C162.397 433.498 169.774 435.115 175.015 435.988C180.255 436.861 190.998 438.743 198.888 440.168C206.778 441.595 213.435 442.56 213.681 442.315C214.179 441.819 189.566 434.082 184.041 432.999C175.547 431.332 161.825 426.229 156.373 422.707C149.019 417.958 145.971 414.51 135.994 399.655C119.192 374.635 114.838 363.367 114.838 344.892C114.838 327.772 119.6 311.536 129.557 294.704C143.215 271.619 156.007 261.414 172.291 260.615C184.777 260.001 190.059 263.499 190.059 272.384C190.059 276.465 190.534 277.511 193.862 280.753C195.954 282.791 197.923 284.457 198.237 284.457C198.552 284.457 198.72 281.926 198.612 278.833C198.418 273.286 198.326 273.127 191.981 267.265C186.412 262.122 185.923 261.401 188.345 261.914C193.926 263.094 202.012 266.596 207.857 270.365C212.778 273.537 213.644 273.839 212.784 272.082C212.209 270.91 208.598 268.375 204.759 266.449C200.92 264.523 197.283 262.486 196.677 261.924C194.487 259.889 182.311 257.945 171.754 257.945C165.824 257.945 160.972 257.63 160.972 257.247C160.974 256.034 176.676 242.934 184.023 238.017C203.321 225.101 223.172 220.722 243.293 224.945C251.049 226.572 258.566 229.5 259.704 231.335C260.089 231.956 260.825 232.205 261.339 231.889C261.853 231.572 265.746 233.128 269.99 235.346C274.234 237.564 277.895 239.19 278.127 238.959C278.683 238.406 267.329 231.107 263.366 229.469C261.661 228.764 260.269 227.904 260.272 227.559C260.275 227.213 268.001 226.867 277.443 226.792C286.921 226.716 294.891 226.232 295.239 225.711C295.586 225.192 299.255 223.258 303.392 221.413C312.28 217.451 313.315 216.705 311.097 215.855C310.074 215.464 308.266 216.207 306.37 217.798C301.211 222.128 278.319 227.743 278.319 224.677C278.319 224.108 279.06 223.358 279.966 223.011C280.873 222.664 281.327 222.093 280.975 221.743C280.624 221.393 279.382 221.966 278.213 223.017C275.205 225.726 262.918 225.451 248.732 222.358C240.237 220.506 234.685 219.951 224.597 219.946L211.494 219.939L216.844 215.062C219.786 212.378 225.579 205.581 229.718 199.955C233.856 194.329 238.369 189.124 239.746 188.389C241.594 187.403 241.917 186.828 240.978 186.201C239.219 185.023 258.474 166.581 264.356 163.811C266.795 162.661 269.919 161.197 271.298 160.556C273.624 159.477 273.552 159.436 270.295 159.996L266.785 160.6L272.701 155.246C275.955 152.301 279.565 149.345 280.725 148.676C281.884 148.008 282.245 147.446 281.527 147.426C280.695 147.404 281.148 146.18 282.781 144.045C285.499 140.489 285.892 139.387 284.441 139.387C283.947 139.387 282.071 141.674 280.272 144.469C276.213 150.779 250.776 172.383 252.691 167.893C253.159 166.797 254.348 162.973 255.333 159.397C256.318 155.82 257.432 151.881 257.809 150.642C258.185 149.404 258.102 148.395 257.625 148.399C256.307 148.411 254.248 153.428 254.248 156.624C254.248 162.083 249.25 171.637 242.847 178.419C239.464 182.003 233.034 189.671 228.559 195.461C224.084 201.25 217.991 208.173 215.019 210.845C208.954 216.299 195.969 225.656 195.34 225.028C194.678 224.367 200.015 216.424 201.121 216.424C203.35 216.424 205.384 209.772 204.649 204.884L203.933 200.117L200.255 203.786C196.909 207.125 196.57 207.972 196.493 213.191C196.447 216.344 196.333 219.487 196.242 220.173C195.921 222.587 188.788 229.437 183.381 232.522C171.106 239.529 152.982 254.471 136.047 271.546L127.876 279.785L127.824 268.365C127.769 256.166 126.998 252.443 119.348 227.43C116.202 217.141 115.507 213.328 115.432 205.919C115.351 198.128 115.701 196.143 118.027 191.194C121.556 183.684 128.603 176.295 135.613 172.753C138.717 171.184 141.97 169.302 142.841 168.57C144.533 167.147 154.723 160.157 161.694 155.637C164.021 154.128 165.939 152.369 165.956 151.728C165.974 151.087 168.019 148.778 170.501 146.599C172.984 144.419 175.015 142.06 175.015 141.357C175.015 140.454 174.473 140.565 173.18 141.733C172.171 142.643 170.817 143.389 170.172 143.389C169.526 143.389 168.997 143.838 168.997 144.386C168.997 147.142 153.981 160.397 150.86 160.397C149.833 160.397 149.808 160.13 150.743 159.197C151.405 158.536 151.947 157.568 151.947 157.045C151.947 156.522 150.641 157.893 149.045 160.09C146.949 162.976 143.667 165.362 137.222 168.682C126.878 174.012 119.891 179.78 116.231 186.009C114.809 188.431 113.167 190.412 112.583 190.412C110.929 190.412 112.462 168.196 114.759 158.896C120.862 134.176 136.625 109.462 156.773 93.0173C164.325 86.8543 170.278 83.8188 176.875 82.7663C179.236 82.3901 180.774 81.7008 180.302 81.2305C179.831 80.7603 178.003 80.7903 176.228 81.2986C174.457 81.8048 173.009 81.9039 173.009 81.5177C173.009 81.1315 176.093 78.4172 179.863 75.4847C183.633 72.5533 188.687 67.836 191.095 65.0016L195.472 59.8481L189.7 65.2107C186.526 68.1602 183.685 70.3312 183.388 70.0361C183.093 69.74 181.446 71.0926 179.731 73.0416C178.015 74.9905 172.077 79.6548 166.536 83.4066C160.995 87.1584 153.775 92.391 150.494 95.0363C146.542 98.2218 144.805 99.1733 145.348 97.8546C148.737 89.6316 148.577 88.422 141.495 68.8525C139.681 63.8391 138.953 59.7881 138.935 54.5956C138.918 49.8533 138.513 47.342 137.766 47.342C136.96 47.342 136.775 49.9153 137.139 56.0963ZM70.9497 57.3689C73.0398 63.8081 76.2553 67.0827 82.5498 69.1827C85.4955 70.1652 85.8144 70.0961 85.3962 68.5704C85.1364 67.6249 84.654 65.2418 84.323 63.2748C83.6199 59.0938 79.8629 55.2019 74.3467 52.9378C72.2104 52.0613 70.1323 51.344 69.7281 51.344C69.3239 51.344 69.8735 54.0553 70.9497 57.3689ZM95.185 63.733C93.5181 69.0096 93.5291 69.2127 95.7245 73.7379C96.9582 76.2781 98.3402 78.3571 98.7966 78.3571C99.2539 78.3571 100.39 76.3652 101.323 73.929C102.99 69.5739 102.976 69.4118 100.458 63.9241C99.0503 60.8576 97.6713 58.3474 97.3924 58.3474C97.1146 58.3474 96.1217 60.7706 95.185 63.733ZM198.602 64.5144L195.843 66.6795L199.22 68.4743C203.649 70.8295 205.701 70.7364 211.07 67.9351L215.531 65.6079L212.373 63.9781C207.877 61.659 201.947 61.8901 198.602 64.5144ZM152.247 66.6014C148.117 71.1256 146.842 76.7284 148.809 81.7168C149.462 83.3736 149.893 83.1785 152.75 79.9319C155.593 76.7023 155.959 75.6058 155.959 70.3182C155.959 67.0356 155.586 64.3503 155.13 64.3503C154.675 64.3503 153.377 65.3638 152.247 66.6014ZM113.569 75.2586C110.278 79.1605 109.382 82.258 110.159 87.0394C110.947 91.8837 111.333 92.0428 114.237 88.7272C117.368 85.1525 118.077 82.092 117.087 76.4322L116.313 72.0061L113.569 75.2586ZM190.165 79.8619C186.79 81.3696 186.777 81.4006 188.659 83.4746C192.246 87.4296 195.832 88.5871 202.21 87.8488C205.456 87.4726 208.104 86.8713 208.094 86.5131C208.084 86.1539 206.275 84.3691 204.073 82.5452C199.346 78.6293 194.858 77.7639 190.165 79.8619ZM71.2094 80.8654C69.0029 81.6708 67.0853 82.3361 66.9469 82.3441C66.8085 82.3521 66.6962 82.7293 66.6962 83.1825C66.6962 83.6347 68.7111 85.0094 71.1733 86.236C78.5631 89.9178 87.3168 87.0994 82.4806 82.5962C79.3534 79.6848 75.8992 79.1545 71.2094 80.8654ZM83.7463 90.0669C81.8317 90.7612 76.7257 95.4785 76.7257 96.553C76.7257 97.0002 78.9753 97.3664 81.7244 97.3664C85.8355 97.3664 87.3058 96.8461 89.9987 94.44L93.2743 91.5136L90.451 90.438C87.4171 89.2825 86.1063 89.2094 83.7463 90.0669ZM168.644 118.896C166.487 125.213 166.556 126.836 169.18 131.493L171.368 135.378L173.185 132.631C175.624 128.942 175.415 123.815 172.611 118.468L170.298 114.056L168.644 118.896ZM257.257 115.559C257.257 116.212 256.3 118.717 255.13 121.127C252.754 126.021 252.976 130.519 255.804 134.825L257.514 137.427L259.892 134.21C262.744 130.355 262.952 125.746 260.573 119.127C258.982 114.697 257.257 112.842 257.257 115.559ZM189.265 117.557C184.537 119.843 182.035 123.595 182.035 128.4C182.035 131.159 182.295 131.443 184.292 130.868C189.622 129.332 193.408 124.879 195.547 117.626C196.383 114.796 195.005 114.781 189.265 117.557ZM285.428 123.436C283.703 126.496 283.294 128.361 283.781 130.946C284.136 132.837 284.833 134.384 285.328 134.384C287.182 134.384 289.35 129.798 289.336 125.907C289.312 119.553 288.06 118.763 285.428 123.436ZM300.885 121.228C296.459 122.664 293.761 125.509 292.426 130.151L291.574 133.116L295.419 132.142C299.865 131.017 301.701 129.268 303.869 124.092C305.512 120.173 305.165 119.839 300.885 121.228ZM64.941 129.228C62.8649 132.282 61.6814 135.244 61.6814 137.385C61.6814 140.946 63.6492 147.391 64.7364 147.391C65.959 147.391 68.6288 143.808 70.1995 140.059C71.5424 136.853 71.5916 135.43 70.5385 130.341C69.8595 127.062 69.0551 124.392 68.7522 124.406C68.4483 124.42 66.7333 126.59 64.941 129.228ZM22.6556 133.939C23.5673 140.643 25.2463 143.408 30.1657 146.303L33.8907 148.495L33.328 143.063C33.0191 140.075 32.2378 136.788 31.5929 135.757C30.5418 134.077 23.3828 128.382 22.3237 128.382C22.09 128.382 22.2394 130.883 22.6556 133.939ZM150.456 136.007C148.486 140.712 148.594 144.087 150.85 148.313L152.678 151.736L154.251 149.314C157.051 144.999 157.267 141.863 155.098 136.975C153.979 134.449 152.817 132.383 152.519 132.383C152.219 132.383 151.291 134.014 150.456 136.007ZM188.295 136.082C185.955 137.595 184.041 139.146 184.041 139.528C184.041 140.866 192.871 143.586 195.014 142.908C196.191 142.534 199.015 141.176 201.288 139.887L205.422 137.546L201.896 136.076C194.854 133.141 192.841 133.142 188.295 136.082ZM243.775 138.607C245.113 143.668 247.693 146.748 251.407 147.722C252.814 148.091 252.992 147.579 252.522 144.524C252.215 142.524 251.546 140.075 251.035 139.083C250.174 137.408 244.553 133.396 243.056 133.388C242.692 133.386 243.016 135.735 243.775 138.607ZM266.613 134.843C263.145 136.347 262.016 137.954 260.469 143.588C259.483 147.178 259.517 147.257 261.614 146.184C262.803 145.576 264.43 144.776 265.23 144.406C267.282 143.458 269.987 139.38 270.717 136.135C271.417 133.024 271.062 132.912 266.613 134.843ZM50.7804 146.064C51.7322 151.146 53.6438 153.818 57.8953 156.012L60.6343 157.424L60.0887 154.158C59.7888 152.362 59.3415 149.892 59.0958 148.669C58.7107 146.754 52.4081 141.388 50.5457 141.388C50.1936 141.388 50.2989 143.492 50.7804 146.064ZM290.053 145.249L287.246 147.096L289.552 148.579C293.408 151.061 296.308 151.32 300.957 149.602C303.4 148.698 305.398 147.69 305.398 147.361C305.398 146.245 298.328 143.389 295.585 143.396C294.087 143.399 291.598 144.233 290.053 145.249ZM73.9966 148.965C69.8595 150.77 67.4755 154.422 67.8806 158.33L68.2006 161.407L71.7099 159.652C75.2022 157.904 76.9012 155.387 78.1268 150.142C78.8479 147.057 78.557 146.974 73.9966 148.965ZM9.52802 150.796C7.59735 151.523 4.66372 152.668 3.00885 153.342L0 154.565L4.51327 156.935C10.1509 159.897 15.975 160.043 20.4271 157.336L23.805 155.282L20.4832 152.836C18.6569 151.492 16.8355 150.392 16.4363 150.392C16.0362 150.392 15.1084 150.186 14.3743 149.934C13.6391 149.682 11.4587 150.07 9.52802 150.796ZM34.6018 151.295C34.6018 151.52 35.6649 153.098 36.9647 154.8C38.2645 156.503 39.6456 158.9 40.0347 160.127C40.466 161.489 42.5391 163.151 45.3494 164.391C47.8828 165.51 50.0372 166.306 50.1375 166.162C50.2368 166.018 46.7816 162.521 42.4599 158.393C38.1382 154.264 34.6018 151.07 34.6018 151.295ZM176.268 152.055C174.163 152.902 174.858 155.085 178.101 157.807C180.403 159.739 182.313 160.397 185.623 160.397C188.063 160.397 190.059 160.035 190.059 159.592C190.059 159.149 188.532 157.124 186.664 155.09C183.376 151.51 180.043 150.536 176.268 152.055ZM283.584 157.616C280.75 158.979 280.745 159.876 283.557 161.841C285.934 163.502 289.171 163.785 294.24 162.773C298.242 161.975 298.19 161.063 293.997 158.478C290.307 156.203 287.076 155.936 283.584 157.616ZM23.7509 163.744C21.7229 164.877 16.0301 173.22 16.7763 173.965C16.9278 174.116 19.2737 173.825 21.9897 173.318C27.3765 172.315 29.587 170.762 32.3983 166.009L34.2387 162.898L30.1577 162.67C27.9131 162.545 25.0296 163.028 23.7509 163.744ZM149.28 170.17C147.882 171.057 150.359 174.486 153.678 176.258C156.119 177.561 163.982 177.824 163.982 176.601C163.982 176.159 162.494 174.358 160.675 172.599C157.386 169.418 152.204 168.314 149.28 170.17ZM248.413 182.908C246.774 184.284 244.821 185.437 244.074 185.472C243.326 185.507 245.324 186.391 248.513 187.436C254.691 189.462 256.16 189.263 262.242 185.573L265.568 183.555L261.792 181.981C256.27 179.679 251.898 179.983 248.413 182.908ZM328.103 192.32C323.607 195.504 322.36 197.429 321.399 202.669C320.75 206.211 320.848 206.428 322.828 205.841C326.464 204.764 329.371 202.512 330.811 199.657C332.394 196.521 333.698 189.37 332.665 189.493C332.286 189.538 330.233 190.81 328.103 192.32ZM312.086 195.798C309.559 199.644 309.09 203.479 310.687 207.24L312.096 210.562L313.717 208.094C316.235 204.26 316.628 201.252 315.161 197.044L313.811 193.172L312.086 195.798ZM42.6254 200.671C42.6254 202.602 46.9671 207.595 49.4745 208.546C50.9047 209.088 53.1142 209.272 54.385 208.954C56.5934 208.4 56.6286 208.247 55.1833 205.46C54.3519 203.856 53.1212 202.204 52.4483 201.789C50.4193 200.539 42.6254 199.651 42.6254 200.671ZM287.345 206.035C283.389 208.733 281.44 212.375 281.373 217.195L281.327 220.467L285.196 218.498C289.61 216.252 291.648 212.386 291.174 207.16L290.855 203.641L287.345 206.035ZM35.02 213.708C32.286 215.298 27.5811 219.083 27.5811 219.691C27.5811 219.954 29.7946 220.461 32.5006 220.82C38.1021 221.561 41.83 220.285 44.0827 216.857C45.4918 214.711 45.4086 214.54 42.4418 213.509C38.5614 212.159 37.6407 212.184 35.02 213.708ZM322.891 215.875C320.989 217.293 321.001 217.367 323.434 219.127C327.16 221.821 329.458 222.189 334.985 220.979L340 219.881L336.006 217.153C331.529 214.093 326.003 213.555 322.891 215.875ZM50.5206 218.175C49.2739 219.762 49.309 219.797 50.8997 218.553C52.5706 217.246 53.1012 216.424 52.2758 216.424C52.0681 216.424 51.2778 217.212 50.5206 218.175ZM58.0076 219.998C55.7189 222.281 55.4782 223.186 55.8783 228.001C56.4089 234.382 57.1561 235.492 59.151 232.859C62.0966 228.971 63.4276 224.878 62.9491 221.177C62.3775 216.749 61.4798 216.534 58.0076 219.998ZM44.2241 221.801C38.8503 224.768 36.381 228.43 35.5546 234.657C35.1694 237.561 34.9729 240.074 35.1193 240.243C35.2647 240.412 37.4592 239.09 39.9956 237.308C43.2191 235.041 45.0405 232.841 46.0504 229.997C47.3613 226.305 48.9179 219.273 48.3673 219.532C48.2429 219.591 46.3784 220.611 44.2241 221.801ZM299.882 229.431C302.332 231.982 303.517 232.432 307.779 232.432H312.794L309.911 229.431C307.461 226.879 306.277 226.429 302.014 226.429H297L299.882 229.431ZM262.908 239.513C261.833 244.874 262.181 247.327 264.528 250.943C265.77 252.854 267.105 254.424 267.497 254.431C267.888 254.437 268.742 252.665 269.395 250.493C270.77 245.913 269.621 242.033 265.836 238.486L263.544 236.338L262.908 239.513ZM282.033 242.85C283.62 244.977 288.996 247.126 290.065 246.061C290.426 245.7 281.617 240.436 280.652 240.436C280.421 240.436 281.042 241.523 282.033 242.85ZM299.974 245.246L296.056 247.002L298.47 248.578C302.578 251.256 305.355 251.675 309.982 250.312C312.426 249.593 314.425 248.692 314.425 248.311C314.425 247.534 306.288 243.423 304.831 243.464C304.315 243.479 302.131 244.28 299.974 245.246ZM287.348 253.935C285.789 258.027 286.151 261.935 288.348 264.721C289.451 266.12 290.354 267.756 290.354 268.358C290.354 270.779 292.15 269.245 292.736 266.324C293.903 260.5 293.402 257.279 290.858 254.264L288.354 251.295L287.348 253.935ZM208.614 253.398C206 254.474 201.565 259.25 202.402 260.087C202.76 260.443 205.207 260.927 207.839 261.162C212.082 261.54 213.064 261.222 216.486 258.362C219.302 256.007 219.981 254.94 218.993 254.417C216.571 253.132 210.668 252.553 208.614 253.398ZM298.127 254.515C299.368 255.922 300.383 257.991 300.383 259.112C300.383 262.507 304.639 267.51 309.235 269.522L313.574 271.421L312.876 268.185C311.384 261.273 309.117 258.479 303.458 256.577C301.563 255.94 299.081 254.639 297.941 253.688C296.187 252.221 296.215 252.347 298.127 254.515ZM226.917 270.022C223.485 271.88 223.461 272.766 226.784 274.938C229.977 277.025 234.538 277.134 239.204 275.235L242.69 273.815L238.1 271.133C232.904 268.096 230.855 267.891 226.917 270.022ZM218.186 283.248C218.77 287.091 219.665 288.572 223.283 291.689L227.67 295.469L227.978 292.024C228.403 287.262 225.832 282.839 221.299 280.531L217.477 278.586L218.186 283.248Z" fill="black"/>
</svg>
