<svg width="340" height="451" viewBox="0 0 340 451" fill="none" xmlns="http://www.w3.org/2000/svg">
<path fill-rule="evenodd" clip-rule="evenodd" d="M141.022 4.9918C139.729 10.5479 140.499 14.2289 143.882 18.6614L145.841 21.2278L146.83 18.5493C148.465 14.1179 147.978 8.18157 145.633 3.95021C144.431 1.782 143.164 0.00401057 142.817 8.33668e-06C142.47 -0.00499446 141.662 2.24226 141.022 4.9918ZM159.236 8.56279C154.723 11.9377 154.238 12.8862 153.295 20.1753L152.82 23.8483L156.212 21.7872C160.549 19.1497 162.159 16.5582 163.271 10.4298C163.763 7.71631 164.087 5.41603 163.991 5.31698C163.896 5.21792 161.755 6.67874 159.236 8.56279ZM128.005 23.5571C132.37 29.0452 133.966 30.0087 138.696 30.0087C140.727 30.0087 143.214 30.7762 144.343 31.7527C146.2 33.3556 146.191 33.2956 144.242 31.0023C143.076 29.6305 141.666 27.2702 141.11 25.7564C139.657 21.8052 134.67 19.0106 129.061 19.0066L124.383 19.0026L128.005 23.5571ZM162.593 31.5126C158.281 33.0284 155.606 35.9901 154.664 40.2925C153.899 43.7894 153.937 43.8525 156.256 42.944C161.223 40.9979 162.567 39.7382 164.414 35.2997C165.461 32.7843 166.196 30.6511 166.049 30.5591C165.903 30.467 164.347 30.8962 162.593 31.5126ZM147.833 33.3196C147.824 34.3612 147.372 34.8454 146.767 34.4602C146.189 34.092 146.466 35.2857 147.382 37.1117C148.572 39.482 149.256 44.3157 149.771 53.9811C150.355 64.9512 151.009 69.0535 153.208 75.5341C158.712 91.7552 156.763 101.579 145.2 115.902C141.801 120.114 137.361 126.101 135.337 129.207L131.654 134.852L130.41 127.216C129.724 123.017 127.899 116.299 126.354 112.29C124.808 108.279 123.48 103.097 123.405 100.772L123.267 96.5459L122.676 100.515L122.086 104.485L117.74 97.5134C115.35 93.6793 111.979 88.9666 110.251 87.0406C108.523 85.1145 106.404 82.6381 105.542 81.5375C103.038 78.3347 105.158 82.1869 108.021 86.04C109.452 87.9661 111.41 90.8057 112.375 92.3495L114.126 95.1561L110.337 92.9328C107.124 91.0458 106.844 90.9998 108.491 92.6267C109.56 93.6813 112.071 95.6704 114.072 97.0461C118.219 99.8977 123.34 109.08 126.066 118.558C128.698 127.704 128.345 140.645 125.205 150.149C121.963 159.96 119.111 171.749 117.794 180.785C116.607 188.926 116.522 220.525 117.662 229.62C118.076 232.922 118.257 235.811 118.067 236.039C117.876 236.268 114.763 233.566 111.15 230.035C107.538 226.505 100.955 220.726 96.5216 217.193C80.4015 204.346 68.7947 187.764 67.4741 175.696C67.1974 173.162 66.5895 171.087 66.1253 171.087C65.6602 171.087 65.2805 169.989 65.2805 168.645C65.2805 167.301 64.8436 165.925 64.3095 165.584C63.0151 164.76 62.9918 164.607 65.7447 175.206C67.0682 180.303 67.9324 184.697 67.6644 184.973C67.3974 185.249 65.1126 183.45 62.5879 180.976C55.5722 174.1 53.5204 173.042 59.0397 179.146C65.0184 185.759 70.6863 192.993 74.8578 199.333C76.5698 201.937 80.4199 206.792 83.4136 210.123L88.8562 216.181L84.5934 215.396C74.7481 213.584 58.528 215.942 55.5693 219.616C54.8138 220.553 55.9955 220.377 59.4039 219.042C67.3372 215.935 68.3092 216.566 63.2006 221.505C57.8929 226.636 57.087 228.725 58.0036 234.972L58.6863 239.626L62.0723 235.623C65.1339 232.004 65.4175 231.167 65.0281 226.88C64.527 221.373 65.7816 218.971 70.1299 217.116C77.7496 213.863 93.2832 219.953 103.726 230.283C111.814 238.288 116.045 244.951 119.255 254.743C121.427 261.367 121.836 264.33 121.8 273.144C121.75 285.403 120.337 291.469 113.021 310.835C105.379 331.062 103.055 340.167 102.463 352.189C101.811 365.426 103.694 376.302 108.577 387.515C114.658 401.481 116.694 408.289 116.72 414.761C116.77 426.773 110.332 433.731 94.897 438.343C85.0275 441.291 74.8666 444.927 70.0066 447.249C65.2776 449.507 66.0661 449.438 79.846 446.389C84.9197 445.267 93.8716 443.397 99.7396 442.235C105.608 441.072 112.339 439.241 114.698 438.166C117.057 437.091 119.144 436.372 119.335 436.569C120.027 437.282 111.748 446.168 108.412 448.292C106.53 449.491 105.166 450.651 105.379 450.873C106.336 451.857 118.823 446.931 124.825 443.201C134.236 437.353 135.936 437.272 147.011 442.148C155.798 446.017 171.82 450.86 172.73 449.922C172.958 449.686 171.289 448.727 169.02 447.792C164.055 445.746 152.673 438.172 152.673 436.917C152.673 436.425 153.439 436.341 154.373 436.733C159.39 438.835 169.809 441.397 178.857 442.754C184.483 443.598 194.616 445.404 201.375 446.765C208.132 448.128 214.249 449.214 214.969 449.178C216.876 449.083 197.458 442.652 186.357 439.701C166.078 434.312 156.783 429.659 149.337 421.166C143.803 414.854 129.664 392.138 125.308 382.557C120.021 370.932 118.375 362.226 119.001 349.187C120.114 325.975 129.602 303.552 147.333 282.227C154.01 274.198 161.244 269.788 170.699 267.982C178.435 266.505 184.555 267.517 188.501 270.929C191.301 273.351 191.663 274.265 191.846 279.377C192.037 284.691 192.351 285.405 196.153 289.169L200.254 293.23V287.112C200.254 281.768 199.915 280.647 197.574 278.234C196.101 276.715 194.462 275.285 193.933 275.055C193.404 274.826 191.879 273.338 190.544 271.747L188.116 268.854L191.515 269.494C202.285 271.522 218.704 283.701 218.704 289.664C218.704 293.898 221.123 298.534 224.872 301.48L228.414 304.264L228.41 299.96C228.406 295.358 225.459 289.153 223.277 289.153C222.572 289.153 219.847 286.845 217.224 284.022L212.452 278.893L215.821 279.515C218.452 280.001 218.127 279.73 214.334 278.276C208.303 275.964 197.308 269.196 199.283 269.011C200.084 268.936 198.773 268.548 196.37 268.148C193.967 267.748 189.16 266.627 185.689 265.656C181.081 264.367 177.345 264.034 171.851 264.422C167.713 264.713 164.355 264.656 164.391 264.294C164.518 263.005 178.355 251.608 187.157 245.545C202.451 235.008 217.593 230.32 232.764 231.422C248.029 232.533 259.226 236.787 262.615 242.765C264.168 245.508 264.246 246.471 263.229 250.388C262.139 254.589 262.237 255.171 264.785 259.653L267.505 264.434L268.836 261.17C270.78 256.407 270.473 252.663 267.878 249.458C265.794 246.887 262.4 240.883 262.4 239.772C262.4 239.098 273.044 245.101 276.966 247.986C278.835 249.361 281.602 251.87 283.116 253.56C284.63 255.251 285.587 256.073 285.244 255.384C284.506 253.907 286.286 253.675 287.161 255.134C287.492 255.685 288.459 256.135 289.311 256.135C290.164 256.135 288.281 254.416 285.127 252.316C281.973 250.215 276.717 246.466 273.446 243.984C270.175 241.503 266.133 238.889 264.463 238.177C262.794 237.464 261.43 236.598 261.43 236.253C261.431 235.907 269.312 235.653 278.944 235.691L296.457 235.758L299.242 238.899C302.242 242.283 305.263 243.476 309.519 242.956L312.205 242.627L309.247 239.376C306.909 236.806 305.504 236.121 302.551 236.11C300.496 236.103 297.771 235.809 296.497 235.457C294.508 234.909 295.06 234.468 300.381 232.35C303.791 230.991 308.985 229.59 311.923 229.236C316.906 228.635 317.052 228.544 314.108 227.88C312.371 227.489 310.952 226.781 310.952 226.306C310.952 225.832 313.136 223.132 315.807 220.308C319.731 216.158 320.662 214.51 320.662 211.722C320.662 205.431 319.844 204.856 316.49 208.792C313.984 211.734 313.485 213.115 313.636 216.688C313.779 220.099 313.264 221.699 311.205 224.219C306.877 229.519 295.938 233.539 283.492 234.403L277.881 234.792L280.579 231.886C282.063 230.288 284.712 228.278 286.467 227.419C290.287 225.549 291.358 223.698 292.176 217.55L292.793 212.904L289.975 214.406C285.499 216.791 283.394 219.882 282.83 224.893C282.392 228.784 281.764 229.923 279.007 231.835C274.509 234.953 269.686 234.794 252.129 230.949C240.396 228.378 235.402 227.775 225.883 227.777L214.129 227.781L220.352 221.782C223.775 218.482 229.576 211.67 233.243 206.643C237.144 201.294 241.322 196.721 243.314 195.614C246.626 193.777 246.865 193.775 251.914 195.544L257.109 197.363L262.424 194.571L267.741 191.777L263.857 189.963C258.5 187.462 254.37 187.618 251.065 190.446C249.555 191.738 247.083 193.107 245.571 193.487L242.822 194.179L245.571 190.458C249.799 184.736 262.299 174.101 268.013 171.367C270.833 170.016 275.203 168.518 277.723 168.038C281.794 167.261 281.603 167.224 276.026 167.7L269.745 168.235L276.349 162.657C279.981 159.589 283.463 157.073 284.086 157.065C284.945 157.053 284.945 156.869 284.081 156.303C282.362 155.176 295.462 141.071 298.229 141.071C301.704 141.071 304.006 139.29 306.161 134.937C307.269 132.701 307.995 130.687 307.775 130.461C307.557 130.236 306.003 130.334 304.323 130.68C300.897 131.386 296.399 135.496 296.362 137.955C296.335 139.746 288.723 148.517 287.917 147.685C287.637 147.397 288.772 145.038 290.441 142.443C293.426 137.799 293.927 134.957 292.614 130.108L291.949 127.65L289.784 130.783C288.13 133.175 287.562 135.552 287.382 140.835C287.162 147.219 286.834 148.177 283.137 153.222C279.676 157.946 265.994 169.755 257.177 175.628L254.381 177.49L255.885 174.494C256.712 172.846 258.088 168.719 258.941 165.322C259.796 161.924 260.745 158.342 261.052 157.362C261.431 156.152 260.964 156.382 259.599 158.08C258.493 159.456 257.578 161.803 257.566 163.295C257.518 169.421 253.484 177.456 246.873 184.595C243.307 188.447 237.088 195.876 233.055 201.104C229.022 206.332 223.16 213.163 220.028 216.284C214.593 221.699 200.815 232.122 199.091 232.122C198.64 232.122 199.165 230.321 200.254 228.119C201.343 225.918 202.647 224.117 203.149 224.117C203.652 224.117 204.954 223.131 206.042 221.927C207.624 220.177 208.017 218.419 207.998 213.172L207.974 206.607L204.114 210.821C200.514 214.75 200.254 215.432 200.254 220.926C200.254 229.05 197.17 233.277 186.572 239.679C172.423 248.225 156.194 261.535 139.807 278.029L132.282 285.604L132.269 274.622C132.257 263.567 131.463 258.524 125.903 234.123C122.535 219.339 122.301 207.013 125.242 199.323C128.116 191.809 133.799 184.572 140.403 180.017C145.16 176.738 146.908 176.09 151.016 176.09C155.396 176.09 156.274 176.473 159.047 179.592C161.754 182.637 162.753 183.094 166.696 183.094H171.233L169.479 180.003C167.086 175.789 165.749 175.231 158.159 175.276C154.55 175.298 151.412 175.125 151.187 174.892C150.961 174.658 155.567 171.223 161.423 167.257C169.107 162.054 173.272 159.877 176.379 159.438C180.46 158.862 180.882 159.042 184.401 162.855C187.479 166.191 188.907 166.963 192.729 167.36C195.266 167.625 197.341 167.662 197.341 167.442C197.341 167.224 196.268 165.293 194.956 163.152C192.257 158.747 190.583 158.196 180.591 158.428C176.986 158.512 174.036 158.273 174.036 157.897C174.036 156.959 181.635 150.701 185.203 148.701L188.116 147.068L185.203 147.705C183.601 148.057 181.451 149.071 180.426 149.96C178.676 151.479 178.607 151.455 179.295 149.575C179.698 148.475 180.283 145.998 180.594 144.072C180.907 142.146 181.961 139.22 182.937 137.569C185.244 133.665 185.178 131.038 182.619 124.908L180.52 119.881L178.735 124.723C176.614 130.479 176.528 133.685 178.406 137.068C182.828 145.039 176.412 156.218 162.533 164.726L158.313 167.313L159.494 164.948C160.309 163.316 159.643 163.72 157.343 166.254C155.404 168.392 150.51 171.64 145.632 174.028C136.539 178.48 128.019 185.692 124.976 191.513C123.944 193.486 122.804 195.101 122.442 195.101C121.678 195.101 122.22 186.009 123.659 174.684C126.745 150.399 138.251 126.989 156.318 108.237C170.073 93.9594 179.202 88.5324 192 87.0216L198.797 86.2201L191.788 86.3802C186.501 86.5013 185.069 86.2601 185.961 85.3996C187.251 84.157 199.511 75.5161 200.872 74.8908C201.333 74.6797 203.24 72.7456 205.109 70.5944L208.508 66.6832L203.405 71.0196C198.155 75.4811 196.332 75.8433 198.312 72.0322C198.932 70.8375 199.245 69.6589 199.007 69.4127C198.768 69.1676 198.049 70.2722 197.407 71.8691C195.607 76.3466 191.076 80.2057 178.489 87.9851C172.127 91.9183 164.742 96.9231 162.079 99.1083C159.415 101.294 157.079 102.919 156.887 102.721C156.694 102.523 157.13 100.602 157.856 98.4529C159.865 92.5006 160.708 88.2262 159.515 90.0422C158.733 91.2339 158.526 90.9788 158.514 88.8066C158.506 87.3017 156.963 81.3394 155.086 75.5572C151.601 64.8242 150.387 54.2973 152.025 49.0194C152.521 47.4205 152.477 46.9972 151.905 47.8457C150.914 49.3165 149.801 44.2287 149.756 38.0132C149.742 36.0871 149.307 33.8359 148.789 33.0104C147.991 31.7377 147.845 31.7847 147.833 33.3196ZM222.588 46.547C215.296 51.6088 213.883 53.1787 212.877 57.331C212.319 59.6383 211.425 62.3248 210.891 63.3003C210.074 64.7921 210.193 64.9362 211.641 64.2078C212.588 63.7326 215.422 62.3178 217.939 61.0641C222.633 58.7278 223.076 58.0014 226.35 47.2684C227.51 43.4643 227.132 43.3922 222.588 46.547ZM200.935 51.897C198.326 55.9602 197.627 60.7949 198.93 65.7997C199.41 67.6487 199.782 67.8489 200.922 66.8733C204.551 63.7706 206.271 54.9196 204.265 49.6667C203.656 48.0718 203.191 48.383 200.935 51.897ZM83.2563 53.783C83.6398 54.7395 84.272 56.8847 84.6614 58.5487C86.1004 64.7031 89.2068 68.3241 95.5952 71.2928L99.2065 72.9707L98.6607 69.7499C97.0702 60.3537 95.1029 57.6592 87.2715 54.1522C83.032 52.2542 82.629 52.2171 83.2563 53.783ZM108.159 64.8942C106.545 70.4493 106.771 74.0753 108.966 77.7854C110.025 79.5734 111.105 81.0372 111.366 81.0372C112.352 81.0372 114.803 75.0289 114.803 72.6085C114.803 69.9991 111.011 61.026 109.908 61.026C109.565 61.026 108.778 62.767 108.159 64.8942ZM164.202 70.7025C160.102 75.25 159.247 77.7274 159.953 83.0133L160.594 87.817L163.902 84.4081C167.844 80.3478 168.751 77.2771 167.605 71.8801L166.753 67.8719L164.202 70.7025ZM214.334 69.6529C212.732 70.5384 210.328 71.622 208.993 72.0612L206.566 72.8607L208.993 72.9787C210.328 73.0438 212.27 73.7572 213.306 74.5656C215.854 76.5507 220.511 76.4146 224.875 74.2274L228.48 72.4204L224.213 70.2252C219.127 67.6077 218.137 67.5507 214.334 69.6529ZM125.845 78.2096C121.592 83.0163 120.627 87.2747 122.59 92.5927L123.578 95.2732L126.474 91.5201C129.404 87.7209 130.032 83.6747 128.539 78.2096L127.904 75.8823L125.845 78.2096ZM82.5164 83.3415C80.5141 83.9188 78.8866 84.6502 78.9012 84.9654C78.9575 86.1671 87.7124 90.0402 90.2739 89.9972C91.748 89.9722 94.2231 89.3939 95.7719 88.7125L98.5899 87.4738L95.4554 84.7553C92.0801 81.8297 88.9446 81.4865 82.5164 83.3415ZM201.565 86.2161L199.478 87.2567L201.565 89.7451C205.118 93.9814 208.528 95.2491 214.354 94.4987L219.577 93.8264L217.44 90.8367C213.654 85.5347 206.882 83.5646 201.565 86.2161ZM92.8491 95.2752C89.2971 98.489 89.2903 98.511 91.6013 99.1773C95.8923 100.416 97.8849 100.063 101.955 97.3433L106.004 94.6378L103.009 93.3411C98.518 91.395 96.7701 91.7272 92.8491 95.2752ZM262.104 124.818C258.389 131.019 257.937 134.218 259.993 139.765L261.72 144.426L263.969 141.731C267.494 137.509 268.413 132.48 266.806 126.201C266.052 123.26 265.299 120.721 265.132 120.561C264.965 120.401 263.602 122.316 262.104 124.818ZM200.323 124.118C195.162 126.109 191.828 129.828 190.968 134.553C190.619 136.466 188.58 140.179 186.437 142.804L182.539 147.574L186.784 143.076C189.363 140.343 192.744 137.986 195.399 137.072C199.24 135.75 200.103 134.878 202.536 129.865C204.059 126.729 205.151 123.779 204.964 123.31C204.777 122.842 202.688 123.205 200.323 124.118ZM63.053 133.595C59.901 140.215 59.7593 143.807 62.4364 149.213L64.4464 153.275L66.7546 150.051C70.1046 145.372 70.5474 141.853 68.6092 135.292C67.679 132.142 66.639 129.229 66.2992 128.82C65.9583 128.41 64.4979 130.559 63.053 133.595ZM21.6705 140.625C22.5697 147.459 24.1224 149.999 29.8233 153.963C33.252 156.347 34.0327 156.612 33.2627 155.129C32.7141 154.073 32.2655 151.807 32.2655 150.092C32.2655 145.75 30.2195 142.122 25.6255 138.319C23.465 136.531 21.5268 135.067 21.318 135.067C21.1093 135.067 21.2675 137.569 21.6705 140.625ZM160.552 141.546C158.047 147.381 158.048 147.356 160.407 154.116C161.455 157.122 162.329 158.624 162.349 157.452C162.368 156.281 163.028 154.773 163.815 154.1C166.36 151.924 166.676 146.455 164.549 141.393L162.605 136.765L160.552 141.546ZM247.47 144.323C248.326 150.096 249.158 151.504 253.15 153.93L256.574 156.012L256.54 152.293C256.496 147.667 254.851 144.52 251.168 142.017C247.147 139.287 246.761 139.528 247.47 144.323ZM195.977 143.572C194.009 144.948 191.436 146.12 190.258 146.176C188.745 146.249 189.042 146.505 191.266 147.049C192.998 147.472 194.965 148.272 195.636 148.825C198.583 151.255 201.282 151.162 207.2 148.426L213.204 145.649L208.428 143.373C202.33 140.466 200.373 140.497 195.977 143.572ZM271.139 142.653C267.197 144.396 264.395 147.694 264.363 150.626C264.352 151.755 263.796 153.33 263.128 154.128C262.11 155.346 262.141 155.378 263.323 154.328C264.097 153.641 265.654 153.077 266.782 153.077C269.346 153.077 273.45 148.618 274.841 144.323C276.03 140.648 275.852 140.567 271.139 142.653ZM50.1946 151.623C50.9258 154.125 52.1056 156.897 52.8183 157.781C53.902 159.128 59.3699 162.082 60.7779 162.082C61.2546 162.082 60.0205 156.433 58.9669 153.801C58.3406 152.237 51.0472 147.074 49.4624 147.074C49.1342 147.074 49.4634 149.121 50.1946 151.623ZM74.7782 153.129C70.5736 155.418 69.154 157.737 68.6782 163.099L68.3335 166.974L72.3904 164.646C75.656 162.773 76.764 161.368 78.069 157.448C80.5491 149.998 80.5442 149.992 74.7782 153.129ZM293.165 153.685C289.999 155.454 290.69 157.064 295.498 159.116C297.864 160.126 299.215 160.112 302.506 159.047C308.505 157.103 308.524 157.059 304.48 154.498C300.166 151.766 297.008 151.539 293.165 153.685ZM286.494 155.762C287.194 156.051 288.032 156.015 288.355 155.683C288.677 155.351 288.104 155.115 287.081 155.158C285.95 155.206 285.719 155.443 286.494 155.762ZM5.20862 160.954L0 163.732L6.05924 166.009C12.8468 168.559 16.2094 168.315 20.8102 164.939L23.7573 162.777L20.0003 160.434C15.1452 157.405 11.6281 157.529 5.20862 160.954ZM37.6061 162.001L41.4903 166.226L38.5772 165.673C35.7029 165.129 35.7058 165.137 38.8199 166.249C40.5561 166.868 41.9816 167.873 41.9884 168.481C41.9962 169.089 44.2897 170.332 47.0863 171.244L52.1716 172.899L49.4673 170.743C47.9797 169.557 43.8285 166.154 40.2425 163.182C34.059 158.057 33.923 157.996 37.6061 162.001ZM30.1418 163.766C30.8419 164.056 31.6799 164.02 32.0023 163.687C32.3247 163.355 31.7518 163.119 30.7283 163.162C29.5971 163.21 29.3669 163.447 30.1418 163.766ZM284.872 166.463L282.583 167.772L285.246 169.93C287.942 172.115 291.914 172.524 297.762 171.22L300.595 170.587L296.739 167.836C292.567 164.858 288.503 164.389 284.872 166.463ZM29.7272 169.993C26.9957 170.336 24.0136 171.256 23.1018 172.036C21.6938 173.24 17.7 180.174 17.7 181.414C17.7 181.895 25.075 180.19 28.0988 179.009C29.2786 178.549 31.1274 176.387 32.2072 174.206C33.287 172.025 34.9436 170.034 35.8884 169.78C38.248 169.146 35.7796 169.231 29.7272 169.993ZM46.4649 208.114C49.0332 212.113 54.0748 214.64 57.0996 213.444C59.1028 212.652 58.8222 211.512 55.813 208.222C53.8476 206.073 51.924 205.149 48.5283 204.723L43.9149 204.144L46.4649 208.114ZM334.148 207.731C329.093 209.329 327.199 211.114 325.124 216.233L323.685 219.781L327.995 219.106C332.937 218.334 335.629 216.177 338.244 210.9C340.977 205.383 341.151 205.518 334.148 207.731ZM34.2211 219.335C30.0845 222.47 30.033 222.576 32.3305 223.238C37.6168 224.759 41.767 224.169 44.9034 221.45L47.9797 218.782L45.7055 217.483C42.0224 215.377 38.7471 215.905 34.2211 219.335ZM46.3454 225.322C41.7738 226.964 38.1722 231.103 36.6157 236.504C35.8291 239.233 35.3164 241.603 35.4776 241.768C35.6388 241.934 37.6022 241.136 39.8424 239.994C44.9549 237.387 48.773 232.791 48.773 229.243C48.773 227.744 49.2974 225.978 49.9382 225.318C51.319 223.895 50.315 223.896 46.3454 225.322ZM323.227 228.991C321.619 229.642 321.809 230.072 324.96 232.923C328.068 235.736 329.171 236.121 334.048 236.099L339.597 236.074L335.508 232.096C331.354 228.056 327.771 227.15 323.227 228.991ZM298.814 255.312C295.909 256.984 295.895 257.036 297.914 258.681C301.675 261.746 304.3 262.284 309.188 260.994C311.761 260.314 313.862 259.506 313.857 259.198C313.853 258.888 312.128 257.624 310.023 256.385C305.866 253.939 301.866 253.556 298.814 255.312ZM291.531 259.637C292.786 261.013 294.03 262.138 294.297 262.138C294.565 262.138 293.757 261.013 292.502 259.637C291.247 258.261 290.003 257.135 289.736 257.135C289.469 257.135 290.276 258.261 291.531 259.637ZM211.321 260.85C210.198 261.064 207.861 262.746 206.128 264.589L202.977 267.94L206.228 268.681C211.88 269.97 214.656 269.371 218.749 265.982C222.571 262.818 222.639 262.664 220.473 262.075C215.809 260.809 213.302 260.472 211.321 260.85ZM286.825 263.7C285.42 266.879 285.364 273.81 286.736 274.683C287.303 275.044 288.228 276.534 288.791 277.994L289.814 280.649L291.084 277.147C293.019 271.812 292.755 267.882 290.224 264.348L287.946 261.167L286.825 263.7ZM295.415 262.505C295.415 262.9 296.289 264.189 297.357 265.37C298.425 266.552 299.299 268.538 299.299 269.785C299.299 273.893 301.503 277.141 306.397 280.243L311.224 283.304L310.575 279.12C309.587 272.756 307.365 269.165 303.362 267.466C301.395 266.632 298.802 265.013 297.6 263.869C296.398 262.726 295.415 262.112 295.415 262.505ZM227.443 278.647C226.108 279.434 224.141 280.138 223.073 280.212L221.131 280.347L223.073 280.999C224.141 281.356 226.274 282.527 227.812 283.6C231.107 285.9 235.357 286.035 240.055 283.988L243.442 282.513L238.998 279.83C234.041 276.836 231.04 276.529 227.443 278.647Z" fill="black"/>
</svg>
