<svg width="340" height="452" viewBox="0 0 340 452" fill="none" xmlns="http://www.w3.org/2000/svg">
<path fill-rule="evenodd" clip-rule="evenodd" d="M124.49 5.594C123.58 12.876 124.452 16.5 127.911 19.814L130.729 22.513L131.889 17.907C132.9 13.891 132.798 12.764 131.092 9.098C130.016 6.786 128.248 3.794 127.163 2.447L125.189 0L124.49 5.594ZM143.783 8.448C138.948 12.592 138.658 13.299 137.649 23.395C137.305 26.836 137.429 27.405 138.175 25.815C138.711 24.671 140.467 22.957 142.078 22.006C145.756 19.833 147.539 16.344 148.394 9.645C148.763 6.757 148.937 4.398 148.78 4.401C148.624 4.405 146.375 6.226 143.783 8.448ZM111.05 26.131C115.853 31.337 116.783 31.829 122.894 32.395C127.618 32.833 128.658 33.348 131.219 36.522C134.254 40.282 134.194 40.01 136.949 62.458C137.526 67.168 139.348 74.718 140.998 79.237C146.385 93.998 144.6 102.592 132.941 118.037C129.011 123.242 124.68 129.497 123.316 131.938C120.005 137.862 119.35 138.063 119.16 133.217C118.947 127.783 117.434 122.313 113.905 114.227C110.025 105.334 109.873 97.519 113.496 93.213C116.053 90.173 116.513 86.415 115.122 79.919L114.485 76.942L111.24 81.84C107.867 86.933 107.26 90.152 109.045 93.487C109.622 94.565 109.96 97.95 109.795 101.01L109.496 106.573L104.511 99.734C101.77 95.973 97.089 90.42 94.109 87.395C88.697 81.902 89.471 83.116 98.093 93.645C101.648 97.986 101.467 98.151 96.303 95.274L92.496 93.154L94.996 95.283C96.371 96.455 99.321 98.698 101.551 100.269C104.295 102.202 106.792 105.381 109.273 110.102C117.184 125.158 118.14 138.636 112.486 155.426C110.555 161.159 108.231 169.685 107.32 174.372C104.953 186.563 105.201 207.617 107.89 222.744C109.048 229.262 109.996 234.779 109.996 235.006C109.996 235.748 93.783 222.056 86.183 214.895C73.575 203.018 64.996 188.343 64.996 178.656C64.996 175.092 62.865 168.395 61.731 168.395C61.209 168.395 61.09 169.182 61.467 170.145C62.327 172.341 65.07 187.655 64.674 188.05C64.513 188.211 61.721 185.654 58.47 182.369C55.219 179.083 52.095 176.41 51.527 176.428C50.96 176.447 51.415 177.234 52.538 178.178C55.953 181.05 63.419 190.664 70.296 201.047C73.884 206.464 78.42 212.47 80.376 214.395C82.332 216.32 83.947 218.185 83.964 218.54C83.982 218.894 82.309 218.793 80.246 218.314C75.297 217.164 58.722 217.142 59.428 218.285C59.731 218.775 58.33 219.485 56.315 219.863C54.3 220.241 51.384 221.753 49.835 223.223C48.286 224.692 44.443 227.245 41.295 228.895C34.826 232.286 32.551 235.513 31.529 242.746L30.843 247.596L35.495 244.396C40.783 240.758 43.987 236.153 43.992 232.184C43.994 230.693 44.915 228.616 46.039 227.569C49.079 224.737 57.014 220.699 60.996 219.958L64.496 219.306L58.61 224.682C53.328 229.506 52.723 230.464 52.723 234.009C52.723 236.182 53.04 238.957 53.426 240.175C54.128 242.385 54.135 242.384 56.414 239.643C60.247 235.034 61.247 232.364 60.616 228.423C59.538 221.68 66.382 217.777 75.579 219.888C86.491 222.393 97.21 229.699 104.882 239.861C113.565 251.36 117.63 264.897 116.605 278.895C115.833 289.449 114.164 295.525 106.975 313.948C98.885 334.684 96.672 344.084 96.634 357.895C96.598 370.756 97.84 376.613 103.204 388.895C109.8 403.996 111.176 408.515 111.272 415.395C111.452 428.27 105.103 434.186 84.917 439.952C75.083 442.761 57.629 449.361 58.29 450.022C58.5 450.232 59.982 449.962 61.584 449.421C63.186 448.88 73.541 446.641 84.595 444.445C95.65 442.25 106.788 439.556 109.345 438.46C111.903 437.363 113.996 436.723 113.996 437.037C113.996 438.632 107.382 445.619 103.226 448.414L98.496 451.594L101.996 450.967C103.921 450.622 110.968 447.588 117.655 444.224C131.545 437.238 131.475 437.242 143.938 442.869C150.789 445.962 156.962 447.869 166.496 449.837C168.452 450.24 166.945 449.05 162.168 446.417C154.9 442.411 147.653 437.404 148.254 436.804C148.426 436.632 152.664 437.558 157.671 438.863C162.679 440.168 172.563 442.197 179.636 443.372C186.709 444.548 196.682 446.414 201.798 447.518C206.915 448.623 211.583 449.366 212.172 449.17C213.296 448.795 189.145 441.041 175.601 437.428C155.445 432.051 145.96 424.76 132.312 404.154C117.126 381.224 113.357 370.035 114.283 350.638C114.939 336.875 117.19 328.142 123.598 314.495C131.754 297.124 146.586 277.685 154.935 273.426C160.375 270.651 166.604 269.248 173.664 269.207C178.998 269.176 180.757 269.628 184.277 271.933C187.914 274.315 188.224 274.389 186.523 272.47L184.55 270.245L187.523 270.899C193.824 272.286 205.434 278.778 210.655 283.835C215.03 288.073 216.004 289.631 216.041 292.452C216.103 297.212 217.849 300.563 222.246 304.362L225.996 307.602L225.992 303.249C225.988 297.975 223.231 293.085 219.04 290.918C217.366 290.052 215.994 289.018 215.991 288.619C215.989 288.221 214.554 286.367 212.804 284.499L209.621 281.102L213.558 281.725L217.496 282.347L213.496 280.903C208.007 278.921 195.015 272.065 195.004 271.145C195 270.732 196.234 270.324 197.746 270.238C199.258 270.151 197.571 269.762 193.996 269.374C190.421 268.985 183.896 267.865 179.496 266.884C173.188 265.478 170.28 265.302 165.746 266.05C162.584 266.572 159.996 266.695 159.996 266.325C159.996 265.954 163.934 262.368 168.746 258.357C189.999 240.642 206.653 233.38 225.956 233.41C245.5 233.44 262.212 240.5 262.22 248.73C262.222 249.921 261.887 252.588 261.477 254.657C260.881 257.658 261.212 259.326 263.112 262.907C264.421 265.375 265.76 267.395 266.086 267.395C266.858 267.395 268.996 260.248 268.996 257.669C268.996 256.572 267.876 254.024 266.507 252.007C263.451 247.504 260.766 242.395 261.455 242.395C262.379 242.395 272.417 248.698 276.374 251.762C278.507 253.414 281.545 256.55 283.124 258.731C284.704 260.911 285.996 262.268 285.996 261.745C285.996 261.223 285.456 260.255 284.796 259.595C284.136 258.935 284.036 258.395 284.575 258.395C285.113 258.395 288.302 261.208 291.662 264.645C296.325 269.416 297.936 271.837 298.472 274.877C299.457 280.469 300.413 281.898 305.511 285.405L309.996 288.491V284.591C309.996 279.673 306.633 274.466 301.981 272.181C300.062 271.238 296.243 268.171 293.494 265.364C288.626 260.394 288.574 260.279 291.496 260.941C293.404 261.374 292.312 260.5 288.496 258.54C285.196 256.845 279.796 253.274 276.496 250.604C273.196 247.934 268.021 244.049 264.996 241.97L259.496 238.191L263.996 238.882C266.471 239.261 274.749 239.889 282.392 240.277L296.287 240.981L299.09 244.339C301.27 246.95 302.96 247.861 306.695 248.438C309.335 248.845 311.669 249.018 311.879 248.82C312.09 248.623 310.673 246.872 308.729 244.928C305.956 242.155 304.368 241.38 301.346 241.325C296.68 241.24 292.7 239.864 294.996 239.13C302.794 236.639 308.381 235.373 312.084 235.259C314.511 235.184 315.484 234.928 314.246 234.689C312.201 234.295 310.965 232.402 312.746 232.39C313.159 232.387 314.846 231.23 316.496 229.819C318.806 227.843 318.388 227.981 314.676 230.421C312.025 232.163 309.699 233.431 309.508 233.24C309.317 233.049 310.466 231.094 312.061 228.894C316.791 222.373 317.3 220.909 316.56 215.973C316.182 213.455 315.534 211.395 315.119 211.395C314.704 211.395 313.358 213.186 312.128 215.375C310.229 218.752 310.044 219.908 310.9 223.009C312.093 227.332 310.446 231.399 306.437 234.026C302.624 236.524 293.409 238.362 284.608 238.379L276.721 238.395L280.496 235.395C282.572 233.745 284.834 232.395 285.523 232.395C288.454 232.395 291.071 228.79 291.876 223.645C292.328 220.758 292.609 218.395 292.5 218.395C292.392 218.395 290.957 219.067 289.311 219.888C284.962 222.057 283.295 224.326 282.323 229.395C281.603 233.151 280.885 234.184 277.978 235.643C273.039 238.123 269.708 237.87 252.626 233.714C239.251 230.46 235.962 230.025 224.272 229.964L211.047 229.895L218.404 222.395C222.45 218.27 228.33 211.376 231.47 207.075C238.097 197.996 242.091 195.031 246.496 195.919C255.47 197.728 257.823 197.611 261.949 195.151L266.033 192.716L262.049 190.919C257.233 188.747 250.816 189.31 247.648 192.182C246.464 193.255 244.192 194.442 242.598 194.82C239.8 195.484 239.88 195.301 244.906 189.499C253.297 179.814 261.008 173.32 268.496 169.637C274.065 166.897 274.781 166.315 271.996 166.791L268.496 167.389L274.518 161.642C277.829 158.481 281.429 155.316 282.518 154.608C283.606 153.9 283.934 153.589 283.246 153.917C281.458 154.77 281.694 153.62 284.11 149.71C287.41 144.371 285.629 144.735 282.173 150.107C278.841 155.288 273.206 160.959 262.996 169.408C251.706 178.751 252.55 178.179 253.406 175.895C254.554 172.832 257.963 159.082 257.981 157.445C258.02 153.772 255.854 158.586 254.955 164.172C253.521 173.074 250.66 178.911 244.433 185.636C241.403 188.91 235.608 195.932 231.556 201.241C222.515 213.089 211.753 223.665 202.55 229.747C198.73 232.271 195.449 234.181 195.26 233.992C194.621 233.353 199.074 226.579 200.49 226.036C203.301 224.957 205.194 219.471 204.499 214.417L203.843 209.647L201.045 212.271C196.923 216.136 195.752 218.994 196.493 223.379C197.684 230.426 193.994 234.789 179.136 243.908C166.739 251.516 151.988 263.344 138.496 276.496L127.496 287.219L127.366 276.557C127.227 265.102 125.412 255.881 120.051 239.395C113.103 218.026 112.777 208.843 118.548 197.058C122.522 188.942 134.465 178.395 139.682 178.395C140.35 178.395 141.256 177.828 141.696 177.135C142.136 176.442 144.521 174.572 146.996 172.979C149.471 171.386 153.971 168.195 156.996 165.888C160.021 163.581 164.071 161.222 165.996 160.646C168.901 159.777 169.08 159.582 167.05 159.497C164.626 159.396 164.635 159.362 168.05 155.807C169.945 153.833 173.521 151.108 175.996 149.751C180.066 147.519 179.816 147.26 175.332 149.065C173.476 149.812 173.698 149.294 177.77 143.395L180.185 139.895L177.341 143.361C175.776 145.267 173.28 148.192 171.794 149.861C169.138 152.844 169.101 152.853 169.618 150.395C169.949 148.818 169.423 149.371 168.192 151.895C166.197 155.983 162.593 159.718 155.496 165.053C149.072 169.881 148.625 170.013 150.413 166.555C151.284 164.872 151.986 162.909 151.974 162.195C151.962 161.48 151.126 162.695 150.115 164.895C147.768 170.006 146.237 171.299 136.496 176.4C125.972 181.911 120.559 186.456 115.858 193.73L111.996 199.705V188.957C111.996 158.098 125.83 127.373 151.028 102.269C162.088 91.251 170.269 86.543 179.874 85.672C185.234 85.186 185.749 85.347 189.855 88.777C194.361 92.541 195.624 92.819 203.407 91.752L208.097 91.109L205.296 88.163C200.359 82.968 194.464 81.057 190.18 83.262C189.254 83.739 184.728 84.375 180.123 84.676L171.749 85.223L175.538 82.059C177.622 80.319 181.547 77.208 184.262 75.145C186.976 73.082 188.838 71.395 188.4 71.395C187.962 71.395 189.151 69.708 191.043 67.645C193.27 65.216 192.711 65.568 189.455 68.645C183.864 73.927 182.559 74.474 183.491 71.145C183.838 69.908 183.08 70.668 181.809 72.836C179.413 76.918 175.083 80.674 160.991 90.889C156.444 94.186 150.808 98.569 148.468 100.629L144.212 104.375L146.104 98.296C148.252 91.394 148.418 90.016 146.996 90.895C146.428 91.246 145.996 90.398 145.996 88.932C145.996 87.513 144.363 82.199 142.368 77.123C138.704 67.803 137.675 61.476 136.318 39.895C135.857 32.561 135.717 32.134 134.633 34.769L133.451 37.642L129.974 33.464C120.727 22.353 120.788 22.395 113.9 22.395H107.604L111.05 26.131ZM149.087 31.938C144.522 33.492 141.391 36.671 140.618 40.536C140.268 42.284 140.185 43.917 140.432 44.164C140.679 44.412 142.595 43.777 144.689 42.755C147.465 41.399 149.123 39.581 150.812 36.044C152.086 33.377 152.986 31.1 152.812 30.986C152.638 30.871 150.962 31.3 149.087 31.938ZM133.154 33.395C133.154 34.77 133.381 35.333 133.658 34.645C133.936 33.958 133.936 32.833 133.658 32.145C133.381 31.458 133.154 32.02 133.154 33.395ZM204.996 43.765C200.051 47.323 197 52.302 196.998 56.816C196.997 58.423 196.209 60.65 195.246 61.766C193.674 63.589 193.789 63.572 196.381 61.595C197.968 60.385 199.819 59.395 200.496 59.395C202.409 59.395 206.892 55.504 208.375 52.557C209.919 49.491 211.316 40.362 210.227 40.461C209.825 40.498 207.471 41.985 204.996 43.765ZM184.022 51.557C181.977 56.31 181.908 57.123 183.096 62.476C184.29 67.861 184.467 68.11 185.661 66.078C189.702 59.196 190.164 57.264 188.964 52.261C188.321 49.581 187.443 47.171 187.013 46.905C186.583 46.64 185.237 48.733 184.022 51.557ZM67.318 57.791C67.612 58.559 68.4 61.011 69.068 63.241C70.548 68.179 74.006 71.63 80.071 74.22L84.646 76.174L83.339 71.137C81.465 63.911 79.539 61.525 73.384 58.803C67.044 55.999 66.602 55.926 67.318 57.791ZM93.946 65.944C91.531 72.126 91.695 75.653 94.604 80.077L97.354 84.258L98.782 81.577C101.072 77.274 100.719 72.376 97.765 67.444L95.099 62.993L93.946 65.944ZM198.723 67.395C197.325 68.495 195.583 69.395 194.853 69.395C194.123 69.395 195.205 70.295 197.257 71.395C202.047 73.962 205.917 73.925 211.026 71.262L215.118 69.129L210.948 67.262C205.578 64.858 201.898 64.898 198.723 67.395ZM150.695 71.645C147.257 76.295 146.815 78.11 147.606 84.348C147.992 87.399 148.537 89.224 148.816 88.405C149.095 87.585 150.543 85.694 152.034 84.204C153.524 82.713 154.975 80.286 155.257 78.81C155.905 75.422 154.999 68.395 153.915 68.395C153.466 68.395 152.016 69.858 150.695 71.645ZM68.665 87.335L63.834 89.102L67.566 91.304C72.955 94.483 75.929 94.789 80.688 92.651L84.881 90.767L80.738 88.081C75.971 84.99 75.208 84.943 68.665 87.335ZM81.33 96.658C80.139 97.338 78.249 99.062 77.131 100.488L75.098 103.081L79.993 103.255C84.147 103.402 85.41 102.971 88.324 100.411C90.214 98.752 92.563 97.395 93.545 97.395C96.972 97.395 94.452 96.641 88.996 96.033C85.402 95.633 82.745 95.85 81.33 96.658ZM167.575 127.399C165.909 133.335 165.919 133.604 167.931 137.76C169.067 140.106 170.048 143.347 170.111 144.961C170.216 147.641 170.288 147.574 170.945 144.197C171.341 142.164 172.247 139.798 172.958 138.94C175.157 136.292 174.66 130.277 171.858 125.6L169.285 121.305L167.575 127.399ZM189.324 124.333C184.392 126.572 182.016 129.824 181.275 135.35L180.734 139.382L184.115 138.25C188.94 136.634 191.666 133.812 193.445 128.59C195.875 121.459 195.807 121.389 189.324 124.333ZM255.128 126.83C252.298 133.226 252.381 138.173 255.385 142.245L257.775 145.484L259.885 141.124C262.568 135.583 262.494 132.02 259.583 126.453L257.259 122.011L255.128 126.83ZM300.87 125.948C296.297 128.28 295.61 129.153 293.928 134.763C293.087 137.567 293.138 137.617 296.216 137.001C300.511 136.142 302.596 134.016 304.434 128.624C305.29 126.112 305.879 123.951 305.743 123.822C305.607 123.694 303.414 124.65 300.87 125.948ZM286.767 127.622C284.208 131.527 283.725 134.752 285.178 138.237L286.496 141.399L288.907 137.85C291.216 134.451 291.257 134.106 289.883 129.679L288.447 125.057L286.767 127.622ZM64.741 139.12C60.577 145.349 60.255 147.502 62.605 153.375L64.214 157.396L67.127 153.73C70.707 149.226 71.427 146.557 70.631 140.752C69.588 133.14 68.871 132.941 64.741 139.12ZM21.508 143.563C22.479 150.728 24.22 153.799 28.452 155.807C30.401 156.732 31.996 157.854 31.996 158.301C31.996 158.748 33.906 161.283 36.24 163.935C39.782 167.959 40.112 168.659 38.238 168.169C37.003 167.845 36.245 167.989 36.554 168.488C36.862 168.987 37.762 169.395 38.555 169.395C39.348 169.395 39.996 169.824 39.996 170.348C39.996 171.356 49.023 175.702 49.703 175.021C49.922 174.802 48.615 173.699 46.799 172.57C43.246 170.361 36.322 163.441 33.644 159.422C32.738 158.063 31.98 155.138 31.961 152.922C31.915 147.692 30.464 145.237 25.141 141.383L20.786 138.23L21.508 143.563ZM149.953 143.525C148.292 148.557 148.409 150.767 150.592 155.608L152.276 159.343L154.136 155.872C155.159 153.964 155.996 151.393 155.996 150.159C155.996 147.692 152.846 139.405 151.906 139.399C151.582 139.397 150.703 141.254 149.953 143.525ZM265.985 142.645C263.575 144.285 262.197 146.382 260.902 150.377C259.926 153.392 259.322 156.054 259.561 156.294C259.8 156.533 259.996 156.209 259.996 155.575C259.996 154.941 261.458 153.803 263.246 153.046C267.326 151.32 269.34 148.923 270.723 144.145C272.032 139.623 270.936 139.276 265.985 142.645ZM289.274 141.645C287.775 143.583 286.832 145.395 287.322 145.395C287.566 145.395 288.503 144.27 289.404 142.895C291.09 140.322 290.996 139.419 289.274 141.645ZM187.18 144.129L182.964 146.862L185.23 148.591C189.349 151.733 192.546 151.775 198.491 148.764C201.519 147.231 203.993 145.734 203.989 145.436C203.981 144.863 194 141.395 192.36 141.395C191.83 141.395 189.499 142.625 187.18 144.129ZM243.197 144.645C245.09 150.63 246.495 152.782 249.756 154.687L252.996 156.579V153.534C252.996 148.809 250.949 145.412 246.839 143.315C241.977 140.834 241.991 140.829 243.197 144.645ZM294.996 149.123C294.171 149.437 292.519 150.451 291.326 151.376L289.155 153.058L291.98 154.726C295.626 156.88 299.618 156.783 303.996 154.432L307.496 152.552L302.996 150.496C298.275 148.338 297.439 148.194 294.996 149.123ZM50.131 155.086C50.965 159.55 54.197 164.395 56.342 164.395C56.89 164.395 58.227 165.182 59.313 166.145C61.225 167.84 61.251 167.826 60.142 165.711C59.511 164.509 58.996 162.342 58.996 160.895C58.996 157.117 57.545 154.916 53.465 152.509C51.494 151.346 49.74 150.395 49.568 150.395C49.395 150.395 49.649 152.506 50.131 155.086ZM73.772 157.606C69.433 159.68 67.448 162.464 66.698 167.529L66.159 171.163L70.514 168.729C73.834 166.873 75.266 165.256 76.54 161.919C77.459 159.511 78.051 157.156 77.854 156.684C77.657 156.212 75.82 156.628 73.772 157.606ZM174.733 160.087C173.1 160.513 173.125 160.744 175.067 163.221C178.011 166.975 180.821 168.319 185.814 168.36L190.132 168.395L187.851 165.145C186.596 163.358 184.878 161.347 184.033 160.677C182.513 159.472 178.15 159.196 174.733 160.087ZM5.248 163.154L0 165.927L4.882 167.661C11.293 169.938 15.743 169.846 19.833 167.353L23.169 165.319L20.548 163.257C16.375 159.975 11.331 159.941 5.248 163.154ZM287.496 163.143C286.396 163.414 284.681 164.206 283.684 164.903C281.99 166.088 282.065 166.308 284.838 168.283C288.109 170.612 291.81 170.857 296.721 169.069L299.946 167.895L296.721 165.747C292.925 163.219 290.251 162.464 287.496 163.143ZM23.862 172.955C21.588 174.148 16.38 181.158 17.205 181.913C17.365 182.059 19.719 181.836 22.436 181.417C26.157 180.843 27.94 179.944 29.659 177.775C30.915 176.191 32.521 174.216 33.228 173.386C34.34 172.081 33.973 171.857 30.505 171.724C28.3 171.64 25.311 172.194 23.862 172.955ZM148.496 177.377C146.296 177.781 145.171 178.171 145.996 178.244C146.821 178.317 148.679 179.816 150.124 181.575C152.423 184.371 153.396 184.787 157.874 184.889C160.691 184.953 162.996 184.738 162.996 184.412C162.996 184.086 161.758 182.388 160.246 180.639C157.166 177.078 154.365 176.3 148.496 177.377ZM40.996 207.93C40.996 208.908 44.445 213.876 45.982 215.113C46.815 215.783 49.195 216.346 51.272 216.363L55.047 216.395L53.527 213.456C51.492 209.519 48.249 207.395 44.273 207.395C42.471 207.395 40.996 207.636 40.996 207.93ZM329.813 211.977C324.474 214.7 321.996 217.692 321.996 221.418C321.996 222.835 321.434 224.626 320.746 225.397C319.712 226.556 319.755 226.611 320.996 225.712C321.821 225.115 323.912 224.323 325.642 223.954C327.373 223.584 329.508 222.487 330.387 221.516C331.762 219.996 335.315 210.356 334.709 209.788C334.592 209.678 332.389 210.663 329.813 211.977ZM32.496 220.881C29.485 222.294 24.996 225.784 24.996 226.711C24.996 226.984 27.239 227.516 29.98 227.893C34.087 228.458 35.564 228.207 38.381 226.466C43.136 223.528 43.545 221.782 39.786 220.472C36.02 219.159 36.186 219.149 32.496 220.881ZM320.496 234.395C318.296 234.789 317.331 235.175 318.352 235.253C319.372 235.331 321.544 236.52 323.179 237.895C327.011 241.12 329.758 241.76 335.136 240.681L339.496 239.807L335.096 236.601C330.547 233.286 328.454 232.97 320.496 234.395ZM297.088 260.485L294.679 261.448L298.088 263.964C302.626 267.314 304.666 267.694 309.891 266.159L314.286 264.868L310.337 262.131C306.205 259.268 301.571 258.692 297.088 260.485ZM206.496 263.815C204.846 264.553 202.925 266.118 202.227 267.293C201.089 269.209 201.225 269.531 203.542 270.412C208.066 272.132 211.481 271.512 215.814 268.181L219.995 264.968L215.745 263.697C210.542 262.14 210.232 262.144 206.496 263.815ZM285.235 268.991C284.135 274.235 284.222 275.03 286.395 279.571L288.745 284.48L290.444 280.234C292.344 275.484 291.88 270.374 289.358 268.28C288.486 267.557 287.469 266.145 287.098 265.143C286.628 263.872 286.065 265.036 285.235 268.991ZM188.277 279.331C187.959 284.492 189.667 288.498 193.57 291.743L196.996 294.592V288.928C196.996 282.161 196.105 280.245 191.772 277.695L188.496 275.767L188.277 279.331ZM223.496 281.402C221.296 282.469 220.214 283.354 221.091 283.369C221.968 283.383 223.464 284.255 224.415 285.305C225.365 286.356 227.3 287.506 228.714 287.86C231.222 288.49 241.008 286.572 240.984 285.456C240.956 284.21 233.574 280.209 230.637 279.848C228.833 279.626 225.794 280.288 223.496 281.402Z" fill="black"/>
</svg>
