<svg width="340" height="453" viewBox="0 0 340 453" fill="none" xmlns="http://www.w3.org/2000/svg">
<path fill-rule="evenodd" clip-rule="evenodd" d="M117.801 0.282238C117.494 0.805238 116.935 3.77224 116.559 6.87524C115.778 13.3292 117.218 17.8352 121.249 21.5492L123.762 23.8652L124.929 19.0002C126.238 13.5442 125.464 10.3652 121.58 5.23724C120.328 3.58524 119.092 1.58024 118.832 0.782238C118.572 -0.015762 118.108 -0.240762 117.801 0.282238ZM137.783 9.55924C133.401 12.7172 130.993 17.1652 130.993 22.1002V25.6662L134.53 23.5792C136.475 22.4312 138.666 20.3092 139.4 18.8632C140.598 16.4992 142.569 6.62224 141.804 6.80924C141.633 6.85124 139.823 8.08824 137.783 9.55924ZM103.345 24.4012L100.198 24.8442L105.137 29.4642C109.813 33.8382 110.362 34.0772 115.443 33.9432C121.652 33.7802 124.811 35.6902 128.057 41.5732L130.077 45.2332L129.457 41.2332C129.116 39.0332 128.356 36.7832 127.768 36.2332C127.036 35.5482 126.922 35.6272 127.405 36.4832C127.793 37.1712 127.725 37.7332 127.254 37.7332C126.351 37.7332 122.035 33.4742 117.311 27.9212C114.36 24.4542 110.281 23.4252 103.345 24.4012ZM125.079 29.2332C125.183 31.1272 126.849 34.3172 126.907 32.7332C126.938 31.9082 126.526 30.5582 125.993 29.7332C125.46 28.9082 125.048 28.6832 125.079 29.2332ZM140.885 33.3352C136.939 34.9742 135.159 37.5442 134.627 42.3682L134.282 45.5032L138.357 43.3682C141.573 41.6832 142.803 40.2322 144.195 36.4832C146.137 31.2502 146.067 31.1822 140.885 33.3352ZM206.493 41.2812C201.067 44.4822 198.211 48.0112 197.422 52.4872C196.75 56.3042 190.764 63.5282 184.56 68.0112C182.127 69.7692 181.743 69.8412 182.31 68.4322C184.208 63.7122 183.921 63.6862 181.16 68.3282C178.812 72.2752 175.354 75.4692 165.811 82.5062C159.036 87.5022 151.468 93.6322 148.993 96.1282C146.518 98.6252 144.233 100.682 143.916 100.7C143.598 100.718 144.019 97.9482 144.85 94.5442C145.987 89.8902 146.068 88.2582 145.177 87.9612C144.526 87.7442 143.993 86.7792 143.993 85.8172C143.993 84.8542 142.166 80.6002 139.934 76.3622C134.978 66.9552 133.018 60.7512 133.004 54.4242C132.997 51.2402 132.628 49.8402 131.914 50.2822C131.226 50.7072 131.07 52.8112 131.483 56.0912C132.371 63.1302 133.542 66.7812 138.221 77.0952C141.985 85.3922 142.212 86.4112 141.775 93.0952C141.266 100.897 139.253 105.75 133.019 114.21C130.984 116.973 127.22 122.824 124.656 127.212C122.091 131.601 119.985 134.751 119.976 134.212C119.904 130.162 116.566 118.956 113.587 112.761C111.61 108.652 109.986 104.377 109.978 103.261C109.966 101.756 109.743 101.58 109.11 102.578C108.479 103.574 107.032 102.408 103.529 98.0782C100.929 94.8632 95.578 88.8582 91.639 84.7332C83.89 76.6202 84.327 77.4382 93.372 87.9832C96.557 91.6962 98.877 94.7332 98.528 94.7332C98.179 94.7332 96.524 94.0252 94.85 93.1592C90.259 90.7852 90.459 92.0142 95.117 94.7952C102.314 99.0932 105.653 102.557 109.268 109.473C114.364 119.226 115.993 125.7 115.993 136.208C115.993 142.882 115.341 147.582 113.557 153.776C106.538 178.143 105.654 198.489 110.43 225.733C111.153 229.858 111.566 233.43 111.348 233.671C111.13 233.911 109.048 232.309 106.722 230.11C104.396 227.91 99.19 223.467 95.154 220.236C79.501 207.705 68.049 191.635 66.475 179.992C65.569 173.297 64.156 169.112 62.278 167.563C60.831 166.369 60.79 166.467 61.885 168.521C62.555 169.779 63.755 174.211 64.55 178.37C65.346 182.528 66.248 186.336 66.554 186.832C67.831 188.898 65.78 187.452 61.408 183.202C58.844 180.71 55.835 178.184 54.722 177.588C53.609 176.992 54.37 178.176 56.413 180.219C60.293 184.099 68.864 195.349 73.211 202.267C74.605 204.485 78.011 208.78 80.78 211.809L85.814 217.318L73.154 216.912C66.19 216.688 60.838 216.864 61.26 217.303C62.135 218.212 56.836 220.675 53.628 220.849C51.914 220.942 51.841 221.056 53.259 221.425C54.853 221.841 54.804 222.082 52.759 223.896C50.682 225.739 50.759 225.731 53.677 223.799C56.393 222.001 64.175 218.733 65.741 218.733C66.014 218.733 65.65 219.442 64.93 220.308C64.093 221.318 64.995 221.074 67.443 219.63C70.972 217.548 71.687 217.466 76.859 218.55C86.135 220.496 92.861 224.405 100.694 232.404C116.191 248.227 121.168 268.263 115.391 291.572C114.483 295.235 111.096 304.878 107.865 312.999C99.346 334.414 97.893 340.159 97.306 354.733C96.691 370.003 98.148 377.846 104.035 390.971C110.297 404.929 111.993 410.461 111.993 416.929C111.993 429.573 105.389 435.502 84.898 441.256C75.165 443.99 60.194 449.463 58.56 450.886C58.048 451.333 59.173 451.251 61.06 450.704C62.948 450.158 72.818 448.119 82.993 446.174C101.511 442.634 110.399 440.335 112.743 438.478C114.821 436.832 114.151 438.837 111.43 442.404C110.02 444.253 106.539 447.333 103.693 449.249C100.848 451.165 99.09 452.733 99.788 452.733C102.855 452.733 113.952 448.234 121.208 444.048C130.485 438.697 131.556 438.705 144.087 444.214C151.085 447.291 166.1 451.725 169.493 451.717C170.043 451.715 166.893 449.927 162.493 447.742C154.96 444.003 144.945 436.679 149.493 438.236C155.43 440.269 170.795 443.742 178.113 444.705C182.722 445.312 192.187 446.917 199.147 448.271C206.106 449.625 212.181 450.699 212.647 450.658C214.515 450.492 195.598 444.426 181.493 440.669C154.791 433.557 147.94 428.867 134.651 408.604C124.733 393.481 120.643 385.804 117.522 376.458C108.492 349.409 118.029 316.021 144.378 282.439C149.643 275.728 151.528 274.13 157.939 270.939C164.338 267.754 166.531 267.184 173.544 266.886C181.51 266.548 181.789 266.615 185.348 269.74C188.587 272.584 188.993 273.473 188.993 277.722C188.993 282.031 189.412 282.911 193.243 286.637L197.493 290.772L197.79 286.441C198.175 280.826 196.76 277.26 193.288 275.096C191.751 274.139 189.222 272.026 187.669 270.401L184.845 267.447L188.528 268.045C195.401 269.16 207.733 275.748 212.512 280.857C216.148 284.744 216.993 286.344 216.993 289.344C216.993 292.399 217.716 293.708 221.159 296.887C223.451 299.002 225.673 300.733 226.097 300.733C227.045 300.733 226.207 294.238 224.767 290.43C224.162 288.831 222.157 286.832 220.1 285.776C218.116 284.757 215.083 282.322 213.359 280.364L210.226 276.803L214.859 277.243L219.493 277.683L214.993 276.732C211.018 275.893 196.314 269.256 194.993 267.705C194.718 267.382 190.82 266.292 186.33 265.282C180.222 263.908 175.83 263.579 168.883 263.975L159.598 264.504L165.546 259.109C181.59 244.553 196.894 235.243 210.706 231.637C220.513 229.076 235.539 228.93 246.021 231.292C255.072 233.333 258.142 234.815 260.858 238.455C261.997 239.983 262.944 240.697 262.961 240.042C262.979 239.387 262.543 238.573 261.993 238.233C261.443 237.893 260.993 237.155 260.993 236.592C260.993 236.03 264.931 237.632 269.743 240.154C279.938 245.495 276.965 242.416 266.248 236.534C262.258 234.344 258.993 232.423 258.993 232.265C258.993 232.108 260.992 232.204 263.436 232.479C269.855 233.203 295.089 231.698 294.43 230.631C294.125 230.137 294.499 229.733 295.262 229.733C296.024 229.733 299.417 228.608 302.801 227.233C306.185 225.858 310.875 224.666 313.223 224.583C316.237 224.477 316.679 224.31 314.726 224.015C313.204 223.785 312.215 223.183 312.528 222.676C312.848 222.159 312.311 222.057 311.302 222.444C310.113 222.901 310.686 221.696 313.001 218.875C320.617 209.589 320.298 210.252 319.551 205.273L318.855 200.631L315.888 204.366C313.557 207.298 312.965 208.973 313.128 212.167C313.381 217.099 312.001 219.882 307.73 223.059C302.188 227.18 289.003 230.75 279.493 230.703L276.493 230.689L278.993 228.654C281.483 226.628 281.476 226.628 277.283 228.676C271.832 231.339 268.205 231.27 250.304 228.16C238.563 226.12 232.978 225.654 223.357 225.91L211.221 226.233L217.571 219.503C221.063 215.801 226.458 209.152 229.559 204.726C236.72 194.506 240.773 191.259 245.237 192.166C253.705 193.887 254.444 193.819 259.393 190.86L264.293 187.93L258.893 186.244C253.082 184.43 250.943 184.827 245.993 188.642C244.618 189.701 242.398 190.887 241.059 191.276C238.671 191.971 238.683 191.912 241.723 188.074C243.426 185.923 248.41 180.734 252.798 176.542C259.119 170.503 262.096 168.437 267.134 166.595C270.632 165.317 272.729 164.122 271.795 163.939C270.862 163.756 269.174 164.101 268.045 164.705C266.917 165.309 265.993 165.588 265.993 165.325C265.993 164.322 277.322 154.151 280.335 152.449C282.927 150.984 283.046 150.786 281.001 151.343C278.974 151.895 278.706 151.761 279.565 150.627C286.039 142.086 287.115 140.484 285.369 141.985C284.248 142.949 283.071 143.477 282.753 143.16C282.436 142.842 281.88 143.513 281.519 144.65C280.216 148.756 273.016 156.555 262.675 165.06C256.875 169.83 251.826 173.733 251.454 173.733C251.083 173.733 251.104 172.946 251.502 171.983C252.676 169.143 255.961 156.362 255.936 154.733C255.89 151.731 253.256 158.343 252.652 162.977C251.819 169.361 247.742 177.169 242.074 183.233C239.504 185.983 233.525 193.43 228.789 199.782C219.518 212.215 210.542 221.248 201.06 227.688C197.783 229.913 194.902 231.733 194.656 231.733C193.566 231.733 197.87 224.937 200.782 222.06C203.696 219.18 203.993 218.325 203.993 212.81C203.993 209.468 203.767 206.733 203.491 206.733C203.215 206.733 201.409 208.408 199.478 210.455C196.163 213.969 195.982 214.517 196.229 220.284C196.458 225.633 196.148 226.842 193.728 230.014C192.208 232.006 185.909 236.978 179.729 241.063C166.761 249.634 154.977 259.685 139.999 274.951C134.181 280.881 129.212 285.731 128.957 285.729C128.702 285.728 128.458 279.54 128.416 271.979C128.343 259.023 128.12 257.514 124.529 245.733C116.395 219.04 115.855 216.645 116.311 209.233C116.916 199.404 120.22 191.431 126.392 184.905C135.469 175.307 144.118 172.964 149.18 178.733C151.461 181.332 152.496 181.733 156.926 181.733H162.039L160.368 179.182C157.75 175.187 154.29 173.951 147.243 174.493C143.01 174.818 140.993 174.612 140.993 173.853C140.993 173.237 141.477 172.733 142.069 172.733C142.661 172.733 145.838 170.596 149.129 167.983C160.302 159.115 162.288 157.733 163.892 157.718C165.292 157.704 165.305 157.578 163.993 156.708C162.748 155.883 163.172 155.079 166.493 151.972C168.693 149.914 171.618 147.452 172.993 146.502C174.368 145.552 174.706 145.038 173.743 145.361C171.936 145.966 171.426 144.854 172.743 143.179C173.155 142.655 172.008 143.802 170.194 145.729C167.117 148.996 166.935 149.064 167.488 146.733C167.815 145.358 166.979 146.414 165.632 149.08C162.773 154.735 159.142 158.789 153.313 162.833C148.077 166.465 147.566 166.459 149.467 162.783C150.306 161.16 150.989 159.247 150.983 158.533C150.978 157.818 149.917 159.483 148.625 162.233C145.824 168.196 144.61 169.306 135.493 174.248C127.68 178.483 119.289 186.536 116.214 192.752C114.959 195.287 113.911 196.409 113.467 195.691C112.162 193.58 114.079 172.427 116.616 160.948C120.988 141.159 127.708 126.624 140.153 110.037C151.567 94.8232 164.32 84.5052 175.274 81.6202C178.082 80.8812 177.919 80.8262 174 81.1902L169.508 81.6082L172 79.6472C180.915 72.6362 186.312 68.7332 187.092 68.7332C187.588 68.7332 187.993 68.3002 187.993 67.7712C187.993 65.8012 196.677 57.9652 201.007 56.0292C203.474 54.9262 206.235 53.1712 207.142 52.1282C208.783 50.2412 212.224 38.6482 211.089 38.8272C210.761 38.8792 208.693 39.9832 206.493 41.2812ZM184.543 48.2222C181.917 53.4122 181.819 54.0412 182.991 58.2272L184.242 62.6952L187.222 58.9642C189.928 55.5762 190.152 54.7372 189.655 49.8412C189.354 46.8752 188.711 44.0512 188.226 43.5662C187.717 43.0572 186.16 45.0262 184.543 48.2222ZM130.151 47.7332C130.151 49.1082 130.378 49.6712 130.655 48.9832C130.933 48.2962 130.933 47.1712 130.655 46.4832C130.378 45.7962 130.151 46.3582 130.151 47.7332ZM67.218 60.4832C69.497 67.3252 72.357 70.5022 78.251 72.7402L82.612 74.3952L81.321 69.4162C79.462 62.2522 77.524 59.8582 71.381 57.1412C68.386 55.8172 65.794 54.7332 65.62 54.7332C65.446 54.7332 66.165 57.3212 67.218 60.4832ZM91.025 67.5812C89.965 72.5762 90.009 73.8632 91.323 76.4042C92.169 78.0402 93.566 79.9632 94.427 80.6782C95.778 81.7992 96.209 81.4612 97.566 78.2132C99.322 74.0112 98.861 70.7612 95.927 66.6402C94.863 65.1462 93.993 63.4312 93.993 62.8292C93.993 62.2262 93.604 61.7332 93.13 61.7332C92.655 61.7332 91.708 64.3652 91.025 67.5812ZM199.243 63.3812C195.345 65.3022 195.229 66.0022 198.458 68.1182C201.579 70.1632 205.405 70.0662 210.493 67.8142L214.493 66.0432L210.283 63.8882C205.286 61.3302 203.563 61.2512 199.243 63.3812ZM147.784 68.8622C144.222 73.6752 143.945 75.0022 145.23 81.1282C146.187 85.6902 146.552 86.2982 147.435 84.7972C148.017 83.8072 149.39 81.7252 150.486 80.1702C152.594 77.1792 152.978 70.3162 151.214 67.1642C150.404 65.7152 149.945 65.9422 147.784 68.8622ZM191.806 66.4162C192.527 66.7052 193.39 66.6692 193.722 66.3372C194.054 66.0052 193.464 65.7692 192.41 65.8122C191.245 65.8602 191.008 66.0972 191.806 66.4162ZM109.308 78.9902C106.106 83.7432 105.623 86.9132 107.439 91.2592L109.031 95.0692L111.512 91.7072C112.877 89.8582 113.993 87.5952 113.993 86.6782C113.993 83.2442 112.698 75.7332 112.107 75.7402C111.769 75.7442 110.51 77.2062 109.308 78.9902ZM187.341 79.9522L184.189 80.9662L187.433 83.8142C192.07 87.8862 195.111 88.7732 201.607 87.9502L207.264 87.2332L202.651 82.9832C197.7 78.4212 194.23 77.7342 187.341 79.9522ZM66.821 86.0282L62.148 88.2332L67.029 90.4832C72.881 93.1802 73.337 93.2022 78.575 91.0362L82.678 89.3392L79.935 87.0312C76.021 83.7372 72.281 83.4512 66.821 86.0282ZM77.443 97.0842C75.546 98.9272 73.993 100.669 73.993 100.954C73.993 101.24 76.271 101.364 79.056 101.23C83.065 101.037 84.738 100.393 87.094 98.1362C89.754 95.5882 89.88 95.2112 88.281 94.5802C84.205 92.9702 80.891 93.7362 77.443 97.0842ZM166.216 121.144C163.971 126.071 163.777 130.291 165.611 134.321C166.59 136.473 167.698 139.358 168.074 140.733C168.679 142.948 168.77 142.99 168.875 141.105C168.94 139.935 169.712 137.256 170.591 135.153C172.438 130.733 172.001 126.44 169.245 121.907L167.314 118.732L166.216 121.144ZM187.493 120.671C182.157 123.068 180.127 125.539 178.535 131.575C177.319 136.184 177.346 136.544 178.849 135.759C179.753 135.286 181.952 134.359 183.734 133.699C187.29 132.381 190.243 128.282 191.815 122.483C192.967 118.234 192.942 118.223 187.493 120.671ZM255.028 123.659C252.225 129.642 252.073 134.054 254.507 138.761L256.228 142.088L258.605 138.161C261.452 133.458 261.663 127.84 259.198 122.354L257.455 118.476L255.028 123.659ZM297.408 125.659C294.147 127.119 292.973 128.423 291.304 132.44L289.237 137.414L292.572 136.267C294.407 135.636 296.81 134.304 297.913 133.306C299.805 131.593 302.627 125.033 301.818 124.225C301.613 124.02 299.628 124.665 297.408 125.659ZM283.57 128.212C282.348 130.788 282.093 133.009 282.591 136.759L283.263 141.826L285.597 138.029C287.96 134.185 288.458 131.07 287.363 126.983C286.52 123.837 285.487 124.172 283.57 128.212ZM64.918 137.851C61.092 143.814 60.538 149.077 63.202 154.162L64.73 157.079L67.862 152.756C71.316 147.986 71.651 145.065 69.624 137.373L68.343 132.513L64.918 137.851ZM148.601 140.13C146.541 145.059 146.623 148.38 148.91 152.675L150.743 156.117L152.368 152.975C154.48 148.891 154.368 144.094 152.059 139.757L150.208 136.282L148.601 140.13ZM241.607 142.826C243.192 148.934 244.154 150.245 248.051 151.603C250.943 152.612 250.993 152.57 250.993 149.115C250.993 143.605 248.284 140.22 242.384 138.354C240.313 137.7 240.299 137.781 241.607 142.826ZM266.493 138.9C262.662 141.019 260.092 144.005 259.429 147.109C259.062 148.827 258.259 150.908 257.645 151.733C256.937 152.683 257.284 152.591 258.589 151.483C259.723 150.52 261.324 149.733 262.147 149.733C264.099 149.733 267.577 145.98 268.926 142.418C270.767 137.56 270.255 136.82 266.493 138.9ZM21.118 143.962C22.066 149.96 24.129 153.153 29.083 156.288L32.572 158.496L31.992 153.364C31.673 150.542 30.98 147.478 30.452 146.555C29.62 145.099 21.643 138.733 20.651 138.733C20.453 138.733 20.664 141.086 21.118 143.962ZM183.246 140.983C181.476 142.221 180.02 143.487 180.01 143.798C179.985 144.624 186.794 147.733 188.63 147.733C190.278 147.733 199.99 142.599 199.992 141.726C199.994 140.893 192.237 138.733 189.245 138.733C187.716 138.733 185.016 139.745 183.246 140.983ZM290.243 148.381C286.407 150.272 286.232 151.087 289.216 153.176C292.148 155.23 295.859 155.143 300.866 152.901L304.957 151.07L300.616 148.901C295.465 146.329 294.503 146.281 290.243 148.381ZM49.391 151.328C49.722 152.191 49.993 153.95 49.993 155.238C49.993 158.266 54.221 163.268 57.849 164.533L60.686 165.522L59.965 161.877C58.806 156.02 58.054 154.938 53.297 152.279C49.915 150.389 48.94 150.152 49.391 151.328ZM73.993 156.986C69.829 159.321 68.678 161.012 67.939 165.884C67.397 169.454 67.441 169.513 69.937 168.564C73.881 167.065 75.906 164.771 77.056 160.5C78.487 155.183 78.067 154.701 73.993 156.986ZM172.743 156.422C170.459 157.019 170.537 157.651 173.326 161.136C175.294 163.595 176.544 164.114 181.487 164.524L187.325 165.008L185.104 161.889C181.203 156.41 178.078 155.028 172.743 156.422ZM34.962 162.562C36.216 164.393 37.861 166.129 38.617 166.419C40.908 167.298 40.157 168.909 37.743 168.295C35.758 167.79 35.788 167.868 37.993 168.959C39.368 169.639 40.943 170.708 41.493 171.336C42.598 172.597 49.086 174.973 49.713 174.347C49.93 174.129 48.62 172.933 46.801 171.689C44.981 170.445 41.06 167.133 38.087 164.33C33.646 160.143 33.088 159.827 34.962 162.562ZM282.493 161.6L278.493 163.415L281.993 165.57C286.026 168.054 288.049 168.206 293.198 166.412L296.903 165.122L292.748 162.427C287.861 159.259 287.685 159.245 282.493 161.6ZM5.24301 163.501C2.35501 164.956 -0.00399492 166.391 5.0794e-06 166.69C0.0100051 167.425 10.212 170.733 12.47 170.733C14.52 170.733 22.993 166.713 22.993 165.74C22.993 164.529 15.215 160.733 12.857 160.794C11.557 160.827 8.13101 162.045 5.24301 163.501ZM29.379 172.639C23.445 173.363 21.582 174.659 18.891 179.933L16.936 183.766L21.214 183.131C26.606 182.332 29.537 180.515 31.472 176.773C32.309 175.156 33.78 173.374 34.743 172.813C35.705 172.252 36.043 171.843 35.493 171.904C34.943 171.965 32.192 172.295 29.379 172.639ZM334.993 203.098C328.929 205.098 327.021 206.685 324.572 211.761C322.46 216.14 322.398 216.587 324.026 215.715C325.036 215.175 326.955 214.733 328.292 214.733C331.57 214.733 335.624 211.376 338.021 206.678C340.875 201.083 340.924 201.141 334.993 203.098ZM45.234 211.185C48.338 215.927 52.696 217.841 55.846 215.845C56.954 215.143 56.97 214.557 55.933 212.61C53.995 208.972 51.889 207.8 47.234 207.765L42.975 207.733L45.234 211.185ZM286.761 212.295C283.118 214.681 282.482 215.956 281.739 222.354L281.377 225.475L284.435 224.195C286.117 223.491 288.237 221.862 289.145 220.574C290.899 218.09 292.542 209.692 291.255 209.792C290.836 209.824 288.814 210.951 286.761 212.295ZM36.41 221.018C33.222 222.877 28.638 226.714 29.09 227.146C29.543 227.578 36.598 228.087 39.166 227.873C40.087 227.796 42.265 226.533 44.008 225.067L47.176 222.401L44.834 221.103C41.906 219.478 39.1 219.45 36.41 221.018ZM60.304 225.228C57.008 227.536 55.649 232.741 57.015 237.815L58.15 242.028L61.067 237.631C63.912 233.342 64.626 229.189 63.157 225.475C62.526 223.881 62.26 223.858 60.304 225.228ZM323.185 224.593C322.21 225.212 322.799 226.233 325.496 228.602C328.699 231.414 329.742 231.759 334.554 231.602C337.546 231.504 339.97 231.156 339.941 230.829C339.913 230.501 338.064 228.77 335.833 226.983C331.741 223.705 326.228 222.663 323.185 224.593ZM44.54 229.127C39.849 231.627 37.458 235.481 36.532 242.042L35.853 246.851L39.622 244.465C44.805 241.185 47.16 237.708 48.034 232.045C48.443 229.398 48.713 227.185 48.635 227.127C48.557 227.069 46.714 227.969 44.54 229.127ZM299.993 235.233C303.219 237.928 305.086 238.733 308.111 238.733H312.039L310.374 236.192C308.093 232.711 305.92 231.733 300.464 231.733H295.804L299.993 235.233ZM262.637 243.931C261.3 248.921 262.043 253.226 264.89 256.986L267.732 260.739L268.989 256.248C270.432 251.093 269.417 247.419 265.543 243.78L263.253 241.629L262.637 243.931ZM281.396 247.628C282.993 249.297 284.628 250.458 285.031 250.21C285.433 249.961 288.177 251.601 291.128 253.855C295.586 257.26 295.901 257.39 292.993 254.627C291.068 252.798 289.545 251.061 289.608 250.768C289.672 250.474 287.197 248.964 284.108 247.414L278.493 244.595L281.396 247.628ZM298.642 250.358C295.858 251.866 295.838 251.936 297.792 253.305C302.165 256.368 304.768 256.731 310.069 255.02L315.18 253.369L310.836 251.096C305.735 248.427 302.561 248.235 298.642 250.358ZM287.061 256.293C287.203 257.36 286.972 259.911 286.549 261.963C285.891 265.147 286.206 266.339 288.705 270.112L291.632 274.531L292.8 270.164C294.147 265.128 293.339 262.121 289.37 257.404C287.344 254.996 286.857 254.762 287.061 256.293ZM299.143 261.908C300.228 264.287 301.667 267.358 302.341 268.733C303.456 271.01 311.717 276.342 312.663 275.396C313.503 274.556 311.093 266.501 309.462 264.699C308.521 263.659 306.118 262.284 304.122 261.644C302.126 261.004 299.745 259.828 298.831 259.032C297.432 257.811 297.481 258.265 299.143 261.908ZM203.826 261.911L200.857 265.09L203.175 266.376C206.875 268.429 210.395 267.949 214.743 264.799C220.326 260.755 220.51 260.08 216.223 259.372C208.977 258.174 206.925 258.594 203.826 261.911ZM197.806 266.416C198.527 266.705 199.39 266.669 199.722 266.337C200.054 266.005 199.464 265.769 198.41 265.812C197.245 265.86 197.008 266.097 197.806 266.416ZM225.223 275.449C221.254 277.471 221.472 278.507 226.406 281.067C230.076 282.972 230.369 282.98 235.702 281.299L241.207 279.563L237.623 277.128C232.894 273.914 229.213 273.416 225.223 275.449Z" fill="black"/>
</svg>
