<svg width="339" height="445" viewBox="0 0 339 445" fill="none" xmlns="http://www.w3.org/2000/svg">
<path fill-rule="evenodd" clip-rule="evenodd" d="M126.852 4.909C125.791 11.28 126.186 14.069 128.636 17.51C131.299 21.25 132.199 21.057 133.58 16.447C134.946 11.887 133.801 7.496 130.05 2.909L127.67 0L126.852 4.909ZM146.91 8.145C141.523 12.058 140.835 13.133 140.258 18.529L139.755 23.239L142.38 21.881C146.521 19.74 148.681 16.752 150.133 11.155C150.873 8.3 151.33 5.816 151.149 5.635C150.968 5.453 149.06 6.583 146.91 8.145ZM112.127 20.569C114.524 24.592 117.331 27.686 119.7 28.916C122.65 30.449 129.5 30.833 129.5 29.467C129.5 27.682 124.833 21.794 122.47 20.598C119.107 18.897 111.117 18.874 112.127 20.569ZM147.743 31.295C143.456 33.241 141.087 36.815 141.705 40.403C141.976 41.978 142.302 41.996 145.704 40.63C148.397 39.548 149.965 37.989 151.454 34.915C154.579 28.458 154.393 28.277 147.743 31.295ZM132.27 33.388C132.916 34.251 134.114 36.501 134.933 38.388L136.422 41.819L136.461 37.462C136.491 34.161 136.166 33.233 135.122 33.634C134.364 33.925 133.148 33.635 132.42 32.991C131.344 32.038 131.316 32.112 132.27 33.388ZM205.603 40.278C199.66 44.412 197.851 47.114 196.621 53.7L195.801 58.091L199.256 56.647C204.739 54.357 206.22 53.167 208.306 49.376C209.936 46.414 212.332 36.086 211.311 36.421C211.14 36.478 208.571 38.213 205.603 40.278ZM183.699 47.846C182.49 50.335 181.5 53.116 181.5 54.025C181.5 56.458 183.772 62.319 184.716 62.319C186.078 62.319 189.492 55.974 189.496 53.435C189.501 50.474 187.411 43.319 186.541 43.319C186.188 43.319 184.909 45.356 183.699 47.846ZM136.736 56.069C137.133 62.837 138.014 66.745 140.625 73.319C146.704 88.629 144.856 98.28 133.06 112.819C129.936 116.669 125.945 122.169 124.19 125.041C122.436 127.913 120.725 130.275 120.39 130.291C120.054 130.306 119.534 127.936 119.233 125.023C118.615 119.036 112.076 101.221 110.088 100.108C109.371 99.707 107.033 96.778 104.892 93.599C102.752 90.42 98.797 85.569 96.104 82.819C90.561 77.16 90.918 78.483 96.847 85.574C100.61 90.076 101.344 93.094 98 90.319C97.148 89.612 96.195 89.291 95.881 89.604C95.568 89.918 97.095 91.301 99.275 92.677C104.885 96.218 109.003 101.611 112.734 110.301C115.757 117.342 115.961 118.549 115.935 129.319C115.911 139.13 115.572 141.554 113.624 145.819C105.947 162.634 103.498 187.679 107.366 209.819C108.519 216.419 109.763 222.887 110.13 224.193C110.648 226.034 108.698 224.8 101.44 218.693C74.816 196.291 67.696 186.046 64.83 166.02C64.373 162.831 63.55 160.356 63 160.52C62.45 160.684 62.178 161.269 62.395 161.819C62.612 162.369 63.131 165.145 63.548 167.988C63.964 170.831 64.618 174.656 65 176.488L65.695 179.819L60.012 174.069C56.887 170.907 53.882 168.319 53.335 168.319C52.788 168.319 54.665 170.907 57.506 174.069C60.347 177.231 65.547 184.159 69.063 189.464C72.578 194.768 77.657 201.518 80.349 204.464L85.244 209.819H75.122C67.699 209.819 63.467 210.341 59.25 211.776C56.088 212.852 53.5 214.09 53.5 214.526C53.5 215.727 55.708 215.415 58.5 213.819C59.875 213.033 61.843 212.374 62.872 212.354C64.506 212.324 64.572 212.542 63.39 214.069C62.12 215.709 62.159 215.717 64.017 214.199C72.214 207.505 87.244 211.901 100.065 224.742C112.242 236.939 117.516 249.672 117.483 266.799C117.459 278.83 115.672 286.613 109.156 303.057C99.474 327.49 96.765 339.805 97.797 354.693C98.53 365.281 100.507 372.369 106.495 385.887C112.194 398.753 113.93 407.214 112.367 414.502C110.422 423.573 103.199 428.453 83.044 434.312C73.349 437.131 56.08 444.232 62.5 442.76C63.875 442.445 73.741 440.393 84.424 438.201C95.108 436.008 106.326 433.343 109.354 432.279C112.381 431.215 115.045 430.53 115.272 430.757C115.774 431.26 105.851 441.144 102.445 443.534C100.116 445.168 100.26 445.176 105.5 443.694C110.994 442.141 118.893 438.495 125.5 434.463C130.426 431.456 135.194 431.787 144.236 435.763C152.606 439.443 166.843 443.705 168.699 443.086C169.317 442.88 167.342 441.498 164.311 440.015C158.064 436.959 150.063 431.423 150.811 430.674C151.085 430.401 154.389 431.08 158.154 432.183C161.919 433.287 169.275 434.903 174.5 435.776C179.725 436.648 190.436 438.529 198.303 439.954C206.17 441.38 212.807 442.345 213.053 442.1C213.549 441.604 189.008 433.871 183.5 432.788C175.031 431.122 161.349 426.021 155.913 422.501C148.581 417.755 145.542 414.308 135.594 399.46C118.841 374.453 114.5 363.19 114.5 344.724C114.5 327.612 119.248 311.384 129.176 294.561C142.794 271.487 155.548 261.287 171.784 260.488C184.234 259.874 189.5 263.371 189.5 272.251C189.5 276.33 189.974 277.376 193.292 280.616C195.378 282.653 197.341 284.319 197.654 284.319C197.968 284.319 198.136 281.789 198.028 278.697C197.834 273.153 197.743 272.994 191.416 267.135C185.864 261.994 185.376 261.274 187.791 261.786C193.356 262.966 201.418 266.466 207.246 270.233C212.152 273.404 213.016 273.706 212.158 271.95C211.585 270.778 207.984 268.244 204.157 266.319C200.329 264.394 196.703 262.358 196.099 261.796C193.915 259.762 181.775 257.819 171.249 257.819C165.336 257.819 160.499 257.505 160.499 257.122C160.501 255.909 176.156 242.816 183.482 237.901C202.723 224.991 222.516 220.615 242.577 224.835C250.311 226.462 257.806 229.388 258.94 231.222C259.324 231.843 260.058 232.092 260.57 231.776C261.083 231.459 264.964 233.014 269.196 235.231C273.427 237.448 277.078 239.074 277.309 238.843C277.863 238.29 266.543 230.994 262.591 229.357C260.891 228.653 259.503 227.793 259.506 227.448C259.509 227.102 267.213 226.757 276.627 226.682C286.077 226.606 294.024 226.122 294.371 225.601C294.717 225.082 298.375 223.149 302.5 221.305C311.362 217.345 312.393 216.599 310.182 215.75C309.162 215.359 307.359 216.102 305.469 217.692C300.325 222.02 277.5 227.632 277.5 224.568C277.5 223.999 278.239 223.249 279.143 222.902C280.047 222.556 280.5 221.985 280.149 221.635C279.799 221.285 278.56 221.858 277.395 222.908C274.396 225.616 262.145 225.341 248 222.25C239.53 220.399 233.995 219.844 223.936 219.839L210.872 219.832L216.206 214.957C219.14 212.275 224.916 205.481 229.042 199.858C233.168 194.234 237.668 189.032 239.041 188.297C240.883 187.312 241.205 186.737 240.269 186.11C238.515 184.933 257.714 166.5 263.578 163.731C266.01 162.582 269.125 161.119 270.5 160.478C272.819 159.399 272.747 159.358 269.5 159.918L266 160.522L271.899 155.17C275.143 152.227 278.743 149.272 279.899 148.604C281.055 147.936 281.415 147.374 280.699 147.354C279.869 147.332 280.321 146.109 281.949 143.975C284.659 140.421 285.051 139.319 283.604 139.319C283.112 139.319 281.241 141.605 279.448 144.399C275.401 150.706 250.038 172.299 251.948 167.811C252.414 166.716 253.6 162.894 254.582 159.319C255.564 155.744 256.675 151.807 257.051 150.569C257.426 149.331 257.343 148.323 256.867 148.327C255.553 148.339 253.5 153.353 253.5 156.548C253.5 162.004 248.517 171.553 242.133 178.332C238.76 181.914 232.349 189.579 227.887 195.366C223.425 201.152 217.35 208.072 214.387 210.742C208.339 216.194 195.393 225.546 194.765 224.918C194.105 224.258 199.427 216.319 200.529 216.319C202.752 216.319 204.78 209.67 204.047 204.784L203.333 200.02L199.666 203.687C196.33 207.024 195.992 207.871 195.915 213.087C195.869 216.239 195.756 219.38 195.665 220.066C195.345 222.479 188.233 229.325 182.842 232.409C170.603 239.412 152.532 254.347 135.647 271.414L127.5 279.649L127.448 268.234C127.393 256.041 126.624 252.32 118.997 227.319C115.86 217.035 115.167 213.224 115.092 205.819C115.012 198.032 115.361 196.048 117.68 191.101C121.198 183.595 128.225 176.209 135.214 172.669C138.309 171.101 141.552 169.22 142.421 168.488C144.108 167.066 154.268 160.079 161.218 155.561C163.539 154.053 165.451 152.295 165.468 151.654C165.486 151.013 167.525 148.706 170 146.528C172.475 144.349 174.5 141.991 174.5 141.288C174.5 140.386 173.96 140.497 172.671 141.664C171.665 142.574 170.315 143.319 169.671 143.319C169.027 143.319 168.5 143.768 168.5 144.316C168.5 147.07 153.528 160.319 150.416 160.319C149.392 160.319 149.367 160.052 150.3 159.119C150.96 158.459 151.5 157.491 151.5 156.969C151.5 156.446 150.198 157.816 148.607 160.012C146.517 162.897 143.244 165.281 136.818 168.6C126.505 173.927 119.538 179.692 115.889 185.918C114.471 188.339 112.834 190.319 112.252 190.319C110.603 190.319 112.131 168.114 114.421 158.819C120.507 134.111 136.223 109.409 156.312 92.972C163.842 86.812 169.777 83.778 176.355 82.726C178.709 82.35 180.242 81.661 179.772 81.191C179.302 80.721 177.479 80.751 175.71 81.259C173.944 81.765 172.5 81.864 172.5 81.478C172.5 81.092 175.575 78.379 179.334 75.448C183.093 72.518 188.132 67.803 190.533 64.97L194.897 59.819L189.142 65.179C185.977 68.127 183.145 70.297 182.849 70.002C182.554 69.706 180.912 71.058 179.202 73.006C177.491 74.954 171.571 79.616 166.046 83.366C160.521 87.116 153.323 92.346 150.051 94.99C146.111 98.174 144.379 99.125 144.921 97.807C148.3 89.588 148.14 88.379 141.079 68.819C139.27 63.808 138.544 59.759 138.526 54.569C138.509 49.829 138.106 47.319 137.361 47.319C136.557 47.319 136.373 49.891 136.736 56.069ZM70.741 57.341C72.825 63.777 76.031 67.05 82.307 69.149C85.244 70.131 85.562 70.062 85.145 68.537C84.886 67.592 84.405 65.21 84.075 63.244C83.374 59.065 79.628 55.175 74.128 52.912C71.998 52.036 69.926 51.319 69.523 51.319C69.12 51.319 69.668 54.029 70.741 57.341ZM94.905 63.702C93.243 68.976 93.254 69.179 95.443 73.702C96.673 76.241 98.051 78.319 98.506 78.319C98.962 78.319 100.095 76.328 101.025 73.893C102.687 69.54 102.673 69.378 100.163 63.893C98.759 60.828 97.384 58.319 97.106 58.319C96.829 58.319 95.839 60.741 94.905 63.702ZM198.018 64.483L195.267 66.647L198.634 68.441C203.05 70.795 205.096 70.702 210.449 67.902L214.897 65.576L211.748 63.947C207.266 61.629 201.353 61.86 198.018 64.483ZM151.799 66.569C147.681 71.091 146.41 76.691 148.371 81.677C149.022 83.333 149.452 83.138 152.301 79.893C155.135 76.665 155.5 75.569 155.5 70.284C155.5 67.003 155.128 64.319 154.674 64.319C154.22 64.319 152.926 65.332 151.799 66.569ZM113.235 75.222C109.954 79.122 109.06 82.218 109.835 86.997C110.621 91.839 111.006 91.998 113.901 88.684C117.023 85.111 117.73 82.052 116.743 76.395L115.971 71.971L113.235 75.222ZM189.606 79.823C186.241 81.33 186.228 81.361 188.104 83.434C191.681 87.387 195.256 88.544 201.615 87.806C204.852 87.43 207.492 86.829 207.482 86.471C207.472 86.112 205.668 84.328 203.473 82.505C198.76 78.591 194.285 77.726 189.606 79.823ZM71 80.826C68.8 81.631 66.888 82.296 66.75 82.304C66.612 82.312 66.5 82.689 66.5 83.142C66.5 83.594 68.509 84.968 70.964 86.194C78.332 89.874 87.06 87.057 82.238 82.556C79.12 79.646 75.676 79.116 71 80.826ZM83.5 90.023C81.591 90.717 76.5 95.432 76.5 96.506C76.5 96.953 78.743 97.319 81.484 97.319C85.583 97.319 87.049 96.799 89.734 94.394L93 91.469L90.185 90.394C87.16 89.239 85.853 89.166 83.5 90.023ZM168.148 118.838C165.997 125.152 166.066 126.774 168.682 131.429L170.864 135.312L172.676 132.566C175.107 128.879 174.899 123.755 172.103 118.41L169.797 114L168.148 118.838ZM256.5 115.503C256.5 116.155 255.546 118.659 254.38 121.068C252.011 125.96 252.232 130.455 255.052 134.759L256.757 137.36L259.128 134.145C261.971 130.292 262.179 125.685 259.807 119.069C258.22 114.641 256.5 112.787 256.5 115.503ZM188.708 117.5C183.994 119.785 181.5 123.535 181.5 128.337C181.5 131.095 181.759 131.379 183.75 130.804C189.064 129.269 192.839 124.818 194.972 117.569C195.805 114.74 194.431 114.725 188.708 117.5ZM284.588 123.376C282.869 126.434 282.461 128.299 282.946 130.882C283.3 132.772 283.995 134.319 284.489 134.319C286.337 134.319 288.499 129.735 288.485 125.846C288.461 119.495 287.213 118.705 284.588 123.376ZM300 121.169C295.587 122.604 292.897 125.448 291.566 130.088L290.716 133.051L294.55 132.078C298.983 130.953 300.814 129.205 302.975 124.032C304.613 120.114 304.267 119.781 300 121.169ZM64.75 129.165C62.68 132.218 61.5 135.178 61.5 137.318C61.5 140.877 63.462 147.319 64.546 147.319C65.765 147.319 68.427 143.738 69.993 139.991C71.332 136.786 71.381 135.364 70.331 130.278C69.654 127 68.852 124.331 68.55 124.345C68.247 124.359 66.537 126.528 64.75 129.165ZM22.589 133.874C23.498 140.575 25.172 143.338 30.077 146.232L33.791 148.423L33.23 142.993C32.922 140.007 32.143 136.721 31.5 135.691C30.452 134.012 23.314 128.319 22.258 128.319C22.025 128.319 22.174 130.819 22.589 133.874ZM150.013 135.941C148.049 140.643 148.157 144.017 150.406 148.241L152.229 151.662L153.797 149.241C156.589 144.928 156.804 141.794 154.642 136.908C153.526 134.384 152.368 132.319 152.07 132.319C151.771 132.319 150.846 133.949 150.013 135.941ZM187.741 136.016C185.408 137.528 183.5 139.078 183.5 139.46C183.5 140.797 192.304 143.516 194.44 142.838C195.614 142.465 198.43 141.107 200.696 139.819L204.818 137.479L201.302 136.01C194.281 133.076 192.274 133.077 187.741 136.016ZM243.058 138.54C244.392 143.598 246.964 146.677 250.668 147.65C252.07 148.019 252.248 147.507 251.779 144.454C251.473 142.455 250.806 140.007 250.297 139.015C249.438 137.341 243.834 133.331 242.341 133.323C241.978 133.321 242.301 135.669 243.058 138.54ZM265.829 134.777C262.371 136.281 261.245 137.887 259.703 143.518C258.72 147.106 258.754 147.185 260.845 146.113C262.03 145.505 263.652 144.706 264.45 144.336C266.496 143.388 269.193 139.312 269.921 136.069C270.619 132.959 270.265 132.847 265.829 134.777ZM50.631 145.993C51.58 151.072 53.486 153.743 57.725 155.936L60.456 157.347L59.912 154.083C59.613 152.288 59.167 149.819 58.922 148.597C58.538 146.683 52.254 141.319 50.397 141.319C50.046 141.319 50.151 143.422 50.631 145.993ZM289.2 145.178L286.401 147.024L288.7 148.507C292.545 150.987 295.437 151.246 300.072 149.529C302.508 148.626 304.5 147.618 304.5 147.289C304.5 146.174 297.451 143.319 294.716 143.326C293.222 143.329 290.74 144.163 289.2 145.178ZM73.779 148.892C69.654 150.697 67.277 154.347 67.681 158.253L68 161.328L71.499 159.574C74.981 157.827 76.675 155.311 77.897 150.069C78.616 146.985 78.326 146.902 73.779 148.892ZM9.5 150.723C7.575 151.449 4.65 152.594 3 153.267L0 154.49L4.5 156.859C10.121 159.819 15.928 159.965 20.367 157.259L23.735 155.206L20.423 152.762C18.602 151.418 16.786 150.319 16.388 150.319C15.989 150.319 15.064 150.113 14.332 149.861C13.599 149.609 11.425 149.997 9.5 150.723ZM34.5 151.221C34.5 151.446 35.56 153.023 36.856 154.725C38.152 156.427 39.529 158.823 39.917 160.049C40.347 161.41 42.414 163.072 45.216 164.311C47.742 165.429 49.89 166.225 49.99 166.081C50.089 165.937 46.644 162.442 42.335 158.316C38.026 154.189 34.5 150.996 34.5 151.221ZM175.75 151.981C173.651 152.828 174.344 155.01 177.577 157.73C179.872 159.661 181.777 160.319 185.077 160.319C187.51 160.319 189.5 159.957 189.5 159.514C189.5 159.072 187.977 157.047 186.115 155.014C182.837 151.436 179.513 150.463 175.75 151.981ZM282.75 157.539C279.924 158.902 279.919 159.798 282.723 161.762C285.093 163.422 288.321 163.705 293.375 162.694C297.365 161.896 297.313 160.985 293.132 158.401C289.453 156.127 286.232 155.86 282.75 157.539ZM23.681 163.664C21.659 164.797 15.983 173.136 16.727 173.88C16.878 174.031 19.217 173.74 21.925 173.234C27.296 172.231 29.5 170.679 32.303 165.928L34.138 162.819L30.069 162.591C27.831 162.466 24.956 162.949 23.681 163.664ZM148.841 170.087C147.447 170.974 149.917 174.401 153.226 176.172C155.66 177.475 163.5 177.737 163.5 176.515C163.5 176.073 162.016 174.273 160.202 172.515C156.923 169.336 151.756 168.232 148.841 170.087ZM247.682 182.819C246.048 184.194 244.101 185.347 243.356 185.382C242.61 185.417 244.602 186.3 247.782 187.345C253.942 189.37 255.407 189.171 261.471 185.483L264.787 183.466L261.022 181.892C255.516 179.592 251.157 179.895 247.682 182.819ZM327.138 192.226C322.655 195.409 321.412 197.333 320.454 202.57C319.807 206.111 319.904 206.328 321.879 205.741C325.504 204.664 328.402 202.413 329.838 199.56C331.416 196.425 332.717 189.278 331.687 189.401C331.309 189.446 329.262 190.717 327.138 192.226ZM311.168 195.703C308.649 199.547 308.181 203.38 309.773 207.139L311.178 210.459L312.794 207.993C315.305 204.161 315.697 201.154 314.234 196.948L312.888 193.078L311.168 195.703ZM42.5 200.573C42.5 202.503 46.829 207.494 49.329 208.444C50.755 208.986 52.958 209.17 54.225 208.852C56.427 208.299 56.462 208.146 55.021 205.36C54.192 203.757 52.965 202.106 52.294 201.691C50.271 200.441 42.5 199.554 42.5 200.573ZM286.5 205.935C282.556 208.631 280.612 212.272 280.545 217.089L280.5 220.36L284.357 218.392C288.758 216.147 290.79 212.283 290.318 207.059L290 203.542L286.5 205.935ZM34.917 213.604C32.191 215.193 27.5 218.976 27.5 219.584C27.5 219.847 29.707 220.354 32.405 220.712C37.99 221.453 41.707 220.178 43.953 216.751C45.358 214.606 45.275 214.436 42.317 213.405C38.448 212.056 37.53 212.081 34.917 213.604ZM321.941 215.77C320.045 217.187 320.057 217.261 322.483 219.02C326.198 221.713 328.489 222.081 334 220.871L339 219.774L335.018 217.047C330.554 213.989 325.044 213.451 321.941 215.77ZM50.372 218.069C49.129 219.655 49.164 219.69 50.75 218.447C52.416 217.14 52.945 216.319 52.122 216.319C51.915 216.319 51.127 217.106 50.372 218.069ZM57.837 219.891C55.555 222.173 55.315 223.077 55.714 227.89C56.243 234.268 56.988 235.377 58.977 232.746C61.914 228.86 63.241 224.769 62.764 221.069C62.194 216.643 61.299 216.429 57.837 219.891ZM44.094 221.693C38.736 224.659 36.274 228.319 35.45 234.543C35.066 237.445 34.87 239.957 35.016 240.126C35.161 240.295 37.349 238.974 39.878 237.192C43.092 234.927 44.908 232.728 45.915 229.885C47.222 226.195 48.774 219.166 48.225 219.425C48.101 219.484 46.242 220.504 44.094 221.693ZM299 229.319C301.443 231.869 302.624 232.319 306.874 232.319H311.874L309 229.319C306.557 226.769 305.376 226.319 301.126 226.319H296.126L299 229.319ZM262.135 239.396C261.063 244.755 261.41 247.207 263.75 250.821C264.988 252.731 266.319 254.3 266.71 254.307C267.1 254.313 267.952 252.542 268.603 250.371C269.974 245.793 268.828 241.915 265.054 238.37L262.769 236.223L262.135 239.396ZM281.203 242.732C282.786 244.858 288.146 247.006 289.212 245.941C289.572 245.58 280.789 240.319 279.827 240.319C279.596 240.319 280.215 241.405 281.203 242.732ZM299.092 245.127L295.185 246.882L297.592 248.457C301.688 251.134 304.457 251.552 309.07 250.19C311.507 249.471 313.5 248.571 313.5 248.19C313.5 247.413 305.387 243.304 303.934 243.345C303.42 243.36 301.242 244.161 299.092 245.127ZM286.503 253.811C284.948 257.901 285.309 261.807 287.5 264.592C288.6 265.99 289.5 267.626 289.5 268.227C289.5 270.647 291.291 269.114 291.875 266.194C293.039 260.373 292.539 257.154 290.003 254.14L287.506 251.173L286.503 253.811ZM208 253.275C205.394 254.35 200.972 259.124 201.807 259.96C202.164 260.316 204.603 260.8 207.228 261.035C211.458 261.413 212.437 261.095 215.849 258.236C218.657 255.882 219.334 254.816 218.349 254.293C215.934 253.009 210.048 252.43 208 253.275ZM297.25 254.391C298.488 255.797 299.5 257.865 299.5 258.986C299.5 262.379 303.743 267.38 308.326 269.391L312.652 271.289L311.956 268.054C310.468 261.146 308.208 258.353 302.565 256.452C300.676 255.815 298.201 254.515 297.065 253.564C295.316 252.098 295.344 252.224 297.25 254.391ZM226.25 269.891C222.828 271.748 222.804 272.633 226.117 274.804C229.301 276.89 233.848 276.999 238.5 275.101L241.976 273.682L237.4 271.001C232.219 267.965 230.176 267.761 226.25 269.891ZM217.544 283.11C218.127 286.951 219.019 288.432 222.626 291.547L227 295.325L227.307 291.882C227.731 287.122 225.168 282.701 220.648 280.394L216.837 278.45L217.544 283.11Z" fill="black"/>
</svg>
