<svg width="419" height="708" viewBox="0 0 419 708" fill="none" xmlns="http://www.w3.org/2000/svg">
<path d="M366.608 0C366.608 0 -209.8 207.761 82.9034 602.22C598.069 604.708 366.608 0 366.608 0Z" fill="#2F5D50"/>
<path d="M36.9148 707.348C38.4648 707.544 40.0297 707.128 41.2777 706.188C42.5257 705.248 43.3577 703.859 43.5967 702.316C43.6767 701.911 49.5747 663.347 86.9037 604.991C222.721 392.953 281.876 212.009 282.414 210.162C282.671 209.417 282.774 208.628 282.716 207.842C282.658 207.056 282.44 206.291 282.077 205.592C281.713 204.893 281.21 204.275 280.6 203.777C279.99 203.279 279.284 202.91 278.527 202.693C277.014 202.201 275.369 202.33 273.951 203.051C272.534 203.772 271.46 205.026 270.967 206.538C270.338 208.342 211.69 387.977 76.7777 598.563C67.1257 613.51 58.4637 629.074 50.8487 645.155C34.9527 678.899 31.8997 699.458 31.7017 700.581C31.5057 702.131 31.9217 703.696 32.8617 704.943C33.8017 706.191 35.1908 707.023 36.7338 707.263L36.9148 707.348Z" fill="#6B8F71"/>
</svg>
